{
customParameters = (
{
name = glyphOrder;
value = (
    ".notdef",
    B,
    C,
    D,
    E,
    V,
    I,
    O,
    P,
    S,
    N,
    space,
    F,
    G,
    H,
    U,
    M,
    L,
    "L_I",
    "L_A",
    R,
    T,
    "T_A",
    "T_E",
    "T_I",
    K,
    J,
    Q,
    W,
    X,
    Y,
    Z,
    o,
    a,
    b,
    c,
    d,
    e,
    f,
    g,
    h,
    i,
    l,
    j,
    k,
    n,
    m,
    p,
    q,
    r,
    s,
    t,
    u,
    v,
    w,
    x,
    y,
    z,
    acute,
    "a_peq",
    aacute,
    "e_peq",
    eacute,
    dotlessi,
    iacute,
    oacute,
    "o_peq",
    "u_peq",
    uacute,
    dotaccent,
    edotaccent,
    one,
    seven,
    A,
    six,
    zero,
    period,
    two,
    three,
    four,
    five,
    eight,
    nine,
    comma,
    grave,
    agrave,
    egrave,
    igrave,
    ograve,
    ugrave,
    breve,
    caron,
    circumflex,
    abreve,
    acircumflex,
    ccaron,
    ebreve,
    ecaron,
    ecircumflex,
    "c.peq",
    cacute,
    ccircumflex,
    cdotaccent,
    dieresis,
    macron,
    amacron,
    emacron,
    imacron,
    omacron,
    edieresis,
    adieresis,
    idieresis,
    icircumflex,
    ibreve,
    obreve,
    ocircumflex,
    odieresis,
    ubreve,
    ucircumflex,
    udieresis,
    umacron,
    Eacute,
    tilde,
    ring,
    aring,
    uring,
    atilde,
    itilde,
    otilde,
    utilde,
    cedilla,
    ccedilla,
    fi,
    ff,
    ffi,
    oe,
    "T_O",
    ogonek,
    eogonek,
    hungarumlaut,
    uhungarumlaut,
    uogonek,
    iogonek,
    Eogonek,
    Iogonek,
    Uogonek,
    hyphen,
    parenleft,
    parenright,
    endash,
    emdash,
    minus,
    "A.peq",
    Aacute,
    Abreve,
    Acircumflex,
    Agrave,
    Adieresis,
    Amacron,
    Aogonek,
    Aring,
    Atilde,
    AE,
    Cacute,
    "C.peq",
    Ccaron,
    Ccedilla,
    Ccircumflex,
    Cdotaccent,
    "E.peq",
    Ebreve,
    Ecaron,
    Ecircumflex,
    Edieresis,
    Edotaccent,
    Egrave,

glyphs = (
{
glyphname = B;
lastChange = "2015-10-17 22:46:10 +0000";
layers = (
{
layerId = "7A0FC40B-77F8-4D14-AD08-D047673E78CB";
name = Regular;
paths = (
{
closed = 1;
nodes = (
"88 690 OFFCURVE",
"156 698 OFFCURVE",
"225 703 CURVE SMOOTH",
"293 708 OFFCURVE",
"361 712 OFFCURVE",
"420 712 CURVE SMOOTH",
"535 712 OFFCURVE",
"631 705 OFFCURVE",
"702 685 CURVE",
"759 642 OFFCURVE",
"782 583 OFFCURVE",
"782 527 CURVE SMOOTH",
"782 488 OFFCURVE",
"767 439 OFFCURVE",
"736 407 CURVE",
"772 388 OFFCURVE",
"797 369 OFFCURVE",
"813 342 CURVE SMOOTH",
"828 315 OFFCURVE",
"835 281 OFFCURVE",
"835 234 CURVE SMOOTH",
"835 151 OFFCURVE",
"801 84 OFFCURVE",
"737 33 CURVE",
"645 -2 OFFCURVE",
"520 -12 OFFCURVE",
"389 -12 CURVE SMOOTH",
"334 -12 OFFCURVE",
"261 -9 OFFCURVE",
"191 -4 CURVE SMOOTH",
"121 1 OFFCURVE",
"54 7 OFFCURVE",
"10 15 CURVE",
"26 162 OFFCURVE",
"33 297 OFFCURVE",
"33 453 CURVE SMOOTH",
"33 526 OFFCURVE",
"32 597 OFFCURVE",
"29 681 CURVE"
);
},
{
closed = 1;
nodes = (
"362 506 OFFCURVE",
"362 450 OFFCURVE",
"365 413 CURVE",
"421 416 OFFCURVE",
"449 452 OFFCURVE",
"449 508 CURVE SMOOTH",
"449 565 OFFCURVE",
"423 578 OFFCURVE",
"391 578 CURVE SMOOTH",
"380 578 OFFCURVE",
"371 577 OFFCURVE",
"362 574 CURVE"
);
},
{
closed = 1;
nodes = (
"351 220 OFFCURVE",
"355 147 OFFCURVE",
"360 98 CURVE",
"447 98 OFFCURVE",
"478 127 OFFCURVE",
"478 203 CURVE SMOOTH",
"478 263 OFFCURVE",
"447 293 OFFCURVE",
"400 293 CURVE SMOOTH",
"384 293 OFFCURVE",
"368 290 OFFCURVE",
"351 284 CURVE"
);
}
);
width = 850;
}
);
unicode = 0042;
},
{
glyphname = C;
lastChange = "2015-10-17 22:46:10 +0000";
layers = (
{
layerId = "7A0FC40B-77F8-4D14-AD08-D047673E78CB";
name = Regular;
paths = (
{
closed = 1;
nodes = (
"661 6 LINE",
"629 1 OFFCURVE",
"594 -3 OFFCURVE",
"559 -6 CURVE SMOOTH",
"524 -10 OFFCURVE",
"491 -12 OFFCURVE",
"463 -12 CURVE SMOOTH",
"392 -12 OFFCURVE",
"334 -9 OFFCURVE",
"281 -1 CURVE SMOOTH",
"228 6 OFFCURVE",
"179 18 OFFCURVE",
"127 35 CURVE",
"87 75 OFFCURVE",
"56 116 OFFCURVE",
"36 166 CURVE SMOOTH",
"15 216 OFFCURVE",
"5 275 OFFCURVE",
"5 354 CURVE SMOOTH",
"5 435 OFFCURVE",
"16 498 OFFCURVE",
"40 550 CURVE SMOOTH",
"63 601 OFFCURVE",
"96 641 OFFCURVE",
"140 678 CURVE",
"184 690 OFFCURVE",
"227 698 OFFCURVE",
"275 704 CURVE SMOOTH",
"322 710 OFFCURVE",
"373 712 OFFCURVE",
"432 712 CURVE SMOOTH",
"535 712 OFFCURVE",
"612 699 OFFCURVE",
"677 679 CURVE",
"642 504 LINE",
"603 515 OFFCURVE",
"565 521 OFFCURVE",
"529 521 CURVE SMOOTH",
"488 521 OFFCURVE",
"451 516 OFFCURVE",
"423 512 CURVE",
"392 481 OFFCURVE",
"374 431 OFFCURVE",
"374 356 CURVE SMOOTH",
"374 263 OFFCURVE",
"397 205 OFFCURVE",
"438 173 CURVE",
"473 166 OFFCURVE",
"517 162 OFFCURVE",
"568 162 CURVE SMOOTH",
"592 162 OFFCURVE",
"619 163 OFFCURVE",
"647 168 CURVE"
);
}
);
width = 692;
}
);
unicode = 0043;
},
{
glyphname = D;
lastChange = "2015-10-17 22:46:10 +0000";
layers = (
{
layerId = "7A0FC40B-77F8-4D14-AD08-D047673E78CB";
name = Regular;
paths = (
{
closed = 1;
nodes = (
"463 446 OFFCURVE",
"463 503 OFFCURVE",
"442 538 CURVE",
"429 553 OFFCURVE",
"411 558 OFFCURVE",
"391 558 CURVE SMOOTH",
"380 558 OFFCURVE",
"360 557 OFFCURVE",
"347 554 CURVE",
"348 512 OFFCURVE",
"349 473 OFFCURVE",
"350 438 CURVE SMOOTH",
"353 367 OFFCURVE",
"355 301 OFFCURVE",
"357 231 CURVE SMOOTH",
"358 196 OFFCURVE",
"359 158 OFFCURVE",
"360 118 CURVE",
"397 118 OFFCURVE",
"425 130 OFFCURVE",
"442 155 CURVE",
"455 199 OFFCURVE",
"463 266 OFFCURVE",
"463 351 CURVE SMOOTH"
);
},
{
closed = 1;
nodes = (
"317 -12 OFFCURVE",
"248 -9 OFFCURVE",
"182 -4 CURVE SMOOTH",
"116 1 OFFCURVE",
"51 7 OFFCURVE",
"10 15 CURVE",
"26 162 OFFCURVE",
"33 297 OFFCURVE",
"33 453 CURVE SMOOTH",
"33 526 OFFCURVE",
"32 597 OFFCURVE",
"29 681 CURVE",
"85 690 OFFCURVE",
"150 698 OFFCURVE",
"215 703 CURVE SMOOTH",
"280 708 OFFCURVE",
"345 712 OFFCURVE",
"400 712 CURVE SMOOTH",
"541 712 OFFCURVE",
"654 694 OFFCURVE",
"734 655 CURVE",
"794 595 OFFCURVE",
"827 499 OFFCURVE",
"827 354 CURVE SMOOTH",
"827 221 OFFCURVE",
"801 127 OFFCURVE",
"750 64 CURVE",
"666 13 OFFCURVE",
"538 -12 OFFCURVE",
"369 -12 CURVE SMOOTH"
);
}
);
width = 852;
}
);
unicode = 0044;
},
{
glyphname = E;
lastChange = "2015-10-17 22:46:10 +0000";
layers = (
{
layerId = "7A0FC40B-77F8-4D14-AD08-D047673E78CB";
name = Regular;
paths = (
{
closed = 1;
nodes = (
"693 160 LINE",
"679 1 LINE",
"456 -2 OFFCURVE",
"238 -5 OFFCURVE",
"10 -12 CURVE",
"18 228 OFFCURVE",
"21 463 OFFCURVE",
"21 700 CURVE",
"244 703 OFFCURVE",
"463 707 OFFCURVE",
"680 712 CURVE",
"668 539 LINE",
"569 542 OFFCURVE",
"471 544 OFFCURVE",
"362 544 CURVE",
"362 443 LINE",
"449 444 OFFCURVE",
"534 446 OFFCURVE",
"625 449 CURVE",
"608 291 LINE",
"351 281 LINE",
"361 149 LINE"
);
}
);
width = 708;
}
);
unicode = 0045;
},
{
glyphname = V;
lastChange = "2015-10-17 22:46:10 +0000";
layers = (
{
layerId = "7A0FC40B-77F8-4D14-AD08-D047673E78CB";
name = Regular;
paths = (
{
closed = 1;
nodes = (
"415 537 OFFCURVE",
"447 373 OFFCURVE",
"484 206 CURVE",
"519 371 OFFCURVE",
"552 537 OFFCURVE",
"583 710 CURVE",
"845 698 LINE",
"768 467 OFFCURVE",
"719 238 OFFCURVE",
"676 2 CURVE",
"596 2 OFFCURVE",
"504 1 OFFCURVE",
"413 -1 CURVE SMOOTH",
"322 -3 OFFCURVE",
"232 -8 OFFCURVE",
"159 -12 CURVE",
"126 224 OFFCURVE",
"78 464 OFFCURVE",
"5 700 CURVE",
"134 702 OFFCURVE",
"266 706 OFFCURVE",
"399 712 CURVE"
);
}
);
width = 850;
}
);
unicode = 0056;
},
{
glyphname = I;
lastChange = "2015-10-17 22:46:10 +0000";
layers = (
{
layerId = "7A0FC40B-77F8-4D14-AD08-D047673E78CB";
name = Regular;
paths = (
{
closed = 1;
nodes = (
"376 1 LINE",
"10 -12 LINE",
"33 700 LINE",
"365 712 LINE"
);
}
);
width = 386;
}
);
unicode = 0049;
},
{
glyphname = O;
lastChange = "2015-10-17 22:46:10 +0000";
layers = (
{
layerId = "7A0FC40B-77F8-4D14-AD08-D047673E78CB";
name = Regular;
paths = (
{
closed = 1;
nodes = (
"289 -12 OFFCURVE",
"184 2 OFFCURVE",
"111 33 CURVE",
"44 104 OFFCURVE",
"10 195 OFFCURVE",
"10 346 CURVE SMOOTH",
"10 415 OFFCURVE",
"18 473 OFFCURVE",
"32 522 CURVE SMOOTH",
"46 570 OFFCURVE",
"67 611 OFFCURVE",
"95 648 CURVE",
"175 691 OFFCURVE",
"293 712 OFFCURVE",
"449 712 CURVE SMOOTH",
"598 712 OFFCURVE",
"711 691 OFFCURVE",
"786 644 CURVE",
"809 603 OFFCURVE",
"826 563 OFFCURVE",
"838 518 CURVE SMOOTH",
"850 473 OFFCURVE",
"856 421 OFFCURVE",
"856 354 CURVE SMOOTH",
"856 290 OFFCURVE",
"850 238 OFFCURVE",
"838 192 CURVE SMOOTH",
"826 146 OFFCURVE",
"808 106 OFFCURVE",
"785 63 CURVE",
"705 12 OFFCURVE",
"587 -12 OFFCURVE",
"418 -12 CURVE SMOOTH"
);
},
{
closed = 1;
nodes = (
"441 118 OFFCURVE",
"458 124 OFFCURVE",
"469 136 CURVE",
"486 177 OFFCURVE",
"492 247 OFFCURVE",
"492 351 CURVE SMOOTH",
"492 435 OFFCURVE",
"486 488 OFFCURVE",
"477 520 CURVE",
"469 532 OFFCURVE",
"457 538 OFFCURVE",
"440 538 CURVE SMOOTH",
"419 538 OFFCURVE",
"404 533 OFFCURVE",
"393 523 CURVE",
"380 490 OFFCURVE",
"373 428 OFFCURVE",
"373 339 CURVE SMOOTH",
"373 240 OFFCURVE",
"376 180 OFFCURVE",
"384 141 CURVE",
"391 126 OFFCURVE",
"402 118 OFFCURVE",
"419 118 CURVE SMOOTH"
);
}
);
width = 866;
}
);
unicode = 004F;
},
{
glyphname = P;
lastChange = "2015-10-17 22:46:10 +0000";
layers = (
{
layerId = "7A0FC40B-77F8-4D14-AD08-D047673E78CB";
name = Regular;
paths = (
{
closed = 1;
nodes = (
"453 488 OFFCURVE",
"448 523 OFFCURVE",
"441 544 CURVE",
"429 553 OFFCURVE",
"412 558 OFFCURVE",
"391 558 CURVE SMOOTH",
"380 558 OFFCURVE",
"360 557 OFFCURVE",
"347 554 CURVE",
"351 459 OFFCURVE",
"353 387 OFFCURVE",
"360 298 CURVE",
"395 298 OFFCURVE",
"418 305 OFFCURVE",
"435 320 CURVE",
"446 345 OFFCURVE",
"453 383 OFFCURVE",
"453 431 CURVE SMOOTH"
);
},
{
closed = 1;
nodes = (
"369 -12 LINE",
"317 -12 OFFCURVE",
"248 -9 OFFCURVE",
"182 -4 CURVE SMOOTH",
"116 1 OFFCURVE",
"51 7 OFFCURVE",
"10 15 CURVE",
"26 162 OFFCURVE",
"33 297 OFFCURVE",
"33 453 CURVE SMOOTH",
"33 526 OFFCURVE",
"32 597 OFFCURVE",
"29 681 CURVE",
"85 690 OFFCURVE",
"150 698 OFFCURVE",
"215 703 CURVE SMOOTH",
"280 708 OFFCURVE",
"345 712 OFFCURVE",
"400 712 CURVE SMOOTH",
"552 712 OFFCURVE",
"667 693 OFFCURVE",
"743 653 CURVE",
"792 606 OFFCURVE",
"817 533 OFFCURVE",
"817 434 CURVE SMOOTH",
"817 347 OFFCURVE",
"794 283 OFFCURVE",
"754 236 CURVE",
"676 191 OFFCURVE",
"548 168 OFFCURVE",
"369 168 CURVE"
);
}
);
width = 822;
}
);
unicode = 0050;
},
{
glyphname = S;
lastChange = "2015-10-17 22:46:10 +0000";
layers = (
{
layerId = "7A0FC40B-77F8-4D14-AD08-D047673E78CB";
name = Regular;
paths = (
{
closed = 1;
nodes = (
"19 168 LINE",
"47 163 OFFCURVE",
"104 157 OFFCURVE",
"148 157 CURVE SMOOTH",
"202 157 OFFCURVE",
"244 163 OFFCURVE",
"274 174 CURVE",
"287 185 OFFCURVE",
"293 202 OFFCURVE",
"293 224 CURVE SMOOTH",
"293 241 OFFCURVE",
"283 254 OFFCURVE",
"267 266 CURVE",
"240 271 OFFCURVE",
"205 279 OFFCURVE",
"169 288 CURVE SMOOTH",
"132 296 OFFCURVE",
"94 307 OFFCURVE",
"62 320 CURVE",
"30 355 OFFCURVE",
"5 404 OFFCURVE",
"5 484 CURVE SMOOTH",
"5 572 OFFCURVE",
"31 633 OFFCURVE",
"78 673 CURVE",
"151 701 OFFCURVE",
"263 712 OFFCURVE",
"402 712 CURVE SMOOTH",
"501 712 OFFCURVE",
"574 704 OFFCURVE",
"637 689 CURVE",
"602 529 LINE",
"587 536 OFFCURVE",
"566 540 OFFCURVE",
"544 544 CURVE",
"522 547 OFFCURVE",
"499 548 OFFCURVE",
"486 548 CURVE SMOOTH",
"446 548 OFFCURVE",
"413 544 OFFCURVE",
"387 536 CURVE",
"378 527 OFFCURVE",
"374 514 OFFCURVE",
"374 496 CURVE SMOOTH",
"374 481 OFFCURVE",
"380 468 OFFCURVE",
"393 455 CURVE",
"406 451 OFFCURVE",
"422 447 OFFCURVE",
"441 443 CURVE SMOOTH",
"478 435 OFFCURVE",
"520 426 OFFCURVE",
"562 415 CURVE SMOOTH",
"583 409 OFFCURVE",
"602 402 OFFCURVE",
"621 395 CURVE",
"644 364 OFFCURVE",
"661 322 OFFCURVE",
"661 254 CURVE SMOOTH",
"661 164 OFFCURVE",
"642 95 OFFCURVE",
"603 47 CURVE",
"527 8 OFFCURVE",
"404 -12 OFFCURVE",
"243 -12 CURVE SMOOTH",
"210 -12 OFFCURVE",
"170 -10 OFFCURVE",
"128 -6 CURVE SMOOTH",
"86 -3 OFFCURVE",
"42 1 OFFCURVE",
"5 6 CURVE"
);
}
);
width = 666;
}
);
unicode = 0053;
},
{
glyphname = N;
lastChange = "2015-10-17 22:46:10 +0000";
layers = (
{
layerId = "7A0FC40B-77F8-4D14-AD08-D047673E78CB";
name = Regular;
paths = (
{
closed = 1;
nodes = (
"744 1 LINE",
"418 -12 LINE",
"429 144 LINE",
"308 265 LINE",
"320 -1 LINE",
"5 -12 LINE",
"20 216 OFFCURVE",
"27 451 OFFCURVE",
"27 700 CURVE",
"265 709 LINE",
"469 473 LINE",
"461 700 LINE",
"733 712 LINE"
);
}
);
width = 749;
}
);
unicode = 004E;
},
{
glyphname = F;
lastChange = "2015-10-17 22:46:10 +0000";
layers = (
{
layerId = "7A0FC40B-77F8-4D14-AD08-D047673E78CB";
name = Regular;
paths = (
{
closed = 1;
nodes = (
"363 1 LINE",
"10 -12 LINE",
"17 227 OFFCURVE",
"20 461 OFFCURVE",
"21 700 CURVE",
"242 703 OFFCURVE",
"459 707 OFFCURVE",
"680 712 CURVE",
"668 539 LINE",
"567 543 OFFCURVE",
"466 544 OFFCURVE",
"362 544 CURVE",
"362 413 LINE",
"449 414 OFFCURVE",
"536 416 OFFCURVE",
"625 419 CURVE",
"608 261 LINE",
"351 251 LINE"
);
}
);
width = 685;
}
);
unicode = 0046;
},
{
glyphname = G;
lastChange = "2015-10-17 22:46:10 +0000";
layers = (
{
layerId = "7A0FC40B-77F8-4D14-AD08-D047673E78CB";
name = Regular;
paths = (
{
closed = 1;
nodes = (
"798 31 LINE",
"677 -4 OFFCURVE",
"559 -12 OFFCURVE",
"463 -12 CURVE SMOOTH",
"328 -12 OFFCURVE",
"220 2 OFFCURVE",
"140 33 CURVE",
"95 73 OFFCURVE",
"62 113 OFFCURVE",
"39 164 CURVE SMOOTH",
"16 215 OFFCURVE",
"5 275 OFFCURVE",
"5 354 CURVE SMOOTH",
"5 514 OFFCURVE",
"53 609 OFFCURVE",
"144 676 CURVE",
"224 700 OFFCURVE",
"327 712 OFFCURVE",
"452 712 CURVE SMOOTH",
"591 712 OFFCURVE",
"695 704 OFFCURVE",
"787 689 CURVE",
"742 499 LINE",
"679 512 OFFCURVE",
"606 518 OFFCURVE",
"546 518 CURVE SMOOTH",
"495 518 OFFCURVE",
"452 510 OFFCURVE",
"417 497 CURVE",
"388 470 OFFCURVE",
"374 423 OFFCURVE",
"374 356 CURVE SMOOTH",
"374 277 OFFCURVE",
"388 222 OFFCURVE",
"416 190 CURVE",
"439 179 OFFCURVE",
"469 171 OFFCURVE",
"504 167 CURVE",
"485 350 LINE",
"817 362 LINE"
);
}
);
width = 842;
}
);
unicode = 0047;
},
{
glyphname = H;
lastChange = "2015-10-17 22:46:10 +0000";
layers = (
{
layerId = "7A0FC40B-77F8-4D14-AD08-D047673E78CB";
name = Regular;
paths = (
{
closed = 1;
nodes = (
"779 1 LINE",
"445 -12 LINE",
"445 270 LINE",
"331 277 LINE",
"345 -1 LINE",
"10 -12 LINE",
"25 216 OFFCURVE",
"32 451 OFFCURVE",
"32 700 CURVE",
"390 712 LINE",
"369 467 LINE",
"474 472 LINE",
"466 700 LINE",
"768 712 LINE"
);
}
);
width = 789;
}
);
unicode = 0048;
},
{
glyphname = U;
lastChange = "2015-10-17 22:46:10 +0000";
layers = (
{
layerId = "7A0FC40B-77F8-4D14-AD08-D047673E78CB";
name = Regular;
paths = (
{
closed = 1;
nodes = (
"366 712 LINE",
"361 648 OFFCURVE",
"356 590 OFFCURVE",
"353 530 CURVE SMOOTH",
"350 470 OFFCURVE",
"348 408 OFFCURVE",
"348 339 CURVE SMOOTH",
"348 290 OFFCURVE",
"349 251 OFFCURVE",
"351 223 CURVE",
"352 194 OFFCURVE",
"355 173 OFFCURVE",
"359 160 CURVE",
"370 148 OFFCURVE",
"385 148 OFFCURVE",
"404 148 CURVE SMOOTH",
"425 148 OFFCURVE",
"444 152 OFFCURVE",
"460 159 CURVE",
"480 188 OFFCURVE",
"487 251 OFFCURVE",
"487 351 CURVE SMOOTH",
"487 472 OFFCURVE",
"480 577 OFFCURVE",
"471 700 CURVE",
"783 712 LINE",
"799 583 OFFCURVE",
"802 454 OFFCURVE",
"802 318 CURVE SMOOTH",
"802 194 OFFCURVE",
"775 107 OFFCURVE",
"726 48 CURVE",
"651 8 OFFCURVE",
"540 -12 OFFCURVE",
"403 -12 CURVE SMOOTH",
"258 -12 OFFCURVE",
"148 8 OFFCURVE",
"76 55 CURVE",
"36 115 OFFCURVE",
"15 202 OFFCURVE",
"15 326 CURVE SMOOTH",
"15 450 OFFCURVE",
"19 569 OFFCURVE",
"35 700 CURVE"
);
}
);
width = 817;
}
);
unicode = 0055;
},
{
glyphname = M;
lastChange = "2015-10-17 22:46:10 +0000";
layers = (
{
layerId = "7A0FC40B-77F8-4D14-AD08-D047673E78CB";
name = Regular;
paths = (
{
closed = 1;
nodes = (
"550 97 LINE",
"370 87 LINE",
"305 314 LINE",
"298 305 LINE",
"320 -1 LINE",
"5 -12 LINE",
"20 216 OFFCURVE",
"27 451 OFFCURVE",
"27 700 CURVE",
"385 712 LINE",
"457 487 LINE",
"531 699 LINE",
"903 712 LINE",
"903 471 OFFCURVE",
"906 237 OFFCURVE",
"914 1 CURVE",
"598 -12 LINE",
"618 314 LINE",
"610 316 LINE"
);
}
);
width = 919;
}
);
unicode = 004D;
},
{
glyphname = L;
lastChange = "2015-10-17 22:46:10 +0000";
layers = (
{
layerId = "7A0FC40B-77F8-4D14-AD08-D047673E78CB";
name = Regular;
paths = (
{
closed = 1;
nodes = (
"373 169 LINE",
"693 180 LINE",
"679 1 LINE",
"452 -2 OFFCURVE",
"231 -5 OFFCURVE",
"10 -12 CURVE",
"33 700 LINE",
"365 712 LINE"
);
}
);
width = 708;
}
);
unicode = 004C;
},
{
glyphname = L_I;
lastChange = "2015-10-17 22:46:10 +0000";
layers = (
{
layerId = "7A0FC40B-77F8-4D14-AD08-D047673E78CB";
name = Regular;
paths = (
{
closed = 1;
nodes = (
"373 169 LINE",
"889 187 LINE",
"875 1 LINE",
"838 0 OFFCURVE",
"795 0 OFFCURVE",
"748 0 CURVE SMOOTH",
"701 -1 OFFCURVE",
"651 -1 OFFCURVE",
"600 -2 CURVE SMOOTH",
"548 -3 OFFCURVE",
"495 -3 OFFCURVE",
"441 -4 CURVE SMOOTH",
"332 -5 OFFCURVE",
"228 -7 OFFCURVE",
"135 -9 CURVE SMOOTH",
"88 -10 OFFCURVE",
"47 -11 OFFCURVE",
"10 -12 CURVE",
"33 700 LINE",
"365 712 LINE"
);
},
{
closed = 1;
nodes = (
"876 231 LINE",
"510 218 LINE",
"533 700 LINE",
"865 712 LINE"
);
}
);
width = 899;
}
);
},
{
glyphname = L_A;
lastChange = "2015-10-17 22:46:10 +0000";
layers = (
{
layerId = "7A0FC40B-77F8-4D14-AD08-D047673E78CB";
name = Regular;
paths = (
{
closed = 1;
nodes = (
"415 212 LINE",
"495 373 OFFCURVE",
"550 531 OFFCURVE",
"594 694 CURVE",
"674 694 OFFCURVE",
"766 696 OFFCURVE",
"857 699 CURVE SMOOTH",
"948 702 OFFCURVE",
"1038 707 OFFCURVE",
"1111 712 CURVE",
"1142 476 OFFCURVE",
"1187 242 OFFCURVE",
"1255 6 CURVE",
"1126 3 OFFCURVE",
"996 -3 OFFCURVE",
"861 -12 CURVE",
"822 250 LINE",
"709 250 LINE",
"700 213 LINE"
);
},
{
closed = 1;
nodes = (
"809 402 LINE",
"789 515 LINE",
"774 512 LINE",
"746 395 LINE"
);
},
{
closed = 1;
nodes = (
"373 169 LINE",
"693 180 LINE",
"679 1 LINE",
"452 -2 OFFCURVE",
"231 -5 OFFCURVE",
"10 -12 CURVE",
"33 700 LINE",
"365 712 LINE"
);
}
);
width = 1260;
}
);
},
{
glyphname = R;
lastChange = "2015-10-17 22:46:10 +0000";
layers = (
{
layerId = "7A0FC40B-77F8-4D14-AD08-D047673E78CB";
name = Regular;
paths = (
{
closed = 1;
nodes = (
"369 -12 LINE",
"317 -12 OFFCURVE",
"248 -9 OFFCURVE",
"182 -4 CURVE SMOOTH",
"116 1 OFFCURVE",
"51 7 OFFCURVE",
"10 15 CURVE",
"26 162 OFFCURVE",
"33 297 OFFCURVE",
"33 453 CURVE SMOOTH",
"33 526 OFFCURVE",
"32 597 OFFCURVE",
"29 681 CURVE",
"85 690 OFFCURVE",
"150 698 OFFCURVE",
"215 703 CURVE SMOOTH",
"280 708 OFFCURVE",
"345 712 OFFCURVE",
"400 712 CURVE SMOOTH",
"575 712 OFFCURVE",
"698 690 OFFCURVE",
"775 642 CURVE",
"810 596 OFFCURVE",
"827 532 OFFCURVE",
"827 449 CURVE SMOOTH",
"827 377 OFFCURVE",
"813 319 OFFCURVE",
"785 276 CURVE",
"761 268 OFFCURVE",
"735 260 OFFCURVE",
"703 253 CURVE",
"736 169 OFFCURVE",
"789 86 OFFCURVE",
"845 6 CURVE",
"725 3 OFFCURVE",
"606 -3 OFFCURVE",
"481 -12 CURVE",
"460 83 OFFCURVE",
"430 146 OFFCURVE",
"395 198 CURVE",
"369 198 LINE"
);
},
{
closed = 1;
nodes = (
"463 495 OFFCURVE",
"460 525 OFFCURVE",
"453 544 CURVE",
"438 553 OFFCURVE",
"418 558 OFFCURVE",
"391 558 CURVE SMOOTH",
"380 558 OFFCURVE",
"360 557 OFFCURVE",
"347 554 CURVE",
"350 482 OFFCURVE",
"353 427 OFFCURVE",
"360 358 CURVE",
"399 358 OFFCURVE",
"428 365 OFFCURVE",
"447 378 CURVE",
"458 393 OFFCURVE",
"463 416 OFFCURVE",
"463 446 CURVE SMOOTH"
);
}
);
width = 850;
}
);
unicode = 0052;
},
{
glyphname = T;
lastChange = "2015-10-17 22:46:10 +0000";
layers = (
{
layerId = "7A0FC40B-77F8-4D14-AD08-D047673E78CB";
name = Regular;
paths = (
{
closed = 1;
nodes = (
"534 495 LINE",
"550 1 LINE",
"184 -12 LINE",
"201 508 LINE",
"5 517 LINE",
"5 700 LINE",
"250 703 OFFCURVE",
"497 707 OFFCURVE",
"744 712 CURVE",
"744 488 LINE"
);
}
);
width = 749;
}
);
unicode = 0054;
},
{
glyphname = T_A;
lastChange = "2015-10-17 22:46:10 +0000";
layers = (
{
layerId = "7A0FC40B-77F8-4D14-AD08-D047673E78CB";
name = Regular;
paths = (
{
closed = 1;
nodes = (
"534 505 LINE",
"555 1 LINE",
"184 -12 LINE",
"201 508 LINE",
"5 517 LINE",
"5 700 LINE",
"66 701 OFFCURVE",
"163 702 OFFCURVE",
"276 703 CURVE SMOOTH",
"332 703 OFFCURVE",
"392 703 OFFCURVE",
"456 704 CURVE SMOOTH",
"583 704 OFFCURVE",
"714 706 OFFCURVE",
"842 707 CURVE SMOOTH",
"905 708 OFFCURVE",
"965 708 OFFCURVE",
"1022 709 CURVE SMOOTH",
"1135 709 OFFCURVE",
"1232 711 OFFCURVE",
"1293 712 CURVE",
"1300 528 LINE"
);
},
{
closed = 1;
nodes = (
"605 12 LINE",
"645 95 OFFCURVE",
"679 171 OFFCURVE",
"708 247 CURVE SMOOTH",
"736 323 OFFCURVE",
"761 400 OFFCURVE",
"784 484 CURVE",
"864 484 OFFCURVE",
"956 486 OFFCURVE",
"1047 489 CURVE SMOOTH",
"1138 492 OFFCURVE",
"1228 497 OFFCURVE",
"1301 502 CURVE",
"1317 415 OFFCURVE",
"1335 334 OFFCURVE",
"1359 254 CURVE SMOOTH",
"1383 174 OFFCURVE",
"1410 93 OFFCURVE",
"1445 6 CURVE",
"1316 3 OFFCURVE",
"1191 -3 OFFCURVE",
"1056 -12 CURVE",
"1034 100 LINE",
"897 100 LINE",
"867 -7 LINE"
);
},
{
closed = 1;
nodes = (
"968 292 LINE",
"942 225 LINE",
"1006 232 LINE",
"982 295 LINE"
);
}
);
width = 1450;
}
);
},
{
glyphname = T_E;
lastChange = "2015-10-17 22:46:10 +0000";
layers = (
{
layerId = "7A0FC40B-77F8-4D14-AD08-D047673E78CB";
name = Regular;
paths = (
{
closed = 1;
nodes = (
"534 548 LINE",
"555 1 LINE",
"184 -12 LINE",
"201 508 LINE",
"5 517 LINE",
"5 700 LINE",
"66 701 OFFCURVE",
"163 702 OFFCURVE",
"276 703 CURVE SMOOTH",
"332 703 OFFCURVE",
"392 703 OFFCURVE",
"456 704 CURVE SMOOTH",
"583 704 OFFCURVE",
"714 706 OFFCURVE",
"842 707 CURVE SMOOTH",
"905 708 OFFCURVE",
"965 708 OFFCURVE",
"1022 709 CURVE SMOOTH",
"1135 709 OFFCURVE",
"1232 711 OFFCURVE",
"1293 712 CURVE",
"1300 571 LINE"
);
},
{
closed = 1;
nodes = (
"1323 160 LINE",
"1309 1 LINE",
"1085 1 OFFCURVE",
"865 -4 OFFCURVE",
"640 -12 CURVE",
"651 156 OFFCURVE",
"651 336 OFFCURVE",
"651 512 CURVE",
"1310 535 LINE",
"1298 359 LINE",
"1248 362 OFFCURVE",
"1198 363 OFFCURVE",
"1147 363 CURVE SMOOTH",
"1096 363 OFFCURVE",
"1045 363 OFFCURVE",
"992 364 CURVE",
"992 313 LINE",
"1255 313 LINE",
"1238 196 LINE",
"981 186 LINE",
"991 149 LINE"
);
}
);
width = 1338;
}
);
},
{
glyphname = T_I;
lastChange = "2015-10-17 22:46:10 +0000";
layers = (
{
layerId = "7A0FC40B-77F8-4D14-AD08-D047673E78CB";
name = Regular;
paths = (
{
closed = 1;
nodes = (
"534 505 LINE",
"555 1 LINE",
"184 -12 LINE",
"201 508 LINE",
"5 517 LINE",
"5 700 LINE",
"46 701 OFFCURVE",
"93 701 OFFCURVE",
"148 702 CURVE SMOOTH",
"203 702 OFFCURVE",
"261 702 OFFCURVE",
"322 703 CURVE SMOOTH",
"383 704 OFFCURVE",
"446 704 OFFCURVE",
"511 705 CURVE SMOOTH",
"640 706 OFFCURVE",
"764 708 OFFCURVE",
"873 710 CURVE SMOOTH",
"928 711 OFFCURVE",
"976 711 OFFCURVE",
"1017 712 CURVE",
"1024 528 LINE"
);
},
{
closed = 1;
nodes = (
"1016 1 LINE",
"650 -12 LINE",
"673 470 LINE",
"1005 482 LINE"
);
}
);
width = 1034;
}
);
},
{
glyphname = K;
lastChange = "2015-10-17 22:46:10 +0000";
layers = (
{
layerId = "7A0FC40B-77F8-4D14-AD08-D047673E78CB";
name = Regular;
paths = (
{
closed = 1;
nodes = (
"673 372 LINE",
"789 1 LINE",
"455 -12 LINE",
"355 270 LINE",
"331 277 LINE",
"345 -1 LINE",
"10 -12 LINE",
"25 216 OFFCURVE",
"32 451 OFFCURVE",
"32 700 CURVE",
"390 712 LINE",
"369 467 LINE",
"384 472 LINE",
"476 712 LINE",
"788 700 LINE"
);
}
);
width = 789;
}
);
unicode = 004B;
},
{
glyphname = J;
lastChange = "2015-10-17 22:46:10 +0000";
layers = (
{
layerId = "7A0FC40B-77F8-4D14-AD08-D047673E78CB";
name = Regular;
paths = (
{
closed = 1;
nodes = (
"611 584 OFFCURVE",
"613 483 OFFCURVE",
"613 402 CURVE SMOOTH",
"613 334 OFFCURVE",
"610 277 OFFCURVE",
"602 221 CURVE SMOOTH",
"594 164 OFFCURVE",
"581 108 OFFCURVE",
"561 47 CURVE",
"490 8 OFFCURVE",
"384 -12 OFFCURVE",
"243 -12 CURVE SMOOTH",
"210 -12 OFFCURVE",
"170 -10 OFFCURVE",
"128 -6 CURVE SMOOTH",
"86 -3 OFFCURVE",
"42 1 OFFCURVE",
"5 6 CURVE",
"19 168 LINE",
"47 163 OFFCURVE",
"104 157 OFFCURVE",
"148 157 CURVE SMOOTH",
"183 157 OFFCURVE",
"211 163 OFFCURVE",
"232 174 CURVE",
"243 185 OFFCURVE",
"250 201 OFFCURVE",
"251 224 CURVE SMOOTH",
"274 700 LINE",
"606 712 LINE"
);
}
);
width = 634;
}
);
unicode = 004A;
},
{
glyphname = Q;
lastChange = "2015-10-17 22:46:10 +0000";
layers = (
{
layerId = "7A0FC40B-77F8-4D14-AD08-D047673E78CB";
name = Regular;
paths = (
{
closed = 1;
nodes = (
"78 69 OFFCURVE",
"52 111 OFFCURVE",
"36 161 CURVE SMOOTH",
"19 211 OFFCURVE",
"10 270 OFFCURVE",
"10 346 CURVE SMOOTH",
"10 415 OFFCURVE",
"18 473 OFFCURVE",
"32 522 CURVE SMOOTH",
"46 570 OFFCURVE",
"67 611 OFFCURVE",
"95 648 CURVE",
"175 691 OFFCURVE",
"293 712 OFFCURVE",
"449 712 CURVE SMOOTH",
"598 712 OFFCURVE",
"711 691 OFFCURVE",
"786 644 CURVE",
"831 576 OFFCURVE",
"856 492 OFFCURVE",
"856 404 CURVE SMOOTH",
"856 353 OFFCURVE",
"853 312 OFFCURVE",
"846 276 CURVE SMOOTH",
"838 239 OFFCURVE",
"828 206 OFFCURVE",
"815 173 CURVE",
"806 164 OFFCURVE",
"786 155 OFFCURVE",
"755 145 CURVE SMOOTH",
"724 134 OFFCURVE",
"685 125 OFFCURVE",
"639 117 CURVE",
"827 117 LINE",
"804 60 OFFCURVE",
"781 20 OFFCURVE",
"756 -20 CURVE",
"660 -20 OFFCURVE",
"547 -14 OFFCURVE",
"433 -4 CURVE SMOOTH",
"319 6 OFFCURVE",
"204 17 OFFCURVE",
"111 32 CURVE"
);
},
{
closed = 1;
nodes = (
"378 471 OFFCURVE",
"373 411 OFFCURVE",
"373 339 CURVE SMOOTH",
"373 235 OFFCURVE",
"376 171 OFFCURVE",
"384 131 CURVE",
"389 125 OFFCURVE",
"396 121 OFFCURVE",
"404 119 CURVE",
"435 119 LINE",
"448 121 OFFCURVE",
"460 127 OFFCURVE",
"469 136 CURVE",
"486 208 OFFCURVE",
"492 278 OFFCURVE",
"492 351 CURVE SMOOTH",
"492 438 OFFCURVE",
"486 491 OFFCURVE",
"477 524 CURVE",
"468 533 OFFCURVE",
"456 538 OFFCURVE",
"440 538 CURVE SMOOTH",
"420 538 OFFCURVE",
"404 534 OFFCURVE",
"393 527 CURVE"
);
}
);
width = 866;
}
);
unicode = 0051;
},
{
glyphname = W;
lastChange = "2015-10-17 22:46:10 +0000";
layers = (
{
layerId = "7A0FC40B-77F8-4D14-AD08-D047673E78CB";
name = Regular;
paths = (
{
closed = 1;
nodes = (
"881 531 OFFCURVE",
"905 359 OFFCURVE",
"934 186 CURVE",
"958 357 OFFCURVE",
"982 531 OFFCURVE",
"1003 710 CURVE",
"1265 698 LINE",
"1210 467 OFFCURVE",
"1177 238 OFFCURVE",
"1146 2 CURVE",
"1077 2 OFFCURVE",
"997 1 OFFCURVE",
"918 -1 CURVE SMOOTH",
"839 -3 OFFCURVE",
"762 -8 OFFCURVE",
"699 -12 CURVE",
"690 60 OFFCURVE",
"680 132 OFFCURVE",
"668 205 CURVE",
"652 137 OFFCURVE",
"635 71 OFFCURVE",
"626 2 CURVE",
"431 2 OFFCURVE",
"264 -5 OFFCURVE",
"139 -12 CURVE",
"110 224 OFFCURVE",
"69 464 OFFCURVE",
"5 700 CURVE",
"134 702 OFFCURVE",
"266 706 OFFCURVE",
"399 712 CURVE",
"411 531 OFFCURVE",
"435 359 OFFCURVE",
"464 186 CURVE",
"487 303 OFFCURVE",
"506 408 OFFCURVE",
"519 521 CURVE",
"512 551 OFFCURVE",
"505 581 OFFCURVE",
"498 611 CURVE SMOOTH",
"491 640 OFFCURVE",
"483 670 OFFCURVE",
"475 700 CURVE",
"604 702 OFFCURVE",
"736 706 OFFCURVE",
"869 712 CURVE"
);
}
);
width = 1270;
}
);
unicode = 0057;
},
{
glyphname = X;
lastChange = "2015-10-17 22:46:10 +0000";
layers = (
{
layerId = "7A0FC40B-77F8-4D14-AD08-D047673E78CB";
name = Regular;
paths = (
{
closed = 1;
nodes = (
"439 648 OFFCURVE",
"453 587 OFFCURVE",
"472 526 CURVE",
"492 587 OFFCURVE",
"509 646 OFFCURVE",
"520 710 CURVE",
"772 698 LINE",
"708 577 OFFCURVE",
"661 459 OFFCURVE",
"622 338 CURVE",
"665 227 OFFCURVE",
"714 115 OFFCURVE",
"769 1 CURVE",
"641 1 OFFCURVE",
"523 -3 OFFCURVE",
"386 -12 CURVE",
"370 60 OFFCURVE",
"353 132 OFFCURVE",
"330 207 CURVE",
"298 135 OFFCURVE",
"272 61 OFFCURVE",
"253 -10 CURVE",
"169 -3 OFFCURVE",
"85 0 OFFCURVE",
"5 0 CURVE",
"37 65 OFFCURVE",
"65 127 OFFCURVE",
"90 189 CURVE SMOOTH",
"114 251 OFFCURVE",
"136 312 OFFCURVE",
"159 383 CURVE",
"122 490 OFFCURVE",
"75 596 OFFCURVE",
"22 700 CURVE",
"154 703 OFFCURVE",
"289 705 OFFCURVE",
"426 712 CURVE"
);
}
);
width = 777;
}
);
unicode = 0058;
},
{
glyphname = Y;
lastChange = "2015-10-17 22:46:10 +0000";
layers = (
{
layerId = "7A0FC40B-77F8-4D14-AD08-D047673E78CB";
name = Regular;
paths = (
{
closed = 1;
nodes = (
"421 636 OFFCURVE",
"438 563 OFFCURVE",
"461 491 CURVE",
"494 563 OFFCURVE",
"523 634 OFFCURVE",
"540 710 CURVE",
"792 698 LINE",
"695 547 OFFCURVE",
"624 403 OFFCURVE",
"569 250 CURVE",
"578 1 LINE",
"210 -12 LINE",
"223 239 LINE",
"166 355 OFFCURVE",
"126 441 OFFCURVE",
"92 513 CURVE SMOOTH",
"58 585 OFFCURVE",
"30 643 OFFCURVE",
"2 700 CURVE",
"134 703 OFFCURVE",
"269 705 OFFCURVE",
"406 712 CURVE"
);
}
);
width = 794;
}
);
unicode = 0059;
},
{
glyphname = Z;
lastChange = "2015-10-17 22:46:10 +0000";
layers = (
{
layerId = "7A0FC40B-77F8-4D14-AD08-D047673E78CB";
name = Regular;
paths = (
{
closed = 1;
nodes = (
"256 700 OFFCURVE",
"442 705 OFFCURVE",
"618 712 CURVE",
"627 551 LINE",
"544 426 OFFCURVE",
"473 307 OFFCURVE",
"421 182 CURVE",
"637 192 LINE",
"617 -12 LINE",
"421 -3 OFFCURVE",
"230 0 OFFCURVE",
"15 0 CURVE",
"15 163 LINE",
"55 218 OFFCURVE",
"98 277 OFFCURVE",
"136 337 CURVE SMOOTH",
"174 396 OFFCURVE",
"206 456 OFFCURVE",
"226 512 CURVE",
"21 527 LINE",
"41 700 LINE"
);
}
);
width = 652;
}
);
unicode = 005A;
},
{
glyphname = o;
lastChange = "2015-10-17 22:46:10 +0000";
layers = (
{
layerId = "7A0FC40B-77F8-4D14-AD08-D047673E78CB";
name = Regular;
paths = (
{
closed = 1;
nodes = (
"270 -12 OFFCURVE",
"168 2 OFFCURVE",
"96 33 CURVE",
"69 64 OFFCURVE",
"50 97 OFFCURVE",
"36 140 CURVE SMOOTH",
"22 183 OFFCURVE",
"15 233 OFFCURVE",
"15 296 CURVE SMOOTH",
"15 401 OFFCURVE",
"37 469 OFFCURVE",
"80 528 CURVE",
"153 571 OFFCURVE",
"263 592 OFFCURVE",
"409 592 CURVE SMOOTH",
"556 592 OFFCURVE",
"668 571 OFFCURVE",
"741 524 CURVE",
"757 493 OFFCURVE",
"770 463 OFFCURVE",
"778 428 CURVE SMOOTH",
"786 393 OFFCURVE",
"791 353 OFFCURVE",
"791 304 CURVE SMOOTH",
"791 249 OFFCURVE",
"786 208 OFFCURVE",
"778 170 CURVE SMOOTH",
"769 132 OFFCURVE",
"756 98 OFFCURVE",
"740 63 CURVE",
"667 13 OFFCURVE",
"553 -12 OFFCURVE",
"398 -12 CURVE SMOOTH"
);
},
{
closed = 1;
nodes = (
"351 363 OFFCURVE",
"346 323 OFFCURVE",
"346 279 CURVE SMOOTH",
"346 218 OFFCURVE",
"346 178 OFFCURVE",
"357 155 CURVE",
"365 146 OFFCURVE",
"379 142 OFFCURVE",
"399 142 CURVE SMOOTH",
"430 142 OFFCURVE",
"449 167 OFFCURVE",
"455 212 CURVE SMOOTH",
"458 234 OFFCURVE",
"459 260 OFFCURVE",
"459 291 CURVE SMOOTH",
"459 349 OFFCURVE",
"454 389 OFFCURVE",
"444 411 CURVE",
"435 419 OFFCURVE",
"425 419 OFFCURVE",
"410 419 CURVE SMOOTH",
"389 419 OFFCURVE",
"378 415 OFFCURVE",
"366 404 CURVE"
);
}
);
width = 806;
}
);
unicode = 006F;
},
{
glyphname = a;
lastChange = "2015-10-17 22:46:10 +0000";
layers = (
{
layerId = "7A0FC40B-77F8-4D14-AD08-D047673E78CB";
name = Regular;
paths = (
{
closed = 1;
nodes = (
"95 365 OFFCURVE",
"124 375 OFFCURVE",
"156 380 CURVE SMOOTH",
"188 385 OFFCURVE",
"222 387 OFFCURVE",
"262 387 CURVE SMOOTH",
"322 387 OFFCURVE",
"382 378 OFFCURVE",
"427 359 CURVE",
"427 384 OFFCURVE",
"419 405 OFFCURVE",
"402 421 CURVE",
"367 428 OFFCURVE",
"324 432 OFFCURVE",
"292 432 CURVE SMOOTH",
"249 432 OFFCURVE",
"213 427 OFFCURVE",
"186 420 CURVE",
"170 417 OFFCURVE",
"156 413 OFFCURVE",
"143 409 CURVE",
"135 469 OFFCURVE",
"115 514 OFFCURVE",
"91 559 CURVE",
"132 572 OFFCURVE",
"179 582 OFFCURVE",
"240 590 CURVE SMOOTH",
"270 594 OFFCURVE",
"304 596 OFFCURVE",
"342 596 CURVE SMOOTH",
"405 596 OFFCURVE",
"468 593 OFFCURVE",
"529 584 CURVE SMOOTH",
"590 575 OFFCURVE",
"648 558 OFFCURVE",
"699 531 CURVE",
"727 503 OFFCURVE",
"743 457 OFFCURVE",
"754 401 CURVE SMOOTH",
"765 345 OFFCURVE",
"768 281 OFFCURVE",
"768 220 CURVE SMOOTH",
"768 173 OFFCURVE",
"766 130 OFFCURVE",
"763 92 CURVE SMOOTH",
"762 73 OFFCURVE",
"760 56 OFFCURVE",
"759 41 CURVE",
"757 26 OFFCURVE",
"756 13 OFFCURVE",
"755 3 CURVE",
"638 2 OFFCURVE",
"524 -4 OFFCURVE",
"415 -13 CURVE",
"415 -5 LINE SMOOTH",
"415 -2 OFFCURVE",
"415 1 OFFCURVE",
"415 5 CURVE SMOOTH",
"415 8 OFFCURVE",
"415 12 OFFCURVE",
"416 17 CURVE",
"385 2 OFFCURVE",
"325 -17 OFFCURVE",
"230 -17 CURVE SMOOTH",
"166 -17 OFFCURVE",
"119 -8 OFFCURVE",
"64 11 CURVE",
"45 36 OFFCURVE",
"33 67 OFFCURVE",
"26 99 CURVE SMOOTH",
"18 131 OFFCURVE",
"15 163 OFFCURVE",
"15 194 CURVE SMOOTH",
"15 265 OFFCURVE",
"36 310 OFFCURVE",
"63 350 CURVE"
);
},
{
closed = 1;
nodes = (
"429 252 OFFCURVE",
"415 254 OFFCURVE",
"395 254 CURVE SMOOTH",
"383 254 OFFCURVE",
"365 252 OFFCURVE",
"352 248 CURVE",
"345 235 OFFCURVE",
"342 217 OFFCURVE",
"342 194 CURVE SMOOTH",
"342 178 OFFCURVE",
"343 164 OFFCURVE",
"350 155 CURVE",
"361 150 OFFCURVE",
"375 148 OFFCURVE",
"387 148 CURVE SMOOTH",
"397 148 OFFCURVE",
"405 149 OFFCURVE",
"412 150 CURVE SMOOTH",
"418 151 OFFCURVE",
"425 153 OFFCURVE",
"433 154 CURVE",
"444 186 OFFCURVE",
"446 216 OFFCURVE",
"449 247 CURVE"
);
}
);
width = 790;
}
);
unicode = 0061;
},
{
glyphname = b;
lastChange = "2015-10-17 22:46:10 +0000";
layers = (
{
layerId = "7A0FC40B-77F8-4D14-AD08-D047673E78CB";
name = Regular;
paths = (
{
closed = 1;
nodes = (
"333 45 LINE",
"331 0 LINE",
"227 -1 OFFCURVE",
"132 -3 OFFCURVE",
"36 -12 CURVE",
"36 228 OFFCURVE",
"36 462 OFFCURVE",
"15 699 CURVE",
"376 712 LINE",
"370 592 LINE",
"405 596 OFFCURVE",
"436 597 OFFCURVE",
"464 597 CURVE SMOOTH",
"568 597 OFFCURVE",
"639 580 OFFCURVE",
"711 551 CURVE",
"739 512 OFFCURVE",
"755 475 OFFCURVE",
"766 433 CURVE SMOOTH",
"777 391 OFFCURVE",
"780 345 OFFCURVE",
"780 290 CURVE SMOOTH",
"780 199 OFFCURVE",
"763 109 OFFCURVE",
"731 45 CURVE",
"626 -6 OFFCURVE",
"503 -13 OFFCURVE",
"374 -13 CURVE"
);
},
{
closed = 1;
nodes = (
"338 334 OFFCURVE",
"339 259 OFFCURVE",
"354 174 CURVE",
"375 174 OFFCURVE",
"391 177 OFFCURVE",
"414 190 CURVE",
"426 222 OFFCURVE",
"439 274 OFFCURVE",
"439 334 CURVE SMOOTH",
"439 362 OFFCURVE",
"433 387 OFFCURVE",
"424 406 CURVE",
"395 417 OFFCURVE",
"365 422 OFFCURVE",
"338 422 CURVE"
);
}
);
width = 805;
}
);
unicode = 0062;
},
{
glyphname = c;
lastChange = "2015-10-17 22:46:10 +0000";
layers = (
{
layerId = "7A0FC40B-77F8-4D14-AD08-D047673E78CB";
name = Regular;
paths = (
{
closed = 1;
nodes = (
"172 582 OFFCURVE",
"266 596 OFFCURVE",
"375 596 CURVE SMOOTH",
"450 596 OFFCURVE",
"511 587 OFFCURVE",
"586 570 CURVE",
"567 513 OFFCURVE",
"559 448 OFFCURVE",
"559 401 CURVE",
"536 404 OFFCURVE",
"502 406 OFFCURVE",
"478 406 CURVE SMOOTH",
"442 406 OFFCURVE",
"413 403 OFFCURVE",
"370 390 CURVE",
"359 363 OFFCURVE",
"356 321 OFFCURVE",
"356 286 CURVE SMOOTH",
"356 243 OFFCURVE",
"366 209 OFFCURVE",
"381 177 CURVE",
"412 166 OFFCURVE",
"439 162 OFFCURVE",
"466 162 CURVE SMOOTH",
"502 162 OFFCURVE",
"536 165 OFFCURVE",
"561 172 CURVE",
"564 125 OFFCURVE",
"569 64 OFFCURVE",
"588 15 CURVE",
"516 -2 OFFCURVE",
"448 -13 OFFCURVE",
"361 -13 CURVE SMOOTH",
"256 -13 OFFCURVE",
"152 -6 OFFCURVE",
"64 45 CURVE",
"32 109 OFFCURVE",
"15 199 OFFCURVE",
"15 290 CURVE SMOOTH",
"15 381 OFFCURVE",
"29 460 OFFCURVE",
"84 547 CURVE"
);
}
);
width = 593;
}
);
unicode = 0063;
},
{
glyphname = d;
lastChange = "2015-10-17 22:46:10 +0000";
layers = (
{
layerId = "7A0FC40B-77F8-4D14-AD08-D047673E78CB";
name = Regular;
paths = (
{
closed = 1;
nodes = (
"347 -13 OFFCURVE",
"282 -9 OFFCURVE",
"223 -1 CURVE SMOOTH",
"164 7 OFFCURVE",
"112 18 OFFCURVE",
"76 33 CURVE",
"33 97 OFFCURVE",
"5 185 OFFCURVE",
"5 286 CURVE SMOOTH",
"5 386 OFFCURVE",
"27 466 OFFCURVE",
"70 533 CURVE",
"143 576 OFFCURVE",
"253 597 OFFCURVE",
"399 597 CURVE SMOOTH",
"418 597 LINE",
"409 699 LINE",
"770 712 LINE",
"725 0 LINE",
"673 0 OFFCURVE",
"632 -2 OFFCURVE",
"590 -3 CURVE SMOOTH",
"548 -4 OFFCURVE",
"508 -8 OFFCURVE",
"460 -12 CURVE",
"454 44 LINE",
"448 36 OFFCURVE",
"442 29 OFFCURVE",
"437 22 CURVE SMOOTH",
"432 15 OFFCURVE",
"427 8 OFFCURVE",
"423 3 CURVE SMOOTH",
"418 -3 OFFCURVE",
"414 -8 OFFCURVE",
"411 -13 CURVE"
);
},
{
closed = 1;
nodes = (
"420 432 OFFCURVE",
"390 427 OFFCURVE",
"361 416 CURVE",
"352 393 OFFCURVE",
"346 366 OFFCURVE",
"346 334 CURVE SMOOTH",
"346 274 OFFCURVE",
"359 222 OFFCURVE",
"371 190 CURVE",
"394 177 OFFCURVE",
"410 174 OFFCURVE",
"431 174 CURVE",
"446 262 OFFCURVE",
"447 343 OFFCURVE",
"447 432 CURVE"
);
}
);
width = 780;
}
);
unicode = 0064;
},
{
glyphname = e;
lastChange = "2015-10-17 22:46:10 +0000";
layers = (
{
layerId = "7A0FC40B-77F8-4D14-AD08-D047673E78CB";
name = Regular;
paths = (
{
closed = 1;
nodes = (
"416 222 OFFCURVE",
"386 222 OFFCURVE",
"357 226 CURVE",
"361 207 OFFCURVE",
"366 192 OFFCURVE",
"371 177 CURVE",
"426 166 OFFCURVE",
"471 162 OFFCURVE",
"516 162 CURVE SMOOTH",
"588 162 OFFCURVE",
"649 168 OFFCURVE",
"701 177 CURVE",
"704 130 OFFCURVE",
"711 69 OFFCURVE",
"728 20 CURVE",
"640 0 OFFCURVE",
"558 -13 OFFCURVE",
"451 -13 CURVE SMOOTH",
"306 -13 OFFCURVE",
"171 -6 OFFCURVE",
"54 45 CURVE",
"22 109 OFFCURVE",
"5 199 OFFCURVE",
"5 290 CURVE SMOOTH",
"5 381 OFFCURVE",
"19 460 OFFCURVE",
"74 547 CURVE",
"174 582 OFFCURVE",
"280 596 OFFCURVE",
"405 596 CURVE SMOOTH",
"466 596 OFFCURVE",
"518 592 OFFCURVE",
"571 585 CURVE SMOOTH",
"623 577 OFFCURVE",
"675 566 OFFCURVE",
"736 550 CURVE",
"751 511 OFFCURVE",
"755 467 OFFCURVE",
"755 420 CURVE SMOOTH",
"755 353 OFFCURVE",
"745 282 OFFCURVE",
"726 235 CURVE",
"645 224 OFFCURVE",
"546 222 OFFCURVE",
"449 222 CURVE SMOOTH"
);
},
{
closed = 1;
nodes = (
"413 426 OFFCURVE",
"383 423 OFFCURVE",
"340 410 CURVE",
"335 391 OFFCURVE",
"331 372 OFFCURVE",
"329 352 CURVE",
"369 352 OFFCURVE",
"411 353 OFFCURVE",
"459 357 CURVE",
"458 367 OFFCURVE",
"457 378 OFFCURVE",
"456 389 CURVE SMOOTH",
"455 400 OFFCURVE",
"452 413 OFFCURVE",
"449 426 CURVE"
);
}
);
width = 770;
}
);
unicode = 0065;
},
{
glyphname = f;
lastChange = "2015-10-17 22:46:10 +0000";
layers = (
{
layerId = "7A0FC40B-77F8-4D14-AD08-D047673E78CB";
name = Regular;
paths = (
{
closed = 1;
nodes = (
"104 460 LINE",
"113 540 OFFCURVE",
"127 606 OFFCURVE",
"150 647 CURVE",
"241 691 OFFCURVE",
"355 712 OFFCURVE",
"467 712 CURVE SMOOTH",
"539 712 OFFCURVE",
"598 700 OFFCURVE",
"641 688 CURVE SMOOTH",
"666 681 OFFCURVE",
"688 673 OFFCURVE",
"708 665 CURVE",
"693 618 OFFCURVE",
"681 575 OFFCURVE",
"676 515 CURVE",
"657 518 OFFCURVE",
"636 521 OFFCURVE",
"610 522 CURVE",
"597 523 OFFCURVE",
"582 523 OFFCURVE",
"567 523 CURVE SMOOTH",
"528 523 OFFCURVE",
"478 520 OFFCURVE",
"437 507 CURVE",
"430 496 OFFCURVE",
"425 485 OFFCURVE",
"421 473 CURVE",
"657 482 LINE",
"657 268 LINE",
"431 278 LINE",
"432 238 OFFCURVE",
"432 194 OFFCURVE",
"433 147 CURVE SMOOTH",
"433 99 OFFCURVE",
"437 51 OFFCURVE",
"444 3 CURVE",
"327 2 OFFCURVE",
"213 -4 OFFCURVE",
"104 -13 CURVE",
"101 3 OFFCURVE",
"97 32 OFFCURVE",
"93 68 CURVE SMOOTH",
"89 103 OFFCURVE",
"86 143 OFFCURVE",
"86 182 CURVE SMOOTH",
"86 203 OFFCURVE",
"86 225 OFFCURVE",
"86 246 CURVE SMOOTH",
"86 267 OFFCURVE",
"87 288 OFFCURVE",
"88 309 CURVE",
"33 311 LINE",
"24 457 LINE"
);
}
);
width = 683;
}
);
unicode = 0066;
},
{
glyphname = g;
lastChange = "2015-10-17 22:46:10 +0000";
layers = (
{
layerId = "7A0FC40B-77F8-4D14-AD08-D047673E78CB";
name = Regular;
paths = (
{
closed = 1;
nodes = (
"753 550 OFFCURVE",
"752 510 OFFCURVE",
"752 474 CURVE SMOOTH",
"752 415 OFFCURVE",
"754 366 OFFCURVE",
"755 319 CURVE SMOOTH",
"756 296 OFFCURVE",
"756 273 OFFCURVE",
"757 252 CURVE SMOOTH",
"758 230 OFFCURVE",
"758 208 OFFCURVE",
"758 185 CURVE SMOOTH",
"758 125 OFFCURVE",
"755 64 OFFCURVE",
"744 10 CURVE SMOOTH",
"733 -44 OFFCURVE",
"717 -89 OFFCURVE",
"689 -116 CURVE",
"589 -167 OFFCURVE",
"465 -191 OFFCURVE",
"342 -191 CURVE SMOOTH",
"254 -191 OFFCURVE",
"183 -178 OFFCURVE",
"132 -163 CURVE SMOOTH",
"102 -155 OFFCURVE",
"75 -145 OFFCURVE",
"51 -134 CURVE",
"75 -89 OFFCURVE",
"95 -44 OFFCURVE",
"103 16 CURVE",
"135 7 OFFCURVE",
"172 0 OFFCURVE",
"217 -4 CURVE SMOOTH",
"240 -6 OFFCURVE",
"265 -7 OFFCURVE",
"292 -7 CURVE SMOOTH",
"321 -7 OFFCURVE",
"360 -7 OFFCURVE",
"392 4 CURVE",
"409 29 OFFCURVE",
"417 56 OFFCURVE",
"417 87 CURVE",
"374 68 OFFCURVE",
"318 59 OFFCURVE",
"262 59 CURVE SMOOTH",
"181 59 OFFCURVE",
"126 65 OFFCURVE",
"63 96 CURVE",
"36 152 OFFCURVE",
"15 212 OFFCURVE",
"15 303 CURVE SMOOTH",
"15 346 OFFCURVE",
"18 393 OFFCURVE",
"26 439 CURVE SMOOTH",
"33 485 OFFCURVE",
"45 529 OFFCURVE",
"64 566 CURVE",
"119 585 OFFCURVE",
"166 594 OFFCURVE",
"230 594 CURVE SMOOTH",
"325 594 OFFCURVE",
"385 569 OFFCURVE",
"416 550 CURVE",
"415 555 OFFCURVE",
"415 559 OFFCURVE",
"415 563 CURVE SMOOTH",
"415 566 OFFCURVE",
"415 569 OFFCURVE",
"415 572 CURVE SMOOTH",
"415 580 LINE",
"524 587 OFFCURVE",
"638 594 OFFCURVE",
"755 594 CURVE"
);
},
{
closed = 1;
nodes = (
"441 265 OFFCURVE",
"442 294 OFFCURVE",
"442 325 CURVE SMOOTH",
"442 348 OFFCURVE",
"440 370 OFFCURVE",
"435 391 CURVE",
"396 399 OFFCURVE",
"364 401 OFFCURVE",
"331 401 CURVE",
"324 379 OFFCURVE",
"321 357 OFFCURVE",
"321 335 CURVE SMOOTH",
"321 303 OFFCURVE",
"333 275 OFFCURVE",
"350 243 CURVE",
"361 231 OFFCURVE",
"375 231 OFFCURVE",
"387 231 CURVE SMOOTH",
"397 231 OFFCURVE",
"406 232 OFFCURVE",
"414 234 CURVE",
"422 235 OFFCURVE",
"430 237 OFFCURVE",
"438 238 CURVE"
);
}
);
width = 790;
}
);
unicode = 0067;
},
{
glyphname = h;
lastChange = "2015-10-17 22:46:10 +0000";
layers = (
{
layerId = "7A0FC40B-77F8-4D14-AD08-D047673E78CB";
name = Regular;
paths = (
{
closed = 1;
nodes = (
"346 0 LINE",
"239 -1 OFFCURVE",
"135 -3 OFFCURVE",
"36 -12 CURVE",
"36 228 OFFCURVE",
"36 462 OFFCURVE",
"15 699 CURVE",
"376 712 LINE",
"370 562 LINE",
"429 590 OFFCURVE",
"477 597 OFFCURVE",
"524 597 CURVE SMOOTH",
"604 597 OFFCURVE",
"656 580 OFFCURVE",
"711 551 CURVE",
"742 474 OFFCURVE",
"750 399 OFFCURVE",
"750 290 CURVE SMOOTH",
"750 245 OFFCURVE",
"751 188 OFFCURVE",
"753 133 CURVE SMOOTH",
"755 78 OFFCURVE",
"757 28 OFFCURVE",
"760 -4 CURVE",
"712 -3 OFFCURVE",
"663 -2 OFFCURVE",
"615 -2 CURVE SMOOTH",
"551 -2 OFFCURVE",
"486 -5 OFFCURVE",
"418 -12 CURVE",
"433 92 OFFCURVE",
"437 179 OFFCURVE",
"437 254 CURVE SMOOTH",
"437 310 OFFCURVE",
"428 358 OFFCURVE",
"416 399 CURVE",
"388 399 OFFCURVE",
"365 393 OFFCURVE",
"338 378 CURVE"
);
}
);
width = 780;
}
);
unicode = 0068;
},
{
glyphname = i;
lastChange = "2015-10-17 22:46:10 +0000";
layers = (
{
layerId = "7A0FC40B-77F8-4D14-AD08-D047673E78CB";
name = Regular;
paths = (
{
closed = 1;
nodes = (
"331 509 LINE",
"275 515 OFFCURVE",
"222 518 OFFCURVE",
"172 518 CURVE SMOOTH",
"121 518 OFFCURVE",
"74 516 OFFCURVE",
"27 513 CURVE",
"28 520 OFFCURVE",
"28 527 OFFCURVE",
"28 534 CURVE SMOOTH",
"28 540 OFFCURVE",
"28 546 OFFCURVE",
"28 552 CURVE SMOOTH",
"28 604 OFFCURVE",
"23 647 OFFCURVE",
"15 699 CURVE",
"376 712 LINE"
);
},
{
closed = 1;
nodes = (
"356 0 LINE",
"249 -1 OFFCURVE",
"135 -3 OFFCURVE",
"36 -12 CURVE",
"36 149 OFFCURVE",
"36 309 OFFCURVE",
"29 470 CURVE",
"42 469 OFFCURVE",
"54 469 OFFCURVE",
"67 469 CURVE SMOOTH",
"80 469 OFFCURVE",
"93 469 OFFCURVE",
"106 469 CURVE SMOOTH",
"189 469 OFFCURVE",
"270 473 OFFCURVE",
"346 480 CURVE"
);
}
);
width = 401;
}
);
unicode = 0069;
},
{
glyphname = l;
lastChange = "2015-10-17 22:46:10 +0000";
layers = (
{
layerId = "7A0FC40B-77F8-4D14-AD08-D047673E78CB";
name = Regular;
paths = (
{
closed = 1;
nodes = (
"355 569 OFFCURVE",
"349 432 OFFCURVE",
"349 291 CURVE SMOOTH",
"349 194 OFFCURVE",
"352 97 OFFCURVE",
"356 0 CURVE",
"249 -1 OFFCURVE",
"135 -3 OFFCURVE",
"36 -12 CURVE",
"36 14 OFFCURVE",
"36 46 OFFCURVE",
"36 85 CURVE SMOOTH",
"36 123 OFFCURVE",
"36 164 OFFCURVE",
"36 208 CURVE SMOOTH",
"36 296 OFFCURVE",
"35 393 OFFCURVE",
"34 481 CURVE SMOOTH",
"33 569 OFFCURVE",
"32 648 OFFCURVE",
"29 700 CURVE",
"42 699 OFFCURVE",
"54 699 OFFCURVE",
"67 699 CURVE SMOOTH",
"80 699 OFFCURVE",
"93 699 OFFCURVE",
"106 699 CURVE SMOOTH",
"189 699 OFFCURVE",
"290 699 OFFCURVE",
"366 710 CURVE"
);
}
);
width = 391;
}
);
unicode = 006C;
},
{
glyphname = j;
lastChange = "2015-10-17 22:46:10 +0000";
layers = (
{
layerId = "7A0FC40B-77F8-4D14-AD08-D047673E78CB";
name = Regular;
paths = (
{
closed = 1;
nodes = (
"15 700 LINE",
"376 712 LINE",
"368 660 OFFCURVE",
"363 604 OFFCURVE",
"363 552 CURVE SMOOTH",
"363 546 OFFCURVE",
"363 540 OFFCURVE",
"363 534 CURVE SMOOTH",
"363 527 OFFCURVE",
"363 520 OFFCURVE",
"364 513 CURVE",
"317 516 OFFCURVE",
"270 518 OFFCURVE",
"219 518 CURVE SMOOTH",
"168 518 OFFCURVE",
"99 511 OFFCURVE",
"39 500 CURVE"
);
},
{
closed = 1;
nodes = (
"42 469 OFFCURVE",
"54 469 OFFCURVE",
"67 469 CURVE SMOOTH",
"80 469 OFFCURVE",
"93 469 OFFCURVE",
"106 469 CURVE SMOOTH",
"189 469 OFFCURVE",
"270 473 OFFCURVE",
"346 480 CURVE",
"346 421 OFFCURVE",
"349 370 OFFCURVE",
"352 322 CURVE SMOOTH",
"353 298 OFFCURVE",
"355 275 OFFCURVE",
"356 253 CURVE SMOOTH",
"357 230 OFFCURVE",
"358 208 OFFCURVE",
"358 185 CURVE SMOOTH",
"358 125 OFFCURVE",
"355 64 OFFCURVE",
"344 10 CURVE SMOOTH",
"333 -44 OFFCURVE",
"317 -89 OFFCURVE",
"289 -116 CURVE",
"189 -167 OFFCURVE",
"65 -191 OFFCURVE",
"-58 -191 CURVE",
"-61 -134 OFFCURVE",
"-77 -72 OFFCURVE",
"-108 -17 CURVE",
"-79 -17 OFFCURVE",
"-40 -17 OFFCURVE",
"-8 -6 CURVE",
"24 90 OFFCURVE",
"35 196 OFFCURVE",
"35 309 CURVE SMOOTH",
"35 360 OFFCURVE",
"33 414 OFFCURVE",
"29 470 CURVE"
);
}
);
width = 401;
}
);
unicode = 006A;
},
{
glyphname = k;
lastChange = "2015-10-17 22:46:10 +0000";
layers = (
{
layerId = "7A0FC40B-77F8-4D14-AD08-D047673E78CB";
name = Regular;
paths = (
{
closed = 1;
nodes = (
"388 269 OFFCURVE",
"365 263 OFFCURVE",
"338 248 CURVE",
"347 0 LINE",
"240 0 OFFCURVE",
"135 -3 OFFCURVE",
"36 -12 CURVE",
"36 228 OFFCURVE",
"36 462 OFFCURVE",
"15 699 CURVE",
"376 712 LINE",
"366 452 LINE",
"425 483 OFFCURVE",
"461 528 OFFCURVE",
"482 595 CURVE",
"579 587 OFFCURVE",
"676 582 OFFCURVE",
"776 582 CURVE",
"765 535 OFFCURVE",
"740 487 OFFCURVE",
"717 450 CURVE SMOOTH",
"704 428 OFFCURVE",
"689 407 OFFCURVE",
"673 388 CURVE",
"711 374 LINE",
"759 275 OFFCURVE",
"778 165 OFFCURVE",
"781 32 CURVE",
"480 -2 LINE",
"471 86 OFFCURVE",
"447 185 OFFCURVE",
"416 269 CURVE"
);
}
);
width = 780;
}
);
unicode = 006B;
},
{
glyphname = n;
lastChange = "2015-10-17 22:46:10 +0000";
layers = (
{
layerId = "7A0FC40B-77F8-4D14-AD08-D047673E78CB";
name = Regular;
paths = (
{
closed = 1;
nodes = (
"336 0 LINE",
"229 -1 OFFCURVE",
"125 -3 OFFCURVE",
"26 -12 CURVE",
"26 39 OFFCURVE",
"26 89 OFFCURVE",
"26 138 CURVE SMOOTH",
"26 236 OFFCURVE",
"25 332 OFFCURVE",
"22 429 CURVE SMOOTH",
"20 477 OFFCURVE",
"18 526 OFFCURVE",
"15 577 CURVE",
"376 590 LINE",
"370 530 LINE",
"441 578 OFFCURVE",
"498 590 OFFCURVE",
"554 590 CURVE SMOOTH",
"630 590 OFFCURVE",
"680 569 OFFCURVE",
"731 534 CURVE",
"770 449 OFFCURVE",
"781 368 OFFCURVE",
"781 288 CURVE SMOOTH",
"781 240 OFFCURVE",
"778 192 OFFCURVE",
"773 145 CURVE SMOOTH",
"767 97 OFFCURVE",
"763 47 OFFCURVE",
"760 -4 CURVE",
"712 -3 OFFCURVE",
"663 -2 OFFCURVE",
"615 -2 CURVE SMOOTH",
"551 -2 OFFCURVE",
"486 -5 OFFCURVE",
"418 -12 CURVE",
"433 52 OFFCURVE",
"437 110 OFFCURVE",
"437 154 CURVE SMOOTH",
"437 230 OFFCURVE",
"428 293 OFFCURVE",
"416 349 CURVE",
"389 349 OFFCURVE",
"363 337 OFFCURVE",
"338 313 CURVE"
);
}
);
width = 801;
}
);
unicode = 006E;
},
{
glyphname = m;
lastChange = "2015-10-17 22:46:10 +0000";
layers = (
{
layerId = "7A0FC40B-77F8-4D14-AD08-D047673E78CB";
name = Regular;
paths = (
{
closed = 1;
nodes = (
"743 228 OFFCURVE",
"746 114 OFFCURVE",
"753 2 CURVE",
"705 3 OFFCURVE",
"643 4 OFFCURVE",
"595 4 CURVE SMOOTH",
"531 4 OFFCURVE",
"466 1 OFFCURVE",
"398 -6 CURVE",
"413 58 OFFCURVE",
"417 110 OFFCURVE",
"417 154 CURVE SMOOTH",
"417 226 OFFCURVE",
"408 286 OFFCURVE",
"396 339 CURVE",
"374 339 OFFCURVE",
"353 330 OFFCURVE",
"333 313 CURVE",
"346 0 LINE",
"239 -1 OFFCURVE",
"135 -3 OFFCURVE",
"36 -12 CURVE",
"36 193 OFFCURVE",
"36 391 OFFCURVE",
"15 594 CURVE",
"376 582 LINE",
"370 537 LINE",
"433 577 OFFCURVE",
"485 587 OFFCURVE",
"534 587 CURVE SMOOTH",
"598 587 OFFCURVE",
"638 578 OFFCURVE",
"665 569 CURVE SMOOTH",
"680 564 OFFCURVE",
"692 558 OFFCURVE",
"701 551 CURVE",
"732 567 OFFCURVE",
"765 580 OFFCURVE",
"809 590 CURVE SMOOTH",
"831 595 OFFCURVE",
"855 597 OFFCURVE",
"881 597 CURVE SMOOTH",
"973 597 OFFCURVE",
"1035 580 OFFCURVE",
"1098 551 CURVE",
"1121 480 OFFCURVE",
"1129 380 OFFCURVE",
"1133 277 CURVE SMOOTH",
"1134 226 OFFCURVE",
"1135 175 OFFCURVE",
"1135 126 CURVE SMOOTH",
"1135 77 OFFCURVE",
"1136 33 OFFCURVE",
"1137 -4 CURVE",
"1089 -3 OFFCURVE",
"1040 -2 OFFCURVE",
"992 -2 CURVE SMOOTH",
"928 -2 OFFCURVE",
"863 -5 OFFCURVE",
"795 -12 CURVE",
"810 52 OFFCURVE",
"814 110 OFFCURVE",
"814 154 CURVE SMOOTH",
"814 242 OFFCURVE",
"810 314 OFFCURVE",
"803 379 CURVE",
"781 379 OFFCURVE",
"760 370 OFFCURVE",
"740 353 CURVE"
);
}
);
width = 1157;
}
);
unicode = 006D;
},
{
glyphname = p;
lastChange = "2015-10-17 22:46:10 +0000";
layers = (
{
layerId = "7A0FC40B-77F8-4D14-AD08-D047673E78CB";
name = Regular;
paths = (
{
closed = 1;
nodes = (
"745 521 OFFCURVE",
"759 482 OFFCURVE",
"768 438 CURVE SMOOTH",
"777 394 OFFCURVE",
"780 346 OFFCURVE",
"780 290 CURVE SMOOTH",
"780 199 OFFCURVE",
"763 109 OFFCURVE",
"731 45 CURVE",
"626 -6 OFFCURVE",
"503 -13 OFFCURVE",
"374 -13 CURVE",
"333 15 LINE",
"346 -180 LINE",
"239 -181 OFFCURVE",
"135 -183 OFFCURVE",
"36 -192 CURVE",
"36 -158 OFFCURVE",
"36 -120 OFFCURVE",
"36 -77 CURVE SMOOTH",
"36 7 OFFCURVE",
"36 100 OFFCURVE",
"34 197 CURVE SMOOTH",
"32 293 OFFCURVE",
"28 387 OFFCURVE",
"24 471 CURVE SMOOTH",
"21 512 OFFCURVE",
"18 550 OFFCURVE",
"15 584 CURVE",
"376 597 LINE",
"370 537 LINE",
"441 585 OFFCURVE",
"498 597 OFFCURVE",
"554 597 CURVE SMOOTH",
"626 597 OFFCURVE",
"673 584 OFFCURVE",
"721 561 CURVE"
);
},
{
closed = 1;
nodes = (
"338 319 OFFCURVE",
"341 257 OFFCURVE",
"364 184 CURVE",
"381 184 OFFCURVE",
"395 187 OFFCURVE",
"414 200 CURVE",
"426 224 OFFCURVE",
"439 261 OFFCURVE",
"439 304 CURVE SMOOTH",
"439 332 OFFCURVE",
"433 357 OFFCURVE",
"424 376 CURVE",
"395 387 OFFCURVE",
"365 392 OFFCURVE",
"338 392 CURVE"
);
}
);
width = 805;
}
);
unicode = 0070;
},
{
glyphname = q;
lastChange = "2015-10-17 22:46:10 +0000";
layers = (
{
layerId = "7A0FC40B-77F8-4D14-AD08-D047673E78CB";
name = Regular;
paths = (
{
closed = 1;
nodes = (
"374 -2 OFFCURVE",
"318 -11 OFFCURVE",
"262 -11 CURVE SMOOTH",
"181 -11 OFFCURVE",
"126 -5 OFFCURVE",
"63 26 CURVE",
"36 102 OFFCURVE",
"15 184 OFFCURVE",
"15 303 CURVE SMOOTH",
"15 346 OFFCURVE",
"18 393 OFFCURVE",
"26 439 CURVE SMOOTH",
"33 485 OFFCURVE",
"45 529 OFFCURVE",
"64 566 CURVE",
"119 585 OFFCURVE",
"166 594 OFFCURVE",
"230 594 CURVE SMOOTH",
"325 594 OFFCURVE",
"385 569 OFFCURVE",
"416 550 CURVE",
"415 555 OFFCURVE",
"415 559 OFFCURVE",
"415 563 CURVE SMOOTH",
"415 566 OFFCURVE",
"415 569 OFFCURVE",
"415 572 CURVE SMOOTH",
"415 580 LINE",
"531 587 OFFCURVE",
"651 594 OFFCURVE",
"775 594 CURVE",
"775 457 OFFCURVE",
"770 329 OFFCURVE",
"764 204 CURVE SMOOTH",
"761 141 OFFCURVE",
"757 78 OFFCURVE",
"754 15 CURVE SMOOTH",
"751 -48 OFFCURVE",
"748 -113 OFFCURVE",
"746 -180 CURVE",
"639 -181 OFFCURVE",
"535 -183 OFFCURVE",
"436 -192 CURVE",
"435 -124 OFFCURVE",
"428 -56 OFFCURVE",
"417 17 CURVE"
);
},
{
closed = 1;
nodes = (
"446 237 OFFCURVE",
"447 278 OFFCURVE",
"447 325 CURVE SMOOTH",
"447 336 OFFCURVE",
"446 347 OFFCURVE",
"445 358 CURVE",
"443 369 OFFCURVE",
"441 380 OFFCURVE",
"440 391 CURVE",
"412 399 OFFCURVE",
"386 401 OFFCURVE",
"361 401 CURVE",
"354 379 OFFCURVE",
"351 357 OFFCURVE",
"351 335 CURVE SMOOTH",
"351 291 OFFCURVE",
"363 247 OFFCURVE",
"380 203 CURVE",
"391 191 OFFCURVE",
"405 191 OFFCURVE",
"417 191 CURVE SMOOTH",
"422 191 OFFCURVE",
"427 192 OFFCURVE",
"431 194 CURVE",
"435 195 OFFCURVE",
"439 197 OFFCURVE",
"443 198 CURVE"
);
}
);
width = 790;
}
);
unicode = 0071;
},
{
glyphname = r;
lastChange = "2015-10-17 22:46:10 +0000";
layers = (
{
layerId = "7A0FC40B-77F8-4D14-AD08-D047673E78CB";
name = Regular;
paths = (
{
closed = 1;
nodes = (
"587 333 OFFCURVE",
"546 338 OFFCURVE",
"505 338 CURVE SMOOTH",
"446 338 OFFCURVE",
"389 330 OFFCURVE",
"338 313 CURVE",
"349 0 LINE",
"242 -1 OFFCURVE",
"135 -3 OFFCURVE",
"36 -12 CURVE",
"36 89 OFFCURVE",
"36 189 OFFCURVE",
"33 287 CURVE SMOOTH",
"30 385 OFFCURVE",
"26 483 OFFCURVE",
"15 584 CURVE",
"376 597 LINE",
"370 537 LINE",
"421 585 OFFCURVE",
"464 597 OFFCURVE",
"504 597 CURVE SMOOTH",
"556 597 OFFCURVE",
"588 592 OFFCURVE",
"621 581 CURVE",
"618 549 OFFCURVE",
"616 517 OFFCURVE",
"616 482 CURVE SMOOTH",
"616 430 OFFCURVE",
"619 377 OFFCURVE",
"630 322 CURVE"
);
}
);
width = 635;
}
);
unicode = 0072;
},
{
glyphname = s;
lastChange = "2015-10-17 22:46:10 +0000";
layers = (
{
layerId = "7A0FC40B-77F8-4D14-AD08-D047673E78CB";
name = Regular;
paths = (
{
closed = 1;
nodes = (
"23 445 OFFCURVE",
"27 501 OFFCURVE",
"64 557 CURVE",
"159 592 OFFCURVE",
"258 606 OFFCURVE",
"375 606 CURVE SMOOTH",
"450 606 OFFCURVE",
"511 597 OFFCURVE",
"586 580 CURVE",
"577 552 OFFCURVE",
"570 518 OFFCURVE",
"566 486 CURVE SMOOTH",
"561 454 OFFCURVE",
"559 424 OFFCURVE",
"559 401 CURVE",
"536 404 OFFCURVE",
"502 406 OFFCURVE",
"478 406 CURVE SMOOTH",
"439 406 OFFCURVE",
"407 405 OFFCURVE",
"360 400 CURVE",
"360 385 OFFCURVE",
"362 379 OFFCURVE",
"365 372 CURVE",
"429 369 OFFCURVE",
"486 362 OFFCURVE",
"549 347 CURVE",
"584 296 OFFCURVE",
"588 243 OFFCURVE",
"588 200 CURVE SMOOTH",
"588 153 OFFCURVE",
"578 89 OFFCURVE",
"539 45 CURVE",
"451 -6 OFFCURVE",
"347 -13 OFFCURVE",
"242 -13 CURVE SMOOTH",
"155 -13 OFFCURVE",
"87 -2 OFFCURVE",
"15 15 CURVE",
"34 64 OFFCURVE",
"39 125 OFFCURVE",
"42 172 CURVE",
"67 165 OFFCURVE",
"101 162 OFFCURVE",
"137 162 CURVE SMOOTH",
"166 162 OFFCURVE",
"198 164 OFFCURVE",
"232 168 CURVE",
"232 183 OFFCURVE",
"228 197 OFFCURVE",
"220 208 CURVE",
"207 210 OFFCURVE",
"195 212 OFFCURVE",
"184 214 CURVE",
"161 217 OFFCURVE",
"138 221 OFFCURVE",
"110 229 CURVE",
"96 232 OFFCURVE",
"80 237 OFFCURVE",
"62 243 CURVE",
"31 284 OFFCURVE",
"23 340 OFFCURVE",
"23 400 CURVE SMOOTH"
);
}
);
width = 593;
}
);
unicode = 0073;
},
{
glyphname = t;
lastChange = "2015-10-17 22:46:10 +0000";
layers = (
{
layerId = "7A0FC40B-77F8-4D14-AD08-D047673E78CB";
name = Regular;
paths = (
{
closed = 1;
nodes = (
"24 312 LINE",
"33 490 LINE",
"93 492 LINE",
"93 519 OFFCURVE",
"97 560 OFFCURVE",
"114 600 CURVE",
"223 617 OFFCURVE",
"337 634 OFFCURVE",
"454 634 CURVE",
"441 595 OFFCURVE",
"441 554 OFFCURVE",
"441 523 CURVE",
"567 530 LINE",
"567 317 LINE",
"421 326 LINE",
"425 279 OFFCURVE",
"430 225 OFFCURVE",
"437 182 CURVE",
"460 165 OFFCURVE",
"487 161 OFFCURVE",
"507 161 CURVE SMOOTH",
"523 161 OFFCURVE",
"537 164 OFFCURVE",
"548 167 CURVE SMOOTH",
"555 169 OFFCURVE",
"561 171 OFFCURVE",
"566 174 CURVE",
"566 118 OFFCURVE",
"562 77 OFFCURVE",
"558 34 CURVE",
"535 17 OFFCURVE",
"512 3 OFFCURVE",
"480 -6 CURVE SMOOTH",
"464 -11 OFFCURVE",
"446 -13 OFFCURVE",
"427 -13 CURVE SMOOTH",
"327 -13 OFFCURVE",
"221 8 OFFCURVE",
"140 52 CURVE",
"121 108 OFFCURVE",
"111 201 OFFCURVE",
"104 309 CURVE"
);
}
);
width = 587;
}
);
unicode = 0074;
},
{
glyphname = u;
lastChange = "2015-10-17 22:46:10 +0000";
layers = (
{
layerId = "7A0FC40B-77F8-4D14-AD08-D047673E78CB";
name = Regular;
paths = (
{
closed = 1;
nodes = (
"424 590 LINE",
"537 591 OFFCURVE",
"645 593 OFFCURVE",
"749 602 CURVE",
"749 395 OFFCURVE",
"749 205 OFFCURVE",
"760 1 CURVE",
"399 -12 LINE",
"405 48 LINE",
"334 0 OFFCURVE",
"277 -12 OFFCURVE",
"221 -12 CURVE SMOOTH",
"153 -12 OFFCURVE",
"109 5 OFFCURVE",
"64 34 CURVE",
"33 111 OFFCURVE",
"25 186 OFFCURVE",
"25 295 CURVE SMOOTH",
"25 318 OFFCURVE",
"25 343 OFFCURVE",
"25 370 CURVE SMOOTH",
"25 425 OFFCURVE",
"26 481 OFFCURVE",
"29 529 CURVE SMOOTH",
"30 553 OFFCURVE",
"32 573 OFFCURVE",
"35 589 CURVE",
"78 588 OFFCURVE",
"122 587 OFFCURVE",
"165 587 CURVE SMOOTH",
"229 587 OFFCURVE",
"294 589 OFFCURVE",
"362 597 CURVE",
"355 536 OFFCURVE",
"353 479 OFFCURVE",
"353 436 CURVE SMOOTH",
"353 364 OFFCURVE",
"357 304 OFFCURVE",
"364 251 CURVE",
"390 251 OFFCURVE",
"414 261 OFFCURVE",
"437 282 CURVE"
);
}
);
width = 780;
}
);
unicode = 0075;
},
{
glyphname = v;
lastChange = "2015-10-17 22:46:10 +0000";
layers = (
{
layerId = "7A0FC40B-77F8-4D14-AD08-D047673E78CB";
name = Regular;
paths = (
{
closed = 1;
nodes = (
"189 -12 LINE",
"169 93 OFFCURVE",
"138 190 OFFCURVE",
"106 287 CURVE SMOOTH",
"89 335 OFFCURVE",
"72 384 OFFCURVE",
"55 434 CURVE SMOOTH",
"38 483 OFFCURVE",
"21 535 OFFCURVE",
"5 589 CURVE",
"48 588 OFFCURVE",
"92 587 OFFCURVE",
"135 587 CURVE SMOOTH",
"199 587 OFFCURVE",
"264 589 OFFCURVE",
"332 597 CURVE",
"336 485 OFFCURVE",
"347 375 OFFCURVE",
"384 271 CURVE",
"405 371 OFFCURVE",
"414 482 OFFCURVE",
"414 590 CURVE",
"533 591 OFFCURVE",
"648 593 OFFCURVE",
"759 602 CURVE",
"659 395 OFFCURVE",
"593 205 OFFCURVE",
"550 1 CURVE"
);
}
);
width = 764;
}
);
unicode = 0076;
},
{
glyphname = w;
lastChange = "2015-10-17 22:46:10 +0000";
layers = (
{
layerId = "7A0FC40B-77F8-4D14-AD08-D047673E78CB";
name = Regular;
paths = (
{
closed = 1;
nodes = (
"599 -12 LINE",
"587 85 OFFCURVE",
"571 191 OFFCURVE",
"552 284 CURVE",
"532 193 OFFCURVE",
"515 93 OFFCURVE",
"500 1 CURVE",
"169 -12 LINE",
"150 93 OFFCURVE",
"124 190 OFFCURVE",
"95 287 CURVE SMOOTH",
"80 335 OFFCURVE",
"65 384 OFFCURVE",
"50 434 CURVE SMOOTH",
"34 483 OFFCURVE",
"19 535 OFFCURVE",
"5 589 CURVE",
"48 588 OFFCURVE",
"92 587 OFFCURVE",
"135 587 CURVE SMOOTH",
"195 587 OFFCURVE",
"257 589 OFFCURVE",
"322 597 CURVE",
"325 485 OFFCURVE",
"333 375 OFFCURVE",
"364 271 CURVE",
"392 371 OFFCURVE",
"404 482 OFFCURVE",
"404 590 CURVE",
"450 588 OFFCURVE",
"494 587 OFFCURVE",
"535 587 CURVE SMOOTH",
"595 587 OFFCURVE",
"657 589 OFFCURVE",
"722 597 CURVE",
"725 485 OFFCURVE",
"733 375 OFFCURVE",
"764 271 CURVE",
"792 371 OFFCURVE",
"804 482 OFFCURVE",
"804 590 CURVE",
"920 591 OFFCURVE",
"1031 593 OFFCURVE",
"1139 602 CURVE",
"1039 395 OFFCURVE",
"973 205 OFFCURVE",
"930 1 CURVE"
);
}
);
width = 1144;
}
);
unicode = 0077;
},
{
glyphname = x;
lastChange = "2015-10-17 22:46:10 +0000";
layers = (
{
layerId = "7A0FC40B-77F8-4D14-AD08-D047673E78CB";
name = Regular;
paths = (
{
closed = 1;
nodes = (
"715 510 OFFCURVE",
"680 427 OFFCURVE",
"653 342 CURVE",
"668 284 OFFCURVE",
"685 228 OFFCURVE",
"704 173 CURVE SMOOTH",
"723 118 OFFCURVE",
"742 61 OFFCURVE",
"759 1 CURVE",
"716 2 OFFCURVE",
"672 3 OFFCURVE",
"629 3 CURVE SMOOTH",
"565 3 OFFCURVE",
"500 1 OFFCURVE",
"432 -7 CURVE",
"428 60 OFFCURVE",
"417 124 OFFCURVE",
"380 189 CURVE",
"359 128 OFFCURVE",
"350 69 OFFCURVE",
"350 0 CURVE",
"231 -1 OFFCURVE",
"116 -3 OFFCURVE",
"5 -12 CURVE",
"48 80 OFFCURVE",
"83 161 OFFCURVE",
"111 248 CURVE",
"96 305 OFFCURVE",
"79 362 OFFCURVE",
"60 417 CURVE SMOOTH",
"41 472 OFFCURVE",
"22 529 OFFCURVE",
"5 589 CURVE",
"48 588 OFFCURVE",
"92 587 OFFCURVE",
"135 587 CURVE SMOOTH",
"199 587 OFFCURVE",
"264 589 OFFCURVE",
"332 597 CURVE",
"336 530 OFFCURVE",
"347 466 OFFCURVE",
"384 401 CURVE",
"405 462 OFFCURVE",
"414 521 OFFCURVE",
"414 590 CURVE",
"533 591 OFFCURVE",
"648 593 OFFCURVE",
"759 602 CURVE"
);
}
);
width = 764;
}
);
unicode = 0078;
},
{
glyphname = y;
lastChange = "2015-10-17 22:46:10 +0000";
layers = (
{
layerId = "7A0FC40B-77F8-4D14-AD08-D047673E78CB";
name = Regular;
paths = (
{
closed = 1;
nodes = (
"712 479 OFFCURVE",
"675 362 OFFCURVE",
"646 243 CURVE SMOOTH",
"617 124 OFFCURVE",
"595 7 OFFCURVE",
"579 -116 CURVE",
"434 -167 OFFCURVE",
"265 -191 OFFCURVE",
"82 -191 CURVE",
"79 -127 OFFCURVE",
"71 -57 OFFCURVE",
"52 3 CURVE",
"72 3 OFFCURVE",
"94 3 OFFCURVE",
"117 3 CURVE SMOOTH",
"163 3 OFFCURVE",
"209 4 OFFCURVE",
"256 8 CURVE",
"279 9 OFFCURVE",
"301 11 OFFCURVE",
"322 14 CURVE",
"295 21 OFFCURVE",
"265 29 OFFCURVE",
"233 36 CURVE SMOOTH",
"200 43 OFFCURVE",
"170 50 OFFCURVE",
"142 57 CURVE",
"123 146 OFFCURVE",
"102 231 OFFCURVE",
"79 317 CURVE SMOOTH",
"67 360 OFFCURVE",
"55 403 OFFCURVE",
"42 448 CURVE SMOOTH",
"29 493 OFFCURVE",
"17 540 OFFCURVE",
"5 589 CURVE",
"48 588 OFFCURVE",
"92 587 OFFCURVE",
"135 587 CURVE SMOOTH",
"199 587 OFFCURVE",
"264 589 OFFCURVE",
"332 597 CURVE",
"336 485 OFFCURVE",
"347 375 OFFCURVE",
"384 271 CURVE",
"405 371 OFFCURVE",
"414 482 OFFCURVE",
"414 590 CURVE",
"533 591 OFFCURVE",
"648 593 OFFCURVE",
"759 602 CURVE"
);
}
);
width = 764;
}
);
unicode = 0079;
},
{
glyphname = z;
lastChange = "2015-10-17 22:46:10 +0000";
layers = (
{
layerId = "7A0FC40B-77F8-4D14-AD08-D047673E78CB";
name = Regular;
paths = (
{
closed = 1;
nodes = (
"240 585 OFFCURVE",
"414 589 OFFCURVE",
"578 600 CURVE",
"587 436 LINE",
"512 348 OFFCURVE",
"448 270 OFFCURVE",
"401 182 CURVE",
"597 192 LINE",
"577 -12 LINE",
"393 -3 OFFCURVE",
"214 0 OFFCURVE",
"15 0 CURVE",
"15 163 LINE",
"48 198 OFFCURVE",
"86 237 OFFCURVE",
"119 277 CURVE SMOOTH",
"151 317 OFFCURVE",
"179 358 OFFCURVE",
"196 397 CURVE",
"21 412 LINE",
"41 585 LINE"
);
}
);
width = 617;
}
);
unicode = 007A;
},
{
glyphname = acute;
lastChange = "2015-10-17 22:46:10 +0000";
layers = (
{
layerId = "7A0FC40B-77F8-4D14-AD08-D047673E78CB";
name = Regular;
paths = (
{
closed = 1;
nodes = (
"43 689 OFFCURVE",
"123 698 OFFCURVE",
"200 710 CURVE SMOOTH",
"277 721 OFFCURVE",
"354 735 OFFCURVE",
"418 751 CURVE",
"422 686 OFFCURVE",
"433 638 OFFCURVE",
"446 583 CURVE",
"305 578 OFFCURVE",
"154 570 OFFCURVE",
"9 547 CURVE",
"6 592 OFFCURVE",
"-7 635 OFFCURVE",
"-26 682 CURVE"
);
}
);
width = 457;
}
);
unicode = 00B4;
},
{
glyphname = a_peq;
lastChange = "2015-10-17 22:46:10 +0000";
layers = (
{
layerId = "7A0FC40B-77F8-4D14-AD08-D047673E78CB";
name = Regular;
paths = (
{
closed = 1;
nodes = (
"110 331 OFFCURVE",
"170 337 OFFCURVE",
"257 337 CURVE SMOOTH",
"316 337 OFFCURVE",
"373 332 OFFCURVE",
"417 324 CURVE",
"417 339 OFFCURVE",
"412 351 OFFCURVE",
"402 361 CURVE",
"367 368 OFFCURVE",
"324 372 OFFCURVE",
"292 372 CURVE SMOOTH",
"244 372 OFFCURVE",
"202 368 OFFCURVE",
"171 365 CURVE SMOOTH",
"154 363 OFFCURVE",
"138 361 OFFCURVE",
"123 359 CURVE",
"116 419 OFFCURVE",
"95 464 OFFCURVE",
"71 509 CURVE",
"115 518 OFFCURVE",
"166 526 OFFCURVE",
"232 532 CURVE SMOOTH",
"265 535 OFFCURVE",
"301 536 OFFCURVE",
"342 536 CURVE SMOOTH",
"467 536 OFFCURVE",
"596 526 OFFCURVE",
"699 481 CURVE",
"727 457 OFFCURVE",
"743 414 OFFCURVE",
"754 364 CURVE SMOOTH",
"765 314 OFFCURVE",
"768 256 OFFCURVE",
"768 200 CURVE SMOOTH",
"768 116 OFFCURVE",
"759 38 OFFCURVE",
"755 3 CURVE",
"638 2 OFFCURVE",
"524 -4 OFFCURVE",
"415 -13 CURVE",
"415 -5 LINE SMOOTH",
"415 -2 OFFCURVE",
"415 1 OFFCURVE",
"415 5 CURVE SMOOTH",
"415 8 OFFCURVE",
"415 12 OFFCURVE",
"416 17 CURVE",
"385 2 OFFCURVE",
"325 -17 OFFCURVE",
"230 -17 CURVE SMOOTH",
"166 -17 OFFCURVE",
"119 -8 OFFCURVE",
"64 11 CURVE",
"25 59 OFFCURVE",
"15 125 OFFCURVE",
"15 184 CURVE SMOOTH",
"15 243 OFFCURVE",
"27 277 OFFCURVE",
"43 310 CURVE"
);
},
{
closed = 1;
nodes = (
"429 212 OFFCURVE",
"415 214 OFFCURVE",
"395 214 CURVE SMOOTH",
"382 214 OFFCURVE",
"362 212 OFFCURVE",
"347 208 CURVE",
"343 201 OFFCURVE",
"341 192 OFFCURVE",
"341 183 CURVE SMOOTH",
"341 171 OFFCURVE",
"342 162 OFFCURVE",
"345 155 CURVE",
"356 150 OFFCURVE",
"372 148 OFFCURVE",
"387 148 CURVE SMOOTH",
"407 148 OFFCURVE",
"421 150 OFFCURVE",
"437 154 CURVE",
"445 173 OFFCURVE",
"446 188 OFFCURVE",
"449 207 CURVE"
);
}
);
width = 790;
}
);
},
{
glyphname = aacute;
lastChange = "2015-10-17 22:46:10 +0000";
layers = (
{
layerId = "7A0FC40B-77F8-4D14-AD08-D047673E78CB";
name = Regular;
paths = (
{
closed = 1;
nodes = (
"110 331 OFFCURVE",
"170 337 OFFCURVE",
"257 337 CURVE SMOOTH",
"316 337 OFFCURVE",
"373 332 OFFCURVE",
"417 324 CURVE",
"417 339 OFFCURVE",
"412 351 OFFCURVE",
"402 361 CURVE",
"367 368 OFFCURVE",
"324 372 OFFCURVE",
"292 372 CURVE SMOOTH",
"244 372 OFFCURVE",
"202 368 OFFCURVE",
"171 365 CURVE SMOOTH",
"154 363 OFFCURVE",
"138 361 OFFCURVE",
"123 359 CURVE",
"116 419 OFFCURVE",
"95 464 OFFCURVE",
"71 509 CURVE",
"115 518 OFFCURVE",
"166 526 OFFCURVE",
"232 532 CURVE SMOOTH",
"265 535 OFFCURVE",
"301 536 OFFCURVE",
"342 536 CURVE SMOOTH",
"467 536 OFFCURVE",
"596 526 OFFCURVE",
"699 481 CURVE",
"727 457 OFFCURVE",
"743 414 OFFCURVE",
"754 364 CURVE SMOOTH",
"765 314 OFFCURVE",
"768 256 OFFCURVE",
"768 200 CURVE SMOOTH",
"768 116 OFFCURVE",
"759 38 OFFCURVE",
"755 3 CURVE",
"638 2 OFFCURVE",
"524 -4 OFFCURVE",
"415 -13 CURVE",
"415 -5 LINE SMOOTH",
"415 -2 OFFCURVE",
"415 1 OFFCURVE",
"415 5 CURVE SMOOTH",
"415 8 OFFCURVE",
"415 12 OFFCURVE",
"416 17 CURVE",
"385 2 OFFCURVE",
"325 -17 OFFCURVE",
"230 -17 CURVE SMOOTH",
"166 -17 OFFCURVE",
"119 -8 OFFCURVE",
"64 11 CURVE",
"25 59 OFFCURVE",
"15 125 OFFCURVE",
"15 184 CURVE SMOOTH",
"15 243 OFFCURVE",
"27 277 OFFCURVE",
"43 310 CURVE"
);
},
{
closed = 1;
nodes = (
"429 212 OFFCURVE",
"415 214 OFFCURVE",
"395 214 CURVE SMOOTH",
"382 214 OFFCURVE",
"362 212 OFFCURVE",
"347 208 CURVE",
"343 201 OFFCURVE",
"341 192 OFFCURVE",
"341 183 CURVE SMOOTH",
"341 171 OFFCURVE",
"342 162 OFFCURVE",
"345 155 CURVE",
"356 150 OFFCURVE",
"372 148 OFFCURVE",
"387 148 CURVE SMOOTH",
"407 148 OFFCURVE",
"421 150 OFFCURVE",
"437 154 CURVE",
"445 173 OFFCURVE",
"446 188 OFFCURVE",
"449 207 CURVE"
);
},
{
closed = 1;
nodes = (
"249 689 OFFCURVE",
"329 698 OFFCURVE",
"406 710 CURVE SMOOTH",
"483 721 OFFCURVE",
"560 735 OFFCURVE",
"624 751 CURVE",
"628 686 OFFCURVE",
"639 638 OFFCURVE",
"652 583 CURVE",
"511 578 OFFCURVE",
"360 570 OFFCURVE",
"215 547 CURVE",
"212 592 OFFCURVE",
"199 635 OFFCURVE",
"180 682 CURVE"
);
}
);
width = 790;
}
);
unicode = 00E1;
},
{
glyphname = e_peq;
lastChange = "2015-10-17 22:46:10 +0000";
layers = (
{
layerId = "7A0FC40B-77F8-4D14-AD08-D047673E78CB";
name = Regular;
paths = (
{
closed = 1;
nodes = (
"416 212 OFFCURVE",
"386 212 OFFCURVE",
"357 216 CURVE",
"361 201 OFFCURVE",
"366 189 OFFCURVE",
"371 177 CURVE",
"426 166 OFFCURVE",
"471 162 OFFCURVE",
"516 162 CURVE SMOOTH",
"588 162 OFFCURVE",
"649 168 OFFCURVE",
"701 177 CURVE",
"704 130 OFFCURVE",
"711 69 OFFCURVE",
"728 20 CURVE",
"640 0 OFFCURVE",
"558 -13 OFFCURVE",
"451 -13 CURVE SMOOTH",
"306 -13 OFFCURVE",
"171 -6 OFFCURVE",
"54 45 CURVE",
"22 105 OFFCURVE",
"5 193 OFFCURVE",
"5 280 CURVE SMOOTH",
"5 357 OFFCURVE",
"17 426 OFFCURVE",
"64 502 CURVE",
"168 530 OFFCURVE",
"276 541 OFFCURVE",
"405 541 CURVE SMOOTH",
"464 541 OFFCURVE",
"514 538 OFFCURVE",
"566 532 CURVE SMOOTH",
"617 526 OFFCURVE",
"667 517 OFFCURVE",
"726 505 CURVE",
"749 466 OFFCURVE",
"755 423 OFFCURVE",
"755 380 CURVE SMOOTH",
"755 325 OFFCURVE",
"745 264 OFFCURVE",
"726 225 CURVE",
"645 214 OFFCURVE",
"546 212 OFFCURVE",
"449 212 CURVE SMOOTH"
);
},
{
closed = 1;
nodes = (
"413 396 OFFCURVE",
"383 393 OFFCURVE",
"340 380 CURVE",
"335 369 OFFCURVE",
"331 356 OFFCURVE",
"329 342 CURVE",
"369 342 OFFCURVE",
"411 343 OFFCURVE",
"459 347 CURVE",
"458 354 OFFCURVE",
"457 362 OFFCURVE",
"456 370 CURVE SMOOTH",
"455 378 OFFCURVE",
"452 387 OFFCURVE",
"449 396 CURVE"
);
}
);
width = 770;
}
);
},
{
glyphname = eacute;
lastChange = "2015-10-17 22:46:10 +0000";
layers = (
{
layerId = "7A0FC40B-77F8-4D14-AD08-D047673E78CB";
name = Regular;
paths = (
{
closed = 1;
nodes = (
"416 212 OFFCURVE",
"386 212 OFFCURVE",
"357 216 CURVE",
"361 201 OFFCURVE",
"366 189 OFFCURVE",
"371 177 CURVE",
"426 166 OFFCURVE",
"471 162 OFFCURVE",
"516 162 CURVE SMOOTH",
"588 162 OFFCURVE",
"649 168 OFFCURVE",
"701 177 CURVE",
"704 130 OFFCURVE",
"711 69 OFFCURVE",
"728 20 CURVE",
"640 0 OFFCURVE",
"558 -13 OFFCURVE",
"451 -13 CURVE SMOOTH",
"306 -13 OFFCURVE",
"171 -6 OFFCURVE",
"54 45 CURVE",
"22 105 OFFCURVE",
"5 193 OFFCURVE",
"5 280 CURVE SMOOTH",
"5 357 OFFCURVE",
"17 426 OFFCURVE",
"64 502 CURVE",
"168 530 OFFCURVE",
"276 541 OFFCURVE",
"405 541 CURVE SMOOTH",
"464 541 OFFCURVE",
"514 538 OFFCURVE",
"566 532 CURVE SMOOTH",
"617 526 OFFCURVE",
"667 517 OFFCURVE",
"726 505 CURVE",
"749 466 OFFCURVE",
"755 423 OFFCURVE",
"755 380 CURVE SMOOTH",
"755 325 OFFCURVE",
"745 264 OFFCURVE",
"726 225 CURVE",
"645 214 OFFCURVE",
"546 212 OFFCURVE",
"449 212 CURVE SMOOTH"
);
},
{
closed = 1;
nodes = (
"413 396 OFFCURVE",
"383 393 OFFCURVE",
"340 380 CURVE",
"335 369 OFFCURVE",
"331 356 OFFCURVE",
"329 342 CURVE",
"369 342 OFFCURVE",
"411 343 OFFCURVE",
"459 347 CURVE",
"458 354 OFFCURVE",
"457 362 OFFCURVE",
"456 370 CURVE SMOOTH",
"455 378 OFFCURVE",
"452 387 OFFCURVE",
"449 396 CURVE"
);
},
{
closed = 1;
nodes = (
"239 689 OFFCURVE",
"319 698 OFFCURVE",
"396 710 CURVE SMOOTH",
"473 721 OFFCURVE",
"550 735 OFFCURVE",
"614 751 CURVE",
"618 686 OFFCURVE",
"629 638 OFFCURVE",
"642 583 CURVE",
"501 578 OFFCURVE",
"350 570 OFFCURVE",
"205 547 CURVE",
"202 592 OFFCURVE",
"189 635 OFFCURVE",
"170 682 CURVE"
);
}
);
width = 770;
}
);
unicode = 00E9;
},
{
glyphname = dotlessi;
lastChange = "2015-10-17 22:46:10 +0000";
layers = (
{
layerId = "7A0FC40B-77F8-4D14-AD08-D047673E78CB";
name = Regular;
paths = (
{
closed = 1;
nodes = (
"356 0 LINE",
"249 -1 OFFCURVE",
"135 -3 OFFCURVE",
"36 -12 CURVE",
"36 163 OFFCURVE",
"36 337 OFFCURVE",
"29 510 CURVE",
"42 509 OFFCURVE",
"54 509 OFFCURVE",
"67 509 CURVE SMOOTH",
"80 509 OFFCURVE",
"93 509 OFFCURVE",
"106 509 CURVE SMOOTH",
"189 509 OFFCURVE",
"270 509 OFFCURVE",
"346 520 CURVE"
);
}
);
width = 401;
}
);
unicode = 0131;
},
{
glyphname = iacute;
lastChange = "2015-10-17 22:46:10 +0000";
layers = (
{
layerId = "7A0FC40B-77F8-4D14-AD08-D047673E78CB";
name = Regular;
paths = (
{
closed = 1;
nodes = (
"356 0 LINE",
"249 -1 OFFCURVE",
"135 -3 OFFCURVE",
"36 -12 CURVE",
"36 163 OFFCURVE",
"36 337 OFFCURVE",
"29 510 CURVE",
"42 509 OFFCURVE",
"54 509 OFFCURVE",
"67 509 CURVE SMOOTH",
"80 509 OFFCURVE",
"93 509 OFFCURVE",
"106 509 CURVE SMOOTH",
"189 509 OFFCURVE",
"270 509 OFFCURVE",
"346 520 CURVE"
);
},
{
closed = 1;
nodes = (
"55 689 OFFCURVE",
"135 698 OFFCURVE",
"212 710 CURVE SMOOTH",
"289 721 OFFCURVE",
"366 735 OFFCURVE",
"430 751 CURVE",
"434 686 OFFCURVE",
"445 638 OFFCURVE",
"458 583 CURVE",
"317 578 OFFCURVE",
"166 570 OFFCURVE",
"21 547 CURVE",
"18 592 OFFCURVE",
"5 635 OFFCURVE",
"-14 682 CURVE"
);
}
);
width = 401;
}
);
unicode = 00ED;
},
{
glyphname = oacute;
lastChange = "2015-10-17 22:46:10 +0000";
layers = (
{
layerId = "7A0FC40B-77F8-4D14-AD08-D047673E78CB";
name = Regular;
paths = (
{
closed = 1;
nodes = (
"270 -12 OFFCURVE",
"168 2 OFFCURVE",
"96 33 CURVE",
"69 61 OFFCURVE",
"50 93 OFFCURVE",
"36 131 CURVE SMOOTH",
"22 169 OFFCURVE",
"15 214 OFFCURVE",
"15 271 CURVE SMOOTH",
"15 366 OFFCURVE",
"35 428 OFFCURVE",
"70 483 CURVE",
"146 519 OFFCURVE",
"259 537 OFFCURVE",
"409 537 CURVE SMOOTH",
"560 537 OFFCURVE",
"675 517 OFFCURVE",
"751 474 CURVE",
"764 447 OFFCURVE",
"774 420 OFFCURVE",
"781 389 CURVE SMOOTH",
"788 358 OFFCURVE",
"791 323 OFFCURVE",
"791 279 CURVE SMOOTH",
"791 231 OFFCURVE",
"786 193 OFFCURVE",
"778 159 CURVE SMOOTH",
"769 125 OFFCURVE",
"756 95 OFFCURVE",
"740 63 CURVE",
"667 13 OFFCURVE",
"553 -12 OFFCURVE",
"398 -12 CURVE SMOOTH"
);
},
{
closed = 1;
nodes = (
"350 317 OFFCURVE",
"346 287 OFFCURVE",
"346 254 CURVE SMOOTH",
"346 205 OFFCURVE",
"346 174 OFFCURVE",
"357 155 CURVE",
"365 146 OFFCURVE",
"379 142 OFFCURVE",
"399 142 CURVE SMOOTH",
"418 142 OFFCURVE",
"432 146 OFFCURVE",
"441 155 CURVE",
"456 175 OFFCURVE",
"459 215 OFFCURVE",
"459 266 CURVE SMOOTH",
"459 310 OFFCURVE",
"454 340 OFFCURVE",
"444 356 CURVE",
"435 364 OFFCURVE",
"425 364 OFFCURVE",
"410 364 CURVE SMOOTH",
"387 364 OFFCURVE",
"374 360 OFFCURVE",
"361 349 CURVE"
);
},
{
closed = 1;
nodes = (
"271 689 OFFCURVE",
"351 698 OFFCURVE",
"428 710 CURVE SMOOTH",
"505 721 OFFCURVE",
"582 735 OFFCURVE",
"646 751 CURVE",
"650 686 OFFCURVE",
"661 638 OFFCURVE",
"674 583 CURVE",
"533 578 OFFCURVE",
"382 570 OFFCURVE",
"237 547 CURVE",
"234 592 OFFCURVE",
"221 635 OFFCURVE",
"202 682 CURVE"
);
}
);
width = 806;
}
);
unicode = 00F3;
},
{
glyphname = o_peq;
lastChange = "2015-10-17 22:46:10 +0000";
layers = (
{
layerId = "7A0FC40B-77F8-4D14-AD08-D047673E78CB";
name = Regular;
paths = (
{
closed = 1;
nodes = (
"270 -12 OFFCURVE",
"168 2 OFFCURVE",
"96 33 CURVE",
"69 61 OFFCURVE",
"50 93 OFFCURVE",
"36 131 CURVE SMOOTH",
"22 169 OFFCURVE",
"15 214 OFFCURVE",
"15 271 CURVE SMOOTH",
"15 366 OFFCURVE",
"35 428 OFFCURVE",
"70 483 CURVE",
"146 519 OFFCURVE",
"259 537 OFFCURVE",
"409 537 CURVE SMOOTH",
"560 537 OFFCURVE",
"675 517 OFFCURVE",
"751 474 CURVE",
"764 447 OFFCURVE",
"774 420 OFFCURVE",
"781 389 CURVE SMOOTH",
"788 358 OFFCURVE",
"791 323 OFFCURVE",
"791 279 CURVE SMOOTH",
"791 231 OFFCURVE",
"786 193 OFFCURVE",
"778 159 CURVE SMOOTH",
"769 125 OFFCURVE",
"756 95 OFFCURVE",
"740 63 CURVE",
"667 13 OFFCURVE",
"553 -12 OFFCURVE",
"398 -12 CURVE SMOOTH"
);
},
{
closed = 1;
nodes = (
"350 317 OFFCURVE",
"346 287 OFFCURVE",
"346 254 CURVE SMOOTH",
"346 205 OFFCURVE",
"346 174 OFFCURVE",
"357 155 CURVE",
"365 146 OFFCURVE",
"379 142 OFFCURVE",
"399 142 CURVE SMOOTH",
"418 142 OFFCURVE",
"432 146 OFFCURVE",
"441 155 CURVE",
"456 175 OFFCURVE",
"459 215 OFFCURVE",
"459 266 CURVE SMOOTH",
"459 310 OFFCURVE",
"454 340 OFFCURVE",
"444 356 CURVE",
"435 364 OFFCURVE",
"425 364 OFFCURVE",
"410 364 CURVE SMOOTH",
"387 364 OFFCURVE",
"374 360 OFFCURVE",
"361 349 CURVE"
);
}
);
width = 806;
}
);
},
{
glyphname = u_peq;
lastChange = "2015-10-17 22:46:10 +0000";
layers = (
{
layerId = "7A0FC40B-77F8-4D14-AD08-D047673E78CB";
name = Regular;
paths = (
{
closed = 1;
nodes = (
"424 540 LINE",
"537 540 OFFCURVE",
"645 540 OFFCURVE",
"749 552 CURVE",
"749 504 OFFCURVE",
"749 457 OFFCURVE",
"749 412 CURVE SMOOTH",
"749 320 OFFCURVE",
"750 231 OFFCURVE",
"754 140 CURVE SMOOTH",
"755 95 OFFCURVE",
"757 48 OFFCURVE",
"760 1 CURVE",
"399 -12 LINE",
"405 48 LINE",
"334 0 OFFCURVE",
"277 -12 OFFCURVE",
"221 -12 CURVE SMOOTH",
"153 -12 OFFCURVE",
"109 5 OFFCURVE",
"64 34 CURVE",
"33 111 OFFCURVE",
"25 186 OFFCURVE",
"25 295 CURVE SMOOTH",
"25 367 OFFCURVE",
"28 449 OFFCURVE",
"35 529 CURVE",
"78 528 OFFCURVE",
"122 527 OFFCURVE",
"165 527 CURVE SMOOTH",
"230 527 OFFCURVE",
"294 530 OFFCURVE",
"362 537 CURVE",
"355 480 OFFCURVE",
"353 426 OFFCURVE",
"353 386 CURVE SMOOTH",
"353 334 OFFCURVE",
"357 290 OFFCURVE",
"364 251 CURVE",
"390 251 OFFCURVE",
"414 261 OFFCURVE",
"437 282 CURVE"
);
}
);
width = 780;
}
);
},
{
glyphname = uacute;
lastChange = "2015-10-17 22:46:10 +0000";
layers = (
{
layerId = "7A0FC40B-77F8-4D14-AD08-D047673E78CB";
name = Regular;
paths = (
{
closed = 1;
nodes = (
"424 540 LINE",
"537 540 OFFCURVE",
"645 540 OFFCURVE",
"749 552 CURVE",
"749 504 OFFCURVE",
"749 457 OFFCURVE",
"749 412 CURVE SMOOTH",
"749 320 OFFCURVE",
"750 231 OFFCURVE",
"754 140 CURVE SMOOTH",
"755 95 OFFCURVE",
"757 48 OFFCURVE",
"760 1 CURVE",
"399 -12 LINE",
"405 48 LINE",
"334 0 OFFCURVE",
"277 -12 OFFCURVE",
"221 -12 CURVE SMOOTH",
"153 -12 OFFCURVE",
"109 5 OFFCURVE",
"64 34 CURVE",
"33 111 OFFCURVE",
"25 186 OFFCURVE",
"25 295 CURVE SMOOTH",
"25 367 OFFCURVE",
"28 449 OFFCURVE",
"35 529 CURVE",
"78 528 OFFCURVE",
"122 527 OFFCURVE",
"165 527 CURVE SMOOTH",
"230 527 OFFCURVE",
"294 530 OFFCURVE",
"362 537 CURVE",
"355 480 OFFCURVE",
"353 426 OFFCURVE",
"353 386 CURVE SMOOTH",
"353 334 OFFCURVE",
"357 290 OFFCURVE",
"364 251 CURVE",
"390 251 OFFCURVE",
"414 261 OFFCURVE",
"437 282 CURVE"
);
},
{
closed = 1;
nodes = (
"208 689 OFFCURVE",
"288 698 OFFCURVE",
"365 710 CURVE SMOOTH",
"442 721 OFFCURVE",
"519 735 OFFCURVE",
"583 751 CURVE",
"587 686 OFFCURVE",
"598 638 OFFCURVE",
"611 583 CURVE",
"470 578 OFFCURVE",
"319 570 OFFCURVE",
"174 547 CURVE",
"171 592 OFFCURVE",
"158 635 OFFCURVE",
"139 682 CURVE"
);
}
);
width = 780;
}
);
unicode = 00FA;
},
{
glyphname = dotaccent;
lastChange = "2015-10-17 22:46:10 +0000";
layers = (
{
layerId = "7A0FC40B-77F8-4D14-AD08-D047673E78CB";
name = Regular;
paths = (
{
closed = 1;
nodes = (
"311 539 LINE",
"262 545 OFFCURVE",
"215 548 OFFCURVE",
"172 548 CURVE SMOOTH",
"128 548 OFFCURVE",
"87 546 OFFCURVE",
"47 543 CURVE",
"48 550 OFFCURVE",
"48 557 OFFCURVE",
"48 564 CURVE SMOOTH",
"48 570 OFFCURVE",
"48 576 OFFCURVE",
"48 582 CURVE SMOOTH",
"48 634 OFFCURVE",
"44 677 OFFCURVE",
"35 729 CURVE",
"356 742 LINE"
);
}
);
width = 391;
}
);
unicode = 02D9;
},
{
glyphname = edotaccent;
lastChange = "2015-10-17 22:46:10 +0000";
layers = (
{
layerId = "7A0FC40B-77F8-4D14-AD08-D047673E78CB";
name = Regular;
paths = (
{
closed = 1;
nodes = (
"416 212 OFFCURVE",
"386 212 OFFCURVE",
"357 216 CURVE",
"361 201 OFFCURVE",
"366 189 OFFCURVE",
"371 177 CURVE",
"426 166 OFFCURVE",
"471 162 OFFCURVE",
"516 162 CURVE SMOOTH",
"588 162 OFFCURVE",
"649 168 OFFCURVE",
"701 177 CURVE",
"704 130 OFFCURVE",
"711 69 OFFCURVE",
"728 20 CURVE",
"640 0 OFFCURVE",
"558 -13 OFFCURVE",
"451 -13 CURVE SMOOTH",
"306 -13 OFFCURVE",
"171 -6 OFFCURVE",
"54 45 CURVE",
"22 105 OFFCURVE",
"5 193 OFFCURVE",
"5 280 CURVE SMOOTH",
"5 357 OFFCURVE",
"17 426 OFFCURVE",
"64 502 CURVE",
"168 530 OFFCURVE",
"276 541 OFFCURVE",
"405 541 CURVE SMOOTH",
"464 541 OFFCURVE",
"514 538 OFFCURVE",
"566 532 CURVE SMOOTH",
"617 526 OFFCURVE",
"667 517 OFFCURVE",
"726 505 CURVE",
"749 466 OFFCURVE",
"755 423 OFFCURVE",
"755 380 CURVE SMOOTH",
"755 325 OFFCURVE",
"745 264 OFFCURVE",
"726 225 CURVE",
"645 214 OFFCURVE",
"546 212 OFFCURVE",
"449 212 CURVE SMOOTH"
);
},
{
closed = 1;
nodes = (
"413 396 OFFCURVE",
"383 393 OFFCURVE",
"340 380 CURVE",
"335 369 OFFCURVE",
"331 356 OFFCURVE",
"329 342 CURVE",
"369 342 OFFCURVE",
"411 343 OFFCURVE",
"459 347 CURVE",
"458 354 OFFCURVE",
"457 362 OFFCURVE",
"456 370 CURVE SMOOTH",
"455 378 OFFCURVE",
"452 387 OFFCURVE",
"449 396 CURVE"
);
},
{
closed = 1;
nodes = (
"500 579 LINE",
"451 585 OFFCURVE",
"404 588 OFFCURVE",
"361 588 CURVE SMOOTH",
"317 588 OFFCURVE",
"276 586 OFFCURVE",
"236 583 CURVE",
"237 590 OFFCURVE",
"237 597 OFFCURVE",
"237 604 CURVE SMOOTH",
"237 610 OFFCURVE",
"237 616 OFFCURVE",
"237 622 CURVE SMOOTH",
"237 674 OFFCURVE",
"233 717 OFFCURVE",
"224 769 CURVE",
"545 782 LINE"
);
}
);
width = 770;
}
);
unicode = 0117;
},
{
glyphname = one;
lastChange = "2015-10-17 22:46:10 +0000";
layers = (
{
layerId = "7A0FC40B-77F8-4D14-AD08-D047673E78CB";
name = Regular;
paths = (
{
closed = 1;
nodes = (
"467 574 LINE",
"486 0 LINE",
"379 -1 OFFCURVE",
"260 -3 OFFCURVE",
"161 -12 CURVE",
"161 155 OFFCURVE",
"161 328 OFFCURVE",
"157 499 CURVE",
"138 496 OFFCURVE",
"119 492 OFFCURVE",
"101 487 CURVE SMOOTH",
"82 482 OFFCURVE",
"64 477 OFFCURVE",
"47 473 CURVE",
"48 480 OFFCURVE",
"48 486 OFFCURVE",
"48 493 CURVE SMOOTH",
"48 500 OFFCURVE",
"48 506 OFFCURVE",
"48 512 CURVE SMOOTH",
"48 557 OFFCURVE",
"43 594 OFFCURVE",
"35 639 CURVE",
"223 704 LINE",
"306 697 OFFCURVE",
"392 692 OFFCURVE",
"476 692 CURVE"
);
}
);
width = 521;
}
);
unicode = 0031;
},
{
glyphname = seven;
lastChange = "2015-10-17 22:46:10 +0000";
layers = (
{
layerId = "7A0FC40B-77F8-4D14-AD08-D047673E78CB";
name = Regular;
paths = (
{
closed = 1;
nodes = (
"637 524 LINE",
"561 353 OFFCURVE",
"494 183 OFFCURVE",
"446 0 CURVE",
"321 -1 OFFCURVE",
"178 -3 OFFCURVE",
"61 -12 CURVE",
"105 89 OFFCURVE",
"142 171 OFFCURVE",
"178 250 CURVE SMOOTH",
"213 329 OFFCURVE",
"247 402 OFFCURVE",
"287 489 CURVE",
"252 493 OFFCURVE",
"215 493 OFFCURVE",
"182 493 CURVE SMOOTH",
"135 493 OFFCURVE",
"94 490 OFFCURVE",
"47 483 CURVE",
"48 497 OFFCURVE",
"48 512 OFFCURVE",
"48 528 CURVE SMOOTH",
"48 544 OFFCURVE",
"48 559 OFFCURVE",
"48 572 CURVE SMOOTH",
"48 617 OFFCURVE",
"43 654 OFFCURVE",
"35 699 CURVE",
"238 700 OFFCURVE",
"455 701 OFFCURVE",
"646 712 CURVE"
);
}
);
width = 681;
}
);
unicode = 0037;
},
{
glyphname = A;
lastChange = "2015-10-17 22:46:10 +0000";
layers = (
{
layerId = "7A0FC40B-77F8-4D14-AD08-D047673E78CB";
name = Regular;
paths = (
{
closed = 1;
nodes = (
"5 12 LINE",
"85 240 OFFCURVE",
"139 461 OFFCURVE",
"184 694 CURVE",
"264 694 OFFCURVE",
"356 696 OFFCURVE",
"447 699 CURVE SMOOTH",
"538 702 OFFCURVE",
"628 707 OFFCURVE",
"701 712 CURVE",
"732 476 OFFCURVE",
"777 242 OFFCURVE",
"845 6 CURVE",
"716 3 OFFCURVE",
"586 -3 OFFCURVE",
"451 -12 CURVE",
"439 100 LINE",
"277 100 LINE",
"267 -7 LINE"
);
},
{
closed = 1;
nodes = (
"368 462 LINE",
"314 245 LINE",
"426 252 LINE",
"382 465 LINE"
);
}
);
width = 850;
}
);
unicode = 0041;
},
{
glyphname = six;
lastChange = "2015-10-17 22:46:10 +0000";
layers = (
{
layerId = "7A0FC40B-77F8-4D14-AD08-D047673E78CB";
name = Regular;
paths = (
{
closed = 1;
nodes = (
"717 388 OFFCURVE",
"738 331 OFFCURVE",
"738 244 CURVE SMOOTH",
"738 211 OFFCURVE",
"734 174 OFFCURVE",
"726 139 CURVE SMOOTH",
"717 103 OFFCURVE",
"702 69 OFFCURVE",
"679 41 CURVE",
"583 1 OFFCURVE",
"493 -17 OFFCURVE",
"373 -17 CURVE SMOOTH",
"244 -17 OFFCURVE",
"148 1 OFFCURVE",
"68 33 CURVE",
"56 60 OFFCURVE",
"43 102 OFFCURVE",
"33 152 CURVE SMOOTH",
"23 202 OFFCURVE",
"15 260 OFFCURVE",
"15 320 CURVE SMOOTH",
"15 385 OFFCURVE",
"18 452 OFFCURVE",
"29 511 CURVE SMOOTH",
"40 570 OFFCURVE",
"56 619 OFFCURVE",
"84 647 CURVE",
"135 674 OFFCURVE",
"193 691 OFFCURVE",
"254 700 CURVE SMOOTH",
"315 709 OFFCURVE",
"378 712 OFFCURVE",
"441 712 CURVE SMOOTH",
"516 712 OFFCURVE",
"578 702 OFFCURVE",
"622 693 CURVE SMOOTH",
"648 688 OFFCURVE",
"671 682 OFFCURVE",
"692 675 CURVE",
"668 624 OFFCURVE",
"647 573 OFFCURVE",
"640 505 CURVE",
"615 513 OFFCURVE",
"586 520 OFFCURVE",
"550 525 CURVE SMOOTH",
"532 527 OFFCURVE",
"512 528 OFFCURVE",
"491 528 CURVE SMOOTH",
"459 528 OFFCURVE",
"416 528 OFFCURVE",
"381 517 CURVE",
"364 498 OFFCURVE",
"356 478 OFFCURVE",
"356 449 CURVE",
"401 461 OFFCURVE",
"461 467 OFFCURVE",
"521 467 CURVE SMOOTH",
"590 467 OFFCURVE",
"635 461 OFFCURVE",
"690 440 CURVE"
);
},
{
closed = 1;
nodes = (
"337 244 OFFCURVE",
"339 198 OFFCURVE",
"350 154 CURVE",
"358 153 OFFCURVE",
"365 151 OFFCURVE",
"372 150 CURVE SMOOTH",
"378 149 OFFCURVE",
"386 148 OFFCURVE",
"396 148 CURVE SMOOTH",
"408 148 OFFCURVE",
"422 150 OFFCURVE",
"433 155 CURVE",
"440 164 OFFCURVE",
"441 178 OFFCURVE",
"441 194 CURVE SMOOTH",
"441 234 OFFCURVE",
"438 261 OFFCURVE",
"431 288 CURVE",
"418 292 OFFCURVE",
"400 294 OFFCURVE",
"388 294 CURVE SMOOTH",
"368 294 OFFCURVE",
"354 292 OFFCURVE",
"334 287 CURVE"
);
}
);
width = 758;
}
);
unicode = 0036;
},
{
glyphname = zero;
lastChange = "2015-10-17 22:46:10 +0000";
layers = (
{
layerId = "7A0FC40B-77F8-4D14-AD08-D047673E78CB";
name = Regular;
paths = (
{
closed = 1;
nodes = (
"244 -17 OFFCURVE",
"148 1 OFFCURVE",
"68 33 CURVE",
"56 60 OFFCURVE",
"43 102 OFFCURVE",
"33 152 CURVE SMOOTH",
"23 202 OFFCURVE",
"15 260 OFFCURVE",
"15 320 CURVE SMOOTH",
"15 389 OFFCURVE",
"18 461 OFFCURVE",
"29 523 CURVE SMOOTH",
"40 585 OFFCURVE",
"56 636 OFFCURVE",
"84 667 CURVE",
"168 704 OFFCURVE",
"277 712 OFFCURVE",
"381 712 CURVE SMOOTH",
"510 712 OFFCURVE",
"605 694 OFFCURVE",
"685 662 CURVE",
"697 635 OFFCURVE",
"711 594 OFFCURVE",
"721 544 CURVE SMOOTH",
"731 494 OFFCURVE",
"738 435 OFFCURVE",
"738 375 CURVE SMOOTH",
"738 306 OFFCURVE",
"735 235 OFFCURVE",
"724 173 CURVE SMOOTH",
"713 111 OFFCURVE",
"697 59 OFFCURVE",
"669 28 CURVE",
"626 9 OFFCURVE",
"579 -2 OFFCURVE",
"529 -9 CURVE SMOOTH",
"479 -16 OFFCURVE",
"425 -17 OFFCURVE",
"373 -17 CURVE SMOOTH"
);
},
{
closed = 1;
nodes = (
"343 447 OFFCURVE",
"339 391 OFFCURVE",
"339 326 CURVE SMOOTH",
"339 266 OFFCURVE",
"343 207 OFFCURVE",
"350 154 CURVE",
"358 153 OFFCURVE",
"365 151 OFFCURVE",
"372 150 CURVE SMOOTH",
"378 149 OFFCURVE",
"386 148 OFFCURVE",
"396 148 CURVE SMOOTH",
"408 148 OFFCURVE",
"422 150 OFFCURVE",
"433 155 CURVE",
"442 202 OFFCURVE",
"451 264 OFFCURVE",
"451 341 CURVE SMOOTH",
"451 397 OFFCURVE",
"447 443 OFFCURVE",
"431 508 CURVE",
"418 512 OFFCURVE",
"400 514 OFFCURVE",
"388 514 CURVE SMOOTH",
"377 514 OFFCURVE",
"365 512 OFFCURVE",
"354 507 CURVE"
);
}
);
width = 758;
}
);
unicode = 0030;
},
{
glyphname = period;
lastChange = "2015-10-17 22:46:10 +0000";
layers = (
{
layerId = "7A0FC40B-77F8-4D14-AD08-D047673E78CB";
name = Regular;
paths = (
{
closed = 1;
nodes = (
"381 -11 LINE",
"313 -5 OFFCURVE",
"250 -2 OFFCURVE",
"192 -2 CURVE SMOOTH",
"141 -2 OFFCURVE",
"94 -4 OFFCURVE",
"47 -7 CURVE",
"48 10 OFFCURVE",
"48 26 OFFCURVE",
"48 41 CURVE SMOOTH",
"48 55 OFFCURVE",
"48 69 OFFCURVE",
"48 82 CURVE SMOOTH",
"48 134 OFFCURVE",
"43 177 OFFCURVE",
"35 229 CURVE",
"396 242 LINE"
);
}
);
width = 441;
}
);
unicode = 002E;
},
{
glyphname = two;
lastChange = "2015-10-17 22:46:10 +0000";
layers = (
{
layerId = "7A0FC40B-77F8-4D14-AD08-D047673E78CB";
name = Regular;
paths = (
{
closed = 1;
nodes = (
"66 573 OFFCURVE",
"45 624 OFFCURVE",
"21 675 CURVE",
"62 688 OFFCURVE",
"109 698 OFFCURVE",
"170 706 CURVE SMOOTH",
"200 710 OFFCURVE",
"234 712 OFFCURVE",
"272 712 CURVE SMOOTH",
"325 712 OFFCURVE",
"381 709 OFFCURVE",
"433 700 CURVE SMOOTH",
"485 691 OFFCURVE",
"535 674 OFFCURVE",
"579 647 CURVE",
"608 596 OFFCURVE",
"628 529 OFFCURVE",
"628 450 CURVE SMOOTH",
"628 405 OFFCURVE",
"611 370 OFFCURVE",
"586 340 CURVE SMOOTH",
"561 310 OFFCURVE",
"529 285 OFFCURVE",
"498 261 CURVE SMOOTH",
"467 236 OFFCURVE",
"438 211 OFFCURVE",
"421 182 CURVE",
"637 192 LINE",
"617 -12 LINE",
"421 -3 OFFCURVE",
"230 0 OFFCURVE",
"15 0 CURVE",
"15 163 LINE",
"43 193 OFFCURVE",
"74 220 OFFCURVE",
"108 243 CURVE SMOOTH",
"176 290 OFFCURVE",
"237 331 OFFCURVE",
"277 375 CURVE SMOOTH",
"297 397 OFFCURVE",
"307 422 OFFCURVE",
"307 449 CURVE SMOOTH",
"307 476 OFFCURVE",
"303 495 OFFCURVE",
"292 512 CURVE",
"257 528 OFFCURVE",
"214 528 OFFCURVE",
"182 528 CURVE SMOOTH",
"151 528 OFFCURVE",
"125 523 OFFCURVE",
"105 516 CURVE",
"93 513 OFFCURVE",
"82 509 OFFCURVE",
"73 505 CURVE"
);
}
);
width = 662;
}
);
unicode = 0032;
},
{
glyphname = three;
lastChange = "2015-10-17 22:46:10 +0000";
layers = (
{
layerId = "7A0FC40B-77F8-4D14-AD08-D047673E78CB";
name = Regular;
paths = (
{
closed = 1;
nodes = (
"76 321 OFFCURVE",
"78 343 OFFCURVE",
"78 367 CURVE SMOOTH",
"78 390 OFFCURVE",
"76 412 OFFCURVE",
"73 443 CURVE",
"92 440 OFFCURVE",
"114 437 OFFCURVE",
"140 436 CURVE",
"153 435 OFFCURVE",
"167 435 OFFCURVE",
"182 435 CURVE SMOOTH",
"223 435 OFFCURVE",
"278 435 OFFCURVE",
"322 446 CURVE",
"325 455 OFFCURVE",
"327 466 OFFCURVE",
"327 479 CURVE SMOOTH",
"327 492 OFFCURVE",
"325 503 OFFCURVE",
"322 512 CURVE",
"278 528 OFFCURVE",
"223 528 OFFCURVE",
"182 528 CURVE SMOOTH",
"151 528 OFFCURVE",
"125 524 OFFCURVE",
"105 521 CURVE SMOOTH",
"93 519 OFFCURVE",
"82 517 OFFCURVE",
"73 515 CURVE",
"66 579 OFFCURVE",
"45 627 OFFCURVE",
"21 675 CURVE",
"62 688 OFFCURVE",
"109 698 OFFCURVE",
"170 706 CURVE SMOOTH",
"200 710 OFFCURVE",
"234 712 OFFCURVE",
"272 712 CURVE SMOOTH",
"325 712 OFFCURVE",
"381 709 OFFCURVE",
"433 700 CURVE SMOOTH",
"485 691 OFFCURVE",
"535 674 OFFCURVE",
"579 647 CURVE",
"596 615 OFFCURVE",
"608 571 OFFCURVE",
"608 520 CURVE SMOOTH",
"608 465 OFFCURVE",
"596 417 OFFCURVE",
"579 381 CURVE",
"611 333 OFFCURVE",
"624 272 OFFCURVE",
"624 204 CURVE SMOOTH",
"624 143 OFFCURVE",
"606 83 OFFCURVE",
"579 52 CURVE",
"535 25 OFFCURVE",
"485 8 OFFCURVE",
"433 -1 CURVE SMOOTH",
"381 -10 OFFCURVE",
"325 -13 OFFCURVE",
"272 -13 CURVE SMOOTH",
"196 -13 OFFCURVE",
"135 -4 OFFCURVE",
"91 5 CURVE SMOOTH",
"65 10 OFFCURVE",
"42 17 OFFCURVE",
"21 24 CURVE",
"45 75 OFFCURVE",
"66 126 OFFCURVE",
"73 194 CURVE",
"92 185 OFFCURVE",
"114 178 OFFCURVE",
"140 174 CURVE SMOOTH",
"153 172 OFFCURVE",
"167 171 OFFCURVE",
"182 171 CURVE SMOOTH",
"214 171 OFFCURVE",
"257 171 OFFCURVE",
"292 187 CURVE",
"302 201 OFFCURVE",
"307 219 OFFCURVE",
"307 240 CURVE SMOOTH",
"307 265 OFFCURVE",
"305 281 OFFCURVE",
"302 293 CURVE",
"263 304 OFFCURVE",
"217 304 OFFCURVE",
"182 304 CURVE SMOOTH",
"151 304 OFFCURVE",
"125 303 OFFCURVE",
"105 300 CURVE",
"93 299 OFFCURVE",
"82 297 OFFCURVE",
"73 296 CURVE"
);
}
);
width = 662;
}
);
unicode = 0033;
},
{
glyphname = four;
lastChange = "2015-10-17 22:46:10 +0000";
layers = (
{
layerId = "7A0FC40B-77F8-4D14-AD08-D047673E78CB";
name = Regular;
paths = (
{
closed = 1;
nodes = (
"653 524 LINE",
"660 318 LINE",
"691 319 OFFCURVE",
"718 323 OFFCURVE",
"750 327 CURVE",
"749 313 OFFCURVE",
"749 298 OFFCURVE",
"749 282 CURVE SMOOTH",
"749 266 OFFCURVE",
"749 251 OFFCURVE",
"749 238 CURVE SMOOTH",
"749 193 OFFCURVE",
"753 156 OFFCURVE",
"762 111 CURVE",
"668 111 LINE",
"672 0 LINE",
"565 -1 OFFCURVE",
"446 -3 OFFCURVE",
"347 -12 CURVE",
"347 108 LINE",
"228 105 OFFCURVE",
"116 102 OFFCURVE",
"11 98 CURVE",
"20 286 LINE",
"88 423 OFFCURVE",
"148 555 OFFCURVE",
"191 700 CURVE",
"310 701 OFFCURVE",
"445 703 OFFCURVE",
"556 712 CURVE",
"504 644 LINE",
"555 643 OFFCURVE",
"611 642 OFFCURVE",
"662 642 CURVE"
);
},
{
closed = 1;
nodes = (
"320 321 LINE",
"347 320 OFFCURVE",
"378 319 OFFCURVE",
"405 319 CURVE",
"405 340 OFFCURVE",
"405 361 OFFCURVE",
"405 384 CURVE SMOOTH",
"405 407 OFFCURVE",
"405 428 OFFCURVE",
"404 449 CURVE",
"378 453 LINE"
);
}
);
width = 773;
}
);
unicode = 0034;
},
{
glyphname = five;
lastChange = "2015-10-17 22:46:10 +0000";
layers = (
{
layerId = "7A0FC40B-77F8-4D14-AD08-D047673E78CB";
name = Regular;
paths = (
{
closed = 1;
nodes = (
"43 291 OFFCURVE",
"46 321 OFFCURVE",
"47 355 CURVE SMOOTH",
"48 388 OFFCURVE",
"50 422 OFFCURVE",
"52 457 CURVE",
"52 700 LINE",
"255 700 OFFCURVE",
"437 703 OFFCURVE",
"624 712 CURVE",
"644 508 LINE",
"358 518 LINE",
"357 505 OFFCURVE",
"355 493 OFFCURVE",
"354 482 CURVE",
"352 471 OFFCURVE",
"351 459 OFFCURVE",
"350 448 CURVE",
"371 451 OFFCURVE",
"393 454 OFFCURVE",
"422 455 CURVE",
"436 456 OFFCURVE",
"452 456 OFFCURVE",
"469 456 CURVE SMOOTH",
"526 456 OFFCURVE",
"578 452 OFFCURVE",
"629 425 CURVE",
"638 406 OFFCURVE",
"647 376 OFFCURVE",
"653 344 CURVE SMOOTH",
"659 312 OFFCURVE",
"661 278 OFFCURVE",
"661 254 CURVE SMOOTH",
"661 173 OFFCURVE",
"643 93 OFFCURVE",
"616 52 CURVE",
"572 25 OFFCURVE",
"522 8 OFFCURVE",
"470 -1 CURVE SMOOTH",
"418 -10 OFFCURVE",
"362 -13 OFFCURVE",
"309 -13 CURVE SMOOTH",
"221 -13 OFFCURVE",
"150 -4 OFFCURVE",
"99 5 CURVE SMOOTH",
"69 10 OFFCURVE",
"42 17 OFFCURVE",
"18 24 CURVE",
"42 75 OFFCURVE",
"63 126 OFFCURVE",
"70 194 CURVE",
"95 185 OFFCURVE",
"124 178 OFFCURVE",
"160 174 CURVE SMOOTH",
"178 172 OFFCURVE",
"198 171 OFFCURVE",
"219 171 CURVE SMOOTH",
"251 171 OFFCURVE",
"294 171 OFFCURVE",
"329 187 CURVE",
"339 198 OFFCURVE",
"344 212 OFFCURVE",
"344 230 CURVE SMOOTH",
"344 245 OFFCURVE",
"342 254 OFFCURVE",
"339 263 CURVE",
"300 284 OFFCURVE",
"254 284 OFFCURVE",
"219 284 CURVE SMOOTH",
"167 284 OFFCURVE",
"123 279 OFFCURVE",
"91 275 CURVE SMOOTH",
"72 272 OFFCURVE",
"55 269 OFFCURVE",
"40 266 CURVE"
);
}
);
width = 699;
}
);
unicode = 0035;
},
{
glyphname = eight;
lastChange = "2015-10-17 22:46:10 +0000";
layers = (
{
layerId = "7A0FC40B-77F8-4D14-AD08-D047673E78CB";
name = Regular;
paths = (
{
closed = 1;
nodes = (
"314 -13 OFFCURVE",
"258 -10 OFFCURVE",
"206 -1 CURVE SMOOTH",
"154 8 OFFCURVE",
"104 25 OFFCURVE",
"60 52 CURVE",
"33 83 OFFCURVE",
"15 143 OFFCURVE",
"15 204 CURVE SMOOTH",
"15 272 OFFCURVE",
"28 333 OFFCURVE",
"60 381 CURVE",
"43 417 OFFCURVE",
"31 465 OFFCURVE",
"31 520 CURVE SMOOTH",
"31 571 OFFCURVE",
"43 615 OFFCURVE",
"60 647 CURVE",
"104 674 OFFCURVE",
"154 691 OFFCURVE",
"206 700 CURVE SMOOTH",
"258 709 OFFCURVE",
"314 712 OFFCURVE",
"367 712 CURVE SMOOTH",
"420 712 OFFCURVE",
"476 709 OFFCURVE",
"528 700 CURVE SMOOTH",
"580 691 OFFCURVE",
"630 674 OFFCURVE",
"674 647 CURVE",
"691 615 OFFCURVE",
"703 571 OFFCURVE",
"703 520 CURVE SMOOTH",
"703 465 OFFCURVE",
"691 417 OFFCURVE",
"674 381 CURVE",
"706 333 OFFCURVE",
"719 272 OFFCURVE",
"719 204 CURVE SMOOTH",
"719 143 OFFCURVE",
"701 83 OFFCURVE",
"674 52 CURVE",
"630 25 OFFCURVE",
"580 8 OFFCURVE",
"528 -1 CURVE SMOOTH",
"476 -10 OFFCURVE",
"420 -13 OFFCURVE",
"367 -13 CURVE SMOOTH"
);
},
{
closed = 1;
nodes = (
"344 538 OFFCURVE",
"327 535 OFFCURVE",
"312 527 CURVE",
"307 518 OFFCURVE",
"307 506 OFFCURVE",
"307 489 CURVE SMOOTH",
"307 469 OFFCURVE",
"309 457 OFFCURVE",
"312 446 CURVE",
"327 435 OFFCURVE",
"344 435 OFFCURVE",
"357 435 CURVE SMOOTH",
"373 435 OFFCURVE",
"393 435 OFFCURVE",
"412 446 CURVE",
"417 457 OFFCURVE",
"417 469 OFFCURVE",
"417 489 CURVE SMOOTH",
"417 504 OFFCURVE",
"415 517 OFFCURVE",
"412 527 CURVE",
"393 538 OFFCURVE",
"373 538 OFFCURVE",
"357 538 CURVE SMOOTH"
);
},
{
closed = 1;
nodes = (
"355 295 OFFCURVE",
"337 292 OFFCURVE",
"320 284 CURVE",
"317 272 OFFCURVE",
"315 256 OFFCURVE",
"315 231 CURVE SMOOTH",
"315 204 OFFCURVE",
"318 183 OFFCURVE",
"325 168 CURVE",
"341 161 OFFCURVE",
"358 162 OFFCURVE",
"370 162 CURVE SMOOTH",
"383 162 OFFCURVE",
"401 162 OFFCURVE",
"420 173 CURVE",
"427 188 OFFCURVE",
"430 206 OFFCURVE",
"430 231 CURVE SMOOTH",
"430 256 OFFCURVE",
"428 272 OFFCURVE",
"425 284 CURVE",
"406 295 OFFCURVE",
"385 295 OFFCURVE",
"370 295 CURVE SMOOTH"
);
}
);
width = 734;
}
);
unicode = 0038;
},
{
glyphname = nine;
lastChange = "2015-10-17 22:46:10 +0000";
layers = (
{
layerId = "7A0FC40B-77F8-4D14-AD08-D047673E78CB";
name = Regular;
paths = (
{
closed = 1;
nodes = (
"36 321 OFFCURVE",
"15 380 OFFCURVE",
"15 471 CURVE SMOOTH",
"15 535 OFFCURVE",
"29 607 OFFCURVE",
"64 664 CURVE",
"163 697 OFFCURVE",
"256 712 OFFCURVE",
"380 712 CURVE SMOOTH",
"513 712 OFFCURVE",
"612 691 OFFCURVE",
"695 652 CURVE",
"724 583 OFFCURVE",
"738 482 OFFCURVE",
"738 375 CURVE SMOOTH",
"738 244 OFFCURVE",
"724 125 OFFCURVE",
"669 48 CURVE",
"618 21 OFFCURVE",
"560 4 OFFCURVE",
"499 -5 CURVE SMOOTH",
"438 -14 OFFCURVE",
"375 -17 OFFCURVE",
"312 -17 CURVE SMOOTH",
"236 -17 OFFCURVE",
"175 -8 OFFCURVE",
"131 1 CURVE SMOOTH",
"105 6 OFFCURVE",
"82 13 OFFCURVE",
"61 20 CURVE",
"85 71 OFFCURVE",
"106 122 OFFCURVE",
"113 190 CURVE",
"138 181 OFFCURVE",
"167 174 OFFCURVE",
"203 170 CURVE SMOOTH",
"221 168 OFFCURVE",
"241 167 OFFCURVE",
"262 167 CURVE SMOOTH",
"294 167 OFFCURVE",
"337 167 OFFCURVE",
"372 178 CURVE",
"389 201 OFFCURVE",
"397 223 OFFCURVE",
"397 256 CURVE",
"352 244 OFFCURVE",
"292 238 OFFCURVE",
"232 238 CURVE SMOOTH",
"163 238 OFFCURVE",
"116 242 OFFCURVE",
"63 265 CURVE"
);
},
{
closed = 1;
nodes = (
"416 445 OFFCURVE",
"414 494 OFFCURVE",
"403 541 CURVE",
"395 542 OFFCURVE",
"388 544 OFFCURVE",
"382 545 CURVE SMOOTH",
"375 546 OFFCURVE",
"367 547 OFFCURVE",
"357 547 CURVE SMOOTH",
"345 547 OFFCURVE",
"331 545 OFFCURVE",
"320 540 CURVE",
"313 531 OFFCURVE",
"312 517 OFFCURVE",
"312 501 CURVE SMOOTH",
"312 457 OFFCURVE",
"315 426 OFFCURVE",
"322 397 CURVE",
"335 392 OFFCURVE",
"353 391 OFFCURVE",
"365 391 CURVE SMOOTH",
"385 391 OFFCURVE",
"399 393 OFFCURVE",
"419 398 CURVE"
);
}
);
width = 758;
}
);
unicode = 0039;
},
{
glyphname = comma;
lastChange = "2015-10-17 22:46:10 +0000";
layers = (
{
layerId = "7A0FC40B-77F8-4D14-AD08-D047673E78CB";
name = Regular;
paths = (
{
closed = 1;
nodes = (
"131 -89 LINE",
"154 -89 OFFCURVE",
"170 -75 OFFCURVE",
"185 -54 CURVE",
"190 -37 OFFCURVE",
"194 -19 OFFCURVE",
"196 0 CURVE",
"140 0 OFFCURVE",
"94 -3 OFFCURVE",
"47 -7 CURVE",
"48 10 OFFCURVE",
"48 26 OFFCURVE",
"48 41 CURVE SMOOTH",
"48 55 OFFCURVE",
"48 69 OFFCURVE",
"48 82 CURVE SMOOTH",
"48 134 OFFCURVE",
"43 177 OFFCURVE",
"35 229 CURVE",
"396 242 LINE",
"396 122 OFFCURVE",
"382 14 OFFCURVE",
"342 -87 CURVE",
"310 -119 OFFCURVE",
"262 -144 OFFCURVE",
"222 -163 CURVE SMOOTH",
"199 -174 OFFCURVE",
"175 -183 OFFCURVE",
"150 -192 CURVE"
);
}
);
width = 431;
}
);
unicode = 002C;
},
{
glyphname = grave;
lastChange = "2015-10-17 22:46:10 +0000";
layers = (
{
layerId = "7A0FC40B-77F8-4D14-AD08-D047673E78CB";
name = Regular;
paths = (
{
closed = 1;
nodes = (
"427 635 OFFCURVE",
"414 592 OFFCURVE",
"411 547 CURVE",
"266 570 OFFCURVE",
"115 578 OFFCURVE",
"-26 583 CURVE",
"-13 638 OFFCURVE",
"-2 686 OFFCURVE",
"2 751 CURVE",
"66 735 OFFCURVE",
"143 721 OFFCURVE",
"220 710 CURVE SMOOTH",
"297 698 OFFCURVE",
"377 689 OFFCURVE",
"446 682 CURVE"
);
}
);
width = 457;
}
);
unicode = 0060;
},
{
glyphname = agrave;
lastChange = "2015-10-17 22:46:10 +0000";
layers = (
{
layerId = "7A0FC40B-77F8-4D14-AD08-D047673E78CB";
name = Regular;
paths = (
{
closed = 1;
nodes = (
"110 331 OFFCURVE",
"170 337 OFFCURVE",
"257 337 CURVE SMOOTH",
"316 337 OFFCURVE",
"373 332 OFFCURVE",
"417 324 CURVE",
"417 339 OFFCURVE",
"412 351 OFFCURVE",
"402 361 CURVE",
"367 368 OFFCURVE",
"324 372 OFFCURVE",
"292 372 CURVE SMOOTH",
"244 372 OFFCURVE",
"202 368 OFFCURVE",
"171 365 CURVE SMOOTH",
"154 363 OFFCURVE",
"138 361 OFFCURVE",
"123 359 CURVE",
"116 419 OFFCURVE",
"95 464 OFFCURVE",
"71 509 CURVE",
"115 518 OFFCURVE",
"166 526 OFFCURVE",
"232 532 CURVE SMOOTH",
"265 535 OFFCURVE",
"301 536 OFFCURVE",
"342 536 CURVE SMOOTH",
"467 536 OFFCURVE",
"596 526 OFFCURVE",
"699 481 CURVE",
"727 457 OFFCURVE",
"743 414 OFFCURVE",
"754 364 CURVE SMOOTH",
"765 314 OFFCURVE",
"768 256 OFFCURVE",
"768 200 CURVE SMOOTH",
"768 116 OFFCURVE",
"759 38 OFFCURVE",
"755 3 CURVE",
"638 2 OFFCURVE",
"524 -4 OFFCURVE",
"415 -13 CURVE",
"415 -5 LINE SMOOTH",
"415 -2 OFFCURVE",
"415 1 OFFCURVE",
"415 5 CURVE SMOOTH",
"415 8 OFFCURVE",
"415 12 OFFCURVE",
"416 17 CURVE",
"385 2 OFFCURVE",
"325 -17 OFFCURVE",
"230 -17 CURVE SMOOTH",
"166 -17 OFFCURVE",
"119 -8 OFFCURVE",
"64 11 CURVE",
"25 59 OFFCURVE",
"15 125 OFFCURVE",
"15 184 CURVE SMOOTH",
"15 243 OFFCURVE",
"27 277 OFFCURVE",
"43 310 CURVE"
);
},
{
closed = 1;
nodes = (
"429 212 OFFCURVE",
"415 214 OFFCURVE",
"395 214 CURVE SMOOTH",
"382 214 OFFCURVE",
"362 212 OFFCURVE",
"347 208 CURVE",
"343 201 OFFCURVE",
"341 192 OFFCURVE",
"341 183 CURVE SMOOTH",
"341 171 OFFCURVE",
"342 162 OFFCURVE",
"345 155 CURVE",
"356 150 OFFCURVE",
"372 148 OFFCURVE",
"387 148 CURVE SMOOTH",
"407 148 OFFCURVE",
"421 150 OFFCURVE",
"437 154 CURVE",
"445 173 OFFCURVE",
"446 188 OFFCURVE",
"449 207 CURVE"
);
},
{
closed = 1;
nodes = (
"612 635 OFFCURVE",
"599 592 OFFCURVE",
"596 547 CURVE",
"451 570 OFFCURVE",
"300 578 OFFCURVE",
"159 583 CURVE",
"172 638 OFFCURVE",
"183 686 OFFCURVE",
"187 751 CURVE",
"251 735 OFFCURVE",
"328 721 OFFCURVE",
"405 710 CURVE SMOOTH",
"482 698 OFFCURVE",
"562 689 OFFCURVE",
"631 682 CURVE"
);
}
);
width = 790;
}
);
unicode = 00E0;
},
{
glyphname = egrave;
lastChange = "2015-10-17 22:46:10 +0000";
layers = (
{
layerId = "7A0FC40B-77F8-4D14-AD08-D047673E78CB";
name = Regular;
paths = (
{
closed = 1;
nodes = (
"416 212 OFFCURVE",
"386 212 OFFCURVE",
"357 216 CURVE",
"361 201 OFFCURVE",
"366 189 OFFCURVE",
"371 177 CURVE",
"426 166 OFFCURVE",
"471 162 OFFCURVE",
"516 162 CURVE SMOOTH",
"588 162 OFFCURVE",
"649 168 OFFCURVE",
"701 177 CURVE",
"704 130 OFFCURVE",
"711 69 OFFCURVE",
"728 20 CURVE",
"640 0 OFFCURVE",
"558 -13 OFFCURVE",
"451 -13 CURVE SMOOTH",
"306 -13 OFFCURVE",
"171 -6 OFFCURVE",
"54 45 CURVE",
"22 105 OFFCURVE",
"5 193 OFFCURVE",
"5 280 CURVE SMOOTH",
"5 357 OFFCURVE",
"17 426 OFFCURVE",
"64 502 CURVE",
"168 530 OFFCURVE",
"276 541 OFFCURVE",
"405 541 CURVE SMOOTH",
"464 541 OFFCURVE",
"514 538 OFFCURVE",
"566 532 CURVE SMOOTH",
"617 526 OFFCURVE",
"667 517 OFFCURVE",
"726 505 CURVE",
"749 466 OFFCURVE",
"755 423 OFFCURVE",
"755 380 CURVE SMOOTH",
"755 325 OFFCURVE",
"745 264 OFFCURVE",
"726 225 CURVE",
"645 214 OFFCURVE",
"546 212 OFFCURVE",
"449 212 CURVE SMOOTH"
);
},
{
closed = 1;
nodes = (
"413 396 OFFCURVE",
"383 393 OFFCURVE",
"340 380 CURVE",
"335 369 OFFCURVE",
"331 356 OFFCURVE",
"329 342 CURVE",
"369 342 OFFCURVE",
"411 343 OFFCURVE",
"459 347 CURVE",
"458 354 OFFCURVE",
"457 362 OFFCURVE",
"456 370 CURVE SMOOTH",
"455 378 OFFCURVE",
"452 387 OFFCURVE",
"449 396 CURVE"
);
},
{
closed = 1;
nodes = (
"602 635 OFFCURVE",
"589 592 OFFCURVE",
"586 547 CURVE",
"441 570 OFFCURVE",
"290 578 OFFCURVE",
"149 583 CURVE",
"162 638 OFFCURVE",
"173 686 OFFCURVE",
"177 751 CURVE",
"241 735 OFFCURVE",
"318 721 OFFCURVE",
"395 710 CURVE SMOOTH",
"472 698 OFFCURVE",
"552 689 OFFCURVE",
"621 682 CURVE"
);
}
);
width = 770;
}
);
unicode = 00E8;
},
{
glyphname = igrave;
lastChange = "2015-10-17 22:46:10 +0000";
layers = (
{
layerId = "7A0FC40B-77F8-4D14-AD08-D047673E78CB";
name = Regular;
paths = (
{
closed = 1;
nodes = (
"356 0 LINE",
"249 -1 OFFCURVE",
"135 -3 OFFCURVE",
"36 -12 CURVE",
"36 163 OFFCURVE",
"36 337 OFFCURVE",
"29 510 CURVE",
"42 509 OFFCURVE",
"54 509 OFFCURVE",
"67 509 CURVE SMOOTH",
"80 509 OFFCURVE",
"93 509 OFFCURVE",
"106 509 CURVE SMOOTH",
"189 509 OFFCURVE",
"270 509 OFFCURVE",
"346 520 CURVE"
);
},
{
closed = 1;
nodes = (
"419 635 OFFCURVE",
"406 592 OFFCURVE",
"403 547 CURVE",
"258 570 OFFCURVE",
"107 578 OFFCURVE",
"-34 583 CURVE",
"-21 638 OFFCURVE",
"-10 686 OFFCURVE",
"-6 751 CURVE",
"58 735 OFFCURVE",
"135 721 OFFCURVE",
"212 710 CURVE SMOOTH",
"289 698 OFFCURVE",
"369 689 OFFCURVE",
"438 682 CURVE"
);
}
);
width = 401;
}
);
unicode = 00EC;
},
{
glyphname = ograve;
lastChange = "2015-10-17 22:46:10 +0000";
layers = (
{
layerId = "7A0FC40B-77F8-4D14-AD08-D047673E78CB";
name = Regular;
paths = (
{
closed = 1;
nodes = (
"270 -12 OFFCURVE",
"168 2 OFFCURVE",
"96 33 CURVE",
"69 61 OFFCURVE",
"50 93 OFFCURVE",
"36 131 CURVE SMOOTH",
"22 169 OFFCURVE",
"15 214 OFFCURVE",
"15 271 CURVE SMOOTH",
"15 366 OFFCURVE",
"35 428 OFFCURVE",
"70 483 CURVE",
"146 519 OFFCURVE",
"259 537 OFFCURVE",
"409 537 CURVE SMOOTH",
"560 537 OFFCURVE",
"675 517 OFFCURVE",
"751 474 CURVE",
"764 447 OFFCURVE",
"774 420 OFFCURVE",
"781 389 CURVE SMOOTH",
"788 358 OFFCURVE",
"791 323 OFFCURVE",
"791 279 CURVE SMOOTH",
"791 231 OFFCURVE",
"786 193 OFFCURVE",
"778 159 CURVE SMOOTH",
"769 125 OFFCURVE",
"756 95 OFFCURVE",
"740 63 CURVE",
"667 13 OFFCURVE",
"553 -12 OFFCURVE",
"398 -12 CURVE SMOOTH"
);
},
{
closed = 1;
nodes = (
"350 317 OFFCURVE",
"346 287 OFFCURVE",
"346 254 CURVE SMOOTH",
"346 205 OFFCURVE",
"346 174 OFFCURVE",
"357 155 CURVE",
"365 146 OFFCURVE",
"379 142 OFFCURVE",
"399 142 CURVE SMOOTH",
"418 142 OFFCURVE",
"432 146 OFFCURVE",
"441 155 CURVE",
"456 175 OFFCURVE",
"459 215 OFFCURVE",
"459 266 CURVE SMOOTH",
"459 310 OFFCURVE",
"454 340 OFFCURVE",
"444 356 CURVE",
"435 364 OFFCURVE",
"425 364 OFFCURVE",
"410 364 CURVE SMOOTH",
"387 364 OFFCURVE",
"374 360 OFFCURVE",
"361 349 CURVE"
);
},
{
closed = 1;
nodes = (
"620 635 OFFCURVE",
"607 592 OFFCURVE",
"604 547 CURVE",
"459 570 OFFCURVE",
"308 578 OFFCURVE",
"167 583 CURVE",
"180 638 OFFCURVE",
"191 686 OFFCURVE",
"195 751 CURVE",
"259 735 OFFCURVE",
"336 721 OFFCURVE",
"413 710 CURVE SMOOTH",
"490 698 OFFCURVE",
"570 689 OFFCURVE",
"639 682 CURVE"
);
}
);
width = 806;
}
);
unicode = 00F2;
},
{
glyphname = ugrave;
lastChange = "2015-10-17 22:46:10 +0000";
layers = (
{
layerId = "7A0FC40B-77F8-4D14-AD08-D047673E78CB";
name = Regular;
paths = (
{
closed = 1;
nodes = (
"424 540 LINE",
"537 540 OFFCURVE",
"645 540 OFFCURVE",
"749 552 CURVE",
"749 504 OFFCURVE",
"749 457 OFFCURVE",
"749 412 CURVE SMOOTH",
"749 320 OFFCURVE",
"750 231 OFFCURVE",
"754 140 CURVE SMOOTH",
"755 95 OFFCURVE",
"757 48 OFFCURVE",
"760 1 CURVE",
"399 -12 LINE",
"405 48 LINE",
"334 0 OFFCURVE",
"277 -12 OFFCURVE",
"221 -12 CURVE SMOOTH",
"153 -12 OFFCURVE",
"109 5 OFFCURVE",
"64 34 CURVE",
"33 111 OFFCURVE",
"25 186 OFFCURVE",
"25 295 CURVE SMOOTH",
"25 367 OFFCURVE",
"28 449 OFFCURVE",
"35 529 CURVE",
"78 528 OFFCURVE",
"122 527 OFFCURVE",
"165 527 CURVE SMOOTH",
"230 527 OFFCURVE",
"294 530 OFFCURVE",
"362 537 CURVE",
"355 480 OFFCURVE",
"353 426 OFFCURVE",
"353 386 CURVE SMOOTH",
"353 334 OFFCURVE",
"357 290 OFFCURVE",
"364 251 CURVE",
"390 251 OFFCURVE",
"414 261 OFFCURVE",
"437 282 CURVE"
);
},
{
closed = 1;
nodes = (
"557 635 OFFCURVE",
"544 592 OFFCURVE",
"541 547 CURVE",
"396 570 OFFCURVE",
"245 578 OFFCURVE",
"104 583 CURVE",
"117 638 OFFCURVE",
"128 686 OFFCURVE",
"132 751 CURVE",
"196 735 OFFCURVE",
"273 721 OFFCURVE",
"350 710 CURVE SMOOTH",
"427 698 OFFCURVE",
"507 689 OFFCURVE",
"576 682 CURVE"
);
}
);
width = 780;
}
);
unicode = 00F9;
},
{
glyphname = breve;
lastChange = "2015-10-17 22:46:10 +0000";
layers = (
{
layerId = "7A0FC40B-77F8-4D14-AD08-D047673E78CB";
name = Regular;
paths = (
{
closed = 1;
nodes = (
"375 558 OFFCURVE",
"302 547 OFFCURVE",
"225 547 CURVE SMOOTH",
"148 547 OFFCURVE",
"73 558 OFFCURVE",
"4 593 CURVE",
"16 636 OFFCURVE",
"27 675 OFFCURVE",
"32 726 CURVE",
"80 711 OFFCURVE",
"149 701 OFFCURVE",
"225 701 CURVE SMOOTH",
"305 701 OFFCURVE",
"376 724 OFFCURVE",
"428 751 CURVE",
"431 690 OFFCURVE",
"438 644 OFFCURVE",
"446 593 CURVE"
);
}
);
width = 457;
}
);
unicode = 02D8;
},
{
glyphname = caron;
lastChange = "2015-10-17 22:46:10 +0000";
layers = (
{
layerId = "7A0FC40B-77F8-4D14-AD08-D047673E78CB";
name = Regular;
paths = (
{
closed = 1;
nodes = (
"432 588 OFFCURVE",
"344 567 OFFCURVE",
"260 547 CURVE",
"164 568 OFFCURVE",
"84 604 OFFCURVE",
"11 643 CURVE",
"28 676 OFFCURVE",
"41 704 OFFCURVE",
"45 741 CURVE",
"108 729 OFFCURVE",
"190 722 OFFCURVE",
"259 715 CURVE",
"331 723 OFFCURVE",
"415 735 OFFCURVE",
"479 751 CURVE",
"481 724 OFFCURVE",
"485 700 OFFCURVE",
"491 679 CURVE",
"496 658 OFFCURVE",
"502 636 OFFCURVE",
"508 613 CURVE"
);
}
);
width = 519;
}
);
unicode = 02C7;
},
{
glyphname = circumflex;
lastChange = "2015-10-17 22:46:10 +0000";
layers = (
{
layerId = "7A0FC40B-77F8-4D14-AD08-D047673E78CB";
name = Regular;
paths = (
{
closed = 1;
nodes = (
"87 698 OFFCURVE",
"175 724 OFFCURVE",
"259 751 CURVE",
"355 734 OFFCURVE",
"435 706 OFFCURVE",
"508 675 CURVE",
"491 632 OFFCURVE",
"478 596 OFFCURVE",
"474 547 CURVE",
"411 563 OFFCURVE",
"329 575 OFFCURVE",
"260 583 CURVE",
"188 572 OFFCURVE",
"104 558 OFFCURVE",
"40 537 CURVE",
"38 562 OFFCURVE",
"34 584 OFFCURVE",
"29 604 CURVE",
"23 623 OFFCURVE",
"17 644 OFFCURVE",
"11 665 CURVE"
);
}
);
width = 519;
}
);
unicode = 02C6;
},
{
glyphname = abreve;
lastChange = "2015-10-17 22:46:10 +0000";
layers = (
{
layerId = "7A0FC40B-77F8-4D14-AD08-D047673E78CB";
name = Regular;
paths = (
{
closed = 1;
nodes = (
"545 558 OFFCURVE",
"472 547 OFFCURVE",
"395 547 CURVE SMOOTH",
"318 547 OFFCURVE",
"243 558 OFFCURVE",
"174 593 CURVE",
"186 636 OFFCURVE",
"197 675 OFFCURVE",
"202 726 CURVE",
"250 711 OFFCURVE",
"319 701 OFFCURVE",
"395 701 CURVE SMOOTH",
"475 701 OFFCURVE",
"546 724 OFFCURVE",
"598 751 CURVE",
"601 690 OFFCURVE",
"608 644 OFFCURVE",
"616 593 CURVE"
);
},
{
closed = 1;
nodes = (
"110 331 OFFCURVE",
"170 337 OFFCURVE",
"257 337 CURVE SMOOTH",
"316 337 OFFCURVE",
"373 332 OFFCURVE",
"417 324 CURVE",
"417 339 OFFCURVE",
"412 351 OFFCURVE",
"402 361 CURVE",
"367 368 OFFCURVE",
"324 372 OFFCURVE",
"292 372 CURVE SMOOTH",
"244 372 OFFCURVE",
"202 368 OFFCURVE",
"171 365 CURVE SMOOTH",
"154 363 OFFCURVE",
"138 361 OFFCURVE",
"123 359 CURVE",
"116 419 OFFCURVE",
"95 464 OFFCURVE",
"71 509 CURVE",
"115 518 OFFCURVE",
"166 526 OFFCURVE",
"232 532 CURVE SMOOTH",
"265 535 OFFCURVE",
"301 536 OFFCURVE",
"342 536 CURVE SMOOTH",
"467 536 OFFCURVE",
"596 526 OFFCURVE",
"699 481 CURVE",
"727 457 OFFCURVE",
"743 414 OFFCURVE",
"754 364 CURVE SMOOTH",
"765 314 OFFCURVE",
"768 256 OFFCURVE",
"768 200 CURVE SMOOTH",
"768 116 OFFCURVE",
"759 38 OFFCURVE",
"755 3 CURVE",
"638 2 OFFCURVE",
"524 -4 OFFCURVE",
"415 -13 CURVE",
"415 -5 LINE SMOOTH",
"415 -2 OFFCURVE",
"415 1 OFFCURVE",
"415 5 CURVE SMOOTH",
"415 8 OFFCURVE",
"415 12 OFFCURVE",
"416 17 CURVE",
"385 2 OFFCURVE",
"325 -17 OFFCURVE",
"230 -17 CURVE SMOOTH",
"166 -17 OFFCURVE",
"119 -8 OFFCURVE",
"64 11 CURVE",
"25 59 OFFCURVE",
"15 125 OFFCURVE",
"15 184 CURVE SMOOTH",
"15 243 OFFCURVE",
"27 277 OFFCURVE",
"43 310 CURVE"
);
},
{
closed = 1;
nodes = (
"429 212 OFFCURVE",
"415 214 OFFCURVE",
"395 214 CURVE SMOOTH",
"382 214 OFFCURVE",
"362 212 OFFCURVE",
"347 208 CURVE",
"343 201 OFFCURVE",
"341 192 OFFCURVE",
"341 183 CURVE SMOOTH",
"341 171 OFFCURVE",
"342 162 OFFCURVE",
"345 155 CURVE",
"356 150 OFFCURVE",
"372 148 OFFCURVE",
"387 148 CURVE SMOOTH",
"407 148 OFFCURVE",
"421 150 OFFCURVE",
"437 154 CURVE",
"445 173 OFFCURVE",
"446 188 OFFCURVE",
"449 207 CURVE"
);
}
);
width = 790;
}
);
unicode = 0103;
},
{
glyphname = acircumflex;
lastChange = "2015-10-17 22:46:10 +0000";
layers = (
{
layerId = "7A0FC40B-77F8-4D14-AD08-D047673E78CB";
name = Regular;
paths = (
{
closed = 1;
nodes = (
"222 698 OFFCURVE",
"310 724 OFFCURVE",
"394 751 CURVE",
"490 734 OFFCURVE",
"570 706 OFFCURVE",
"643 675 CURVE",
"626 632 OFFCURVE",
"613 596 OFFCURVE",
"609 547 CURVE",
"546 563 OFFCURVE",
"464 575 OFFCURVE",
"395 583 CURVE",
"323 572 OFFCURVE",
"239 558 OFFCURVE",
"175 537 CURVE",
"173 562 OFFCURVE",
"169 584 OFFCURVE",
"164 604 CURVE",
"158 623 OFFCURVE",
"152 644 OFFCURVE",
"146 665 CURVE"
);
},
{
closed = 1;
nodes = (
"110 331 OFFCURVE",
"170 337 OFFCURVE",
"257 337 CURVE SMOOTH",
"316 337 OFFCURVE",
"373 332 OFFCURVE",
"417 324 CURVE",
"417 339 OFFCURVE",
"412 351 OFFCURVE",
"402 361 CURVE",
"367 368 OFFCURVE",
"324 372 OFFCURVE",
"292 372 CURVE SMOOTH",
"244 372 OFFCURVE",
"202 368 OFFCURVE",
"171 365 CURVE SMOOTH",
"154 363 OFFCURVE",
"138 361 OFFCURVE",
"123 359 CURVE",
"116 419 OFFCURVE",
"95 464 OFFCURVE",
"71 509 CURVE",
"115 518 OFFCURVE",
"166 526 OFFCURVE",
"232 532 CURVE SMOOTH",
"265 535 OFFCURVE",
"301 536 OFFCURVE",
"342 536 CURVE SMOOTH",
"467 536 OFFCURVE",
"596 526 OFFCURVE",
"699 481 CURVE",
"727 457 OFFCURVE",
"743 414 OFFCURVE",
"754 364 CURVE SMOOTH",
"765 314 OFFCURVE",
"768 256 OFFCURVE",
"768 200 CURVE SMOOTH",
"768 116 OFFCURVE",
"759 38 OFFCURVE",
"755 3 CURVE",
"638 2 OFFCURVE",
"524 -4 OFFCURVE",
"415 -13 CURVE",
"415 -5 LINE SMOOTH",
"415 -2 OFFCURVE",
"415 1 OFFCURVE",
"415 5 CURVE SMOOTH",
"415 8 OFFCURVE",
"415 12 OFFCURVE",
"416 17 CURVE",
"385 2 OFFCURVE",
"325 -17 OFFCURVE",
"230 -17 CURVE SMOOTH",
"166 -17 OFFCURVE",
"119 -8 OFFCURVE",
"64 11 CURVE",
"25 59 OFFCURVE",
"15 125 OFFCURVE",
"15 184 CURVE SMOOTH",
"15 243 OFFCURVE",
"27 277 OFFCURVE",
"43 310 CURVE"
);
},
{
closed = 1;
nodes = (
"429 212 OFFCURVE",
"415 214 OFFCURVE",
"395 214 CURVE SMOOTH",
"382 214 OFFCURVE",
"362 212 OFFCURVE",
"347 208 CURVE",
"343 201 OFFCURVE",
"341 192 OFFCURVE",
"341 183 CURVE SMOOTH",
"341 171 OFFCURVE",
"342 162 OFFCURVE",
"345 155 CURVE",
"356 150 OFFCURVE",
"372 148 OFFCURVE",
"387 148 CURVE SMOOTH",
"407 148 OFFCURVE",
"421 150 OFFCURVE",
"437 154 CURVE",
"445 173 OFFCURVE",
"446 188 OFFCURVE",
"449 207 CURVE"
);
}
);
width = 790;
}
);
unicode = 00E2;
},
{
glyphname = ccaron;
lastChange = "2015-10-17 22:46:10 +0000";
layers = (
{
layerId = "7A0FC40B-77F8-4D14-AD08-D047673E78CB";
name = Regular;
paths = (
{
closed = 1;
nodes = (
"172 528 OFFCURVE",
"266 541 OFFCURVE",
"375 541 CURVE SMOOTH",
"450 541 OFFCURVE",
"511 533 OFFCURVE",
"586 520 CURVE",
"567 463 OFFCURVE",
"559 398 OFFCURVE",
"559 351 CURVE",
"536 354 OFFCURVE",
"502 356 OFFCURVE",
"478 356 CURVE SMOOTH",
"442 356 OFFCURVE",
"413 353 OFFCURVE",
"370 340 CURVE",
"359 319 OFFCURVE",
"356 288 OFFCURVE",
"356 261 CURVE SMOOTH",
"356 228 OFFCURVE",
"366 202 OFFCURVE",
"381 177 CURVE",
"412 166 OFFCURVE",
"439 162 OFFCURVE",
"466 162 CURVE SMOOTH",
"502 162 OFFCURVE",
"536 165 OFFCURVE",
"561 172 CURVE",
"564 125 OFFCURVE",
"569 64 OFFCURVE",
"588 15 CURVE",
"516 -2 OFFCURVE",
"448 -13 OFFCURVE",
"361 -13 CURVE SMOOTH",
"256 -13 OFFCURVE",
"152 -6 OFFCURVE",
"64 45 CURVE",
"32 101 OFFCURVE",
"15 185 OFFCURVE",
"15 265 CURVE SMOOTH",
"15 348 OFFCURVE",
"29 418 OFFCURVE",
"84 497 CURVE"
);
},
{
closed = 1;
nodes = (
"489 588 OFFCURVE",
"401 567 OFFCURVE",
"317 547 CURVE",
"221 568 OFFCURVE",
"141 604 OFFCURVE",
"68 643 CURVE",
"85 676 OFFCURVE",
"98 704 OFFCURVE",
"102 741 CURVE",
"165 729 OFFCURVE",
"247 722 OFFCURVE",
"316 715 CURVE",
"388 723 OFFCURVE",
"472 735 OFFCURVE",
"536 751 CURVE",
"538 724 OFFCURVE",
"542 700 OFFCURVE",
"548 679 CURVE",
"553 658 OFFCURVE",
"559 636 OFFCURVE",
"565 613 CURVE"
);
}
);
width = 593;
}
);
unicode = 010D;
},
{
glyphname = ebreve;
lastChange = "2015-10-17 22:46:10 +0000";
layers = (
{
layerId = "7A0FC40B-77F8-4D14-AD08-D047673E78CB";
name = Regular;
paths = (
{
closed = 1;
nodes = (
"535 558 OFFCURVE",
"462 547 OFFCURVE",
"385 547 CURVE SMOOTH",
"308 547 OFFCURVE",
"233 558 OFFCURVE",
"164 593 CURVE",
"176 636 OFFCURVE",
"187 675 OFFCURVE",
"192 726 CURVE",
"240 711 OFFCURVE",
"309 701 OFFCURVE",
"385 701 CURVE SMOOTH",
"465 701 OFFCURVE",
"536 724 OFFCURVE",
"588 751 CURVE",
"591 690 OFFCURVE",
"598 644 OFFCURVE",
"606 593 CURVE"
);
},
{
closed = 1;
nodes = (
"416 212 OFFCURVE",
"386 212 OFFCURVE",
"357 216 CURVE",
"361 201 OFFCURVE",
"366 189 OFFCURVE",
"371 177 CURVE",
"426 166 OFFCURVE",
"471 162 OFFCURVE",
"516 162 CURVE SMOOTH",
"588 162 OFFCURVE",
"649 168 OFFCURVE",
"701 177 CURVE",
"704 130 OFFCURVE",
"711 69 OFFCURVE",
"728 20 CURVE",
"640 0 OFFCURVE",
"558 -13 OFFCURVE",
"451 -13 CURVE SMOOTH",
"306 -13 OFFCURVE",
"171 -6 OFFCURVE",
"54 45 CURVE",
"22 105 OFFCURVE",
"5 193 OFFCURVE",
"5 280 CURVE SMOOTH",
"5 357 OFFCURVE",
"17 426 OFFCURVE",
"64 502 CURVE",
"168 530 OFFCURVE",
"276 541 OFFCURVE",
"405 541 CURVE SMOOTH",
"464 541 OFFCURVE",
"514 538 OFFCURVE",
"566 532 CURVE SMOOTH",
"617 526 OFFCURVE",
"667 517 OFFCURVE",
"726 505 CURVE",
"749 466 OFFCURVE",
"755 423 OFFCURVE",
"755 380 CURVE SMOOTH",
"755 325 OFFCURVE",
"745 264 OFFCURVE",
"726 225 CURVE",
"645 214 OFFCURVE",
"546 212 OFFCURVE",
"449 212 CURVE SMOOTH"
);
},
{
closed = 1;
nodes = (
"413 396 OFFCURVE",
"383 393 OFFCURVE",
"340 380 CURVE",
"335 369 OFFCURVE",
"331 356 OFFCURVE",
"329 342 CURVE",
"369 342 OFFCURVE",
"411 343 OFFCURVE",
"459 347 CURVE",
"458 354 OFFCURVE",
"457 362 OFFCURVE",
"456 370 CURVE SMOOTH",
"455 378 OFFCURVE",
"452 387 OFFCURVE",
"449 396 CURVE"
);
}
);
width = 770;
}
);
unicode = 0115;
},
{
glyphname = ecaron;
lastChange = "2015-10-17 22:46:10 +0000";
layers = (
{
layerId = "7A0FC40B-77F8-4D14-AD08-D047673E78CB";
name = Regular;
paths = (
{
closed = 1;
nodes = (
"557 588 OFFCURVE",
"469 567 OFFCURVE",
"385 547 CURVE",
"289 568 OFFCURVE",
"209 604 OFFCURVE",
"136 643 CURVE",
"153 676 OFFCURVE",
"166 704 OFFCURVE",
"170 741 CURVE",
"233 729 OFFCURVE",
"315 722 OFFCURVE",
"384 715 CURVE",
"456 723 OFFCURVE",
"540 735 OFFCURVE",
"604 751 CURVE",
"606 724 OFFCURVE",
"610 700 OFFCURVE",
"616 679 CURVE",
"621 658 OFFCURVE",
"627 636 OFFCURVE",
"633 613 CURVE"
);
},
{
closed = 1;
nodes = (
"416 212 OFFCURVE",
"386 212 OFFCURVE",
"357 216 CURVE",
"361 201 OFFCURVE",
"366 189 OFFCURVE",
"371 177 CURVE",
"426 166 OFFCURVE",
"471 162 OFFCURVE",
"516 162 CURVE SMOOTH",
"588 162 OFFCURVE",
"649 168 OFFCURVE",
"701 177 CURVE",
"704 130 OFFCURVE",
"711 69 OFFCURVE",
"728 20 CURVE",
"640 0 OFFCURVE",
"558 -13 OFFCURVE",
"451 -13 CURVE SMOOTH",
"306 -13 OFFCURVE",
"171 -6 OFFCURVE",
"54 45 CURVE",
"22 105 OFFCURVE",
"5 193 OFFCURVE",
"5 280 CURVE SMOOTH",
"5 357 OFFCURVE",
"17 426 OFFCURVE",
"64 502 CURVE",
"168 530 OFFCURVE",
"276 541 OFFCURVE",
"405 541 CURVE SMOOTH",
"464 541 OFFCURVE",
"514 538 OFFCURVE",
"566 532 CURVE SMOOTH",
"617 526 OFFCURVE",
"667 517 OFFCURVE",
"726 505 CURVE",
"749 466 OFFCURVE",
"755 423 OFFCURVE",
"755 380 CURVE SMOOTH",
"755 325 OFFCURVE",
"745 264 OFFCURVE",
"726 225 CURVE",
"645 214 OFFCURVE",
"546 212 OFFCURVE",
"449 212 CURVE SMOOTH"
);
},
{
closed = 1;
nodes = (
"413 396 OFFCURVE",
"383 393 OFFCURVE",
"340 380 CURVE",
"335 369 OFFCURVE",
"331 356 OFFCURVE",
"329 342 CURVE",
"369 342 OFFCURVE",
"411 343 OFFCURVE",
"459 347 CURVE",
"458 354 OFFCURVE",
"457 362 OFFCURVE",
"456 370 CURVE SMOOTH",
"455 378 OFFCURVE",
"452 387 OFFCURVE",
"449 396 CURVE"
);
}
);
width = 770;
}
);
unicode = 011B;
},
{
glyphname = ecircumflex;
lastChange = "2015-10-17 22:46:10 +0000";
layers = (
{
layerId = "7A0FC40B-77F8-4D14-AD08-D047673E78CB";
name = Regular;
paths = (
{
closed = 1;
nodes = (
"212 698 OFFCURVE",
"300 724 OFFCURVE",
"384 751 CURVE",
"480 734 OFFCURVE",
"560 706 OFFCURVE",
"633 675 CURVE",
"616 632 OFFCURVE",
"603 596 OFFCURVE",
"599 547 CURVE",
"536 563 OFFCURVE",
"454 575 OFFCURVE",
"385 583 CURVE",
"313 572 OFFCURVE",
"229 558 OFFCURVE",
"165 537 CURVE",
"163 562 OFFCURVE",
"159 584 OFFCURVE",
"154 604 CURVE",
"148 623 OFFCURVE",
"142 644 OFFCURVE",
"136 665 CURVE"
);
},
{
closed = 1;
nodes = (
"416 212 OFFCURVE",
"386 212 OFFCURVE",
"357 216 CURVE",
"361 201 OFFCURVE",
"366 189 OFFCURVE",
"371 177 CURVE",
"426 166 OFFCURVE",
"471 162 OFFCURVE",
"516 162 CURVE SMOOTH",
"588 162 OFFCURVE",
"649 168 OFFCURVE",
"701 177 CURVE",
"704 130 OFFCURVE",
"711 69 OFFCURVE",
"728 20 CURVE",
"640 0 OFFCURVE",
"558 -13 OFFCURVE",
"451 -13 CURVE SMOOTH",
"306 -13 OFFCURVE",
"171 -6 OFFCURVE",
"54 45 CURVE",
"22 105 OFFCURVE",
"5 193 OFFCURVE",
"5 280 CURVE SMOOTH",
"5 357 OFFCURVE",
"17 426 OFFCURVE",
"64 502 CURVE",
"168 530 OFFCURVE",
"276 541 OFFCURVE",
"405 541 CURVE SMOOTH",
"464 541 OFFCURVE",
"514 538 OFFCURVE",
"566 532 CURVE SMOOTH",
"617 526 OFFCURVE",
"667 517 OFFCURVE",
"726 505 CURVE",
"749 466 OFFCURVE",
"755 423 OFFCURVE",
"755 380 CURVE SMOOTH",
"755 325 OFFCURVE",
"745 264 OFFCURVE",
"726 225 CURVE",
"645 214 OFFCURVE",
"546 212 OFFCURVE",
"449 212 CURVE SMOOTH"
);
},
{
closed = 1;
nodes = (
"413 396 OFFCURVE",
"383 393 OFFCURVE",
"340 380 CURVE",
"335 369 OFFCURVE",
"331 356 OFFCURVE",
"329 342 CURVE",
"369 342 OFFCURVE",
"411 343 OFFCURVE",
"459 347 CURVE",
"458 354 OFFCURVE",
"457 362 OFFCURVE",
"456 370 CURVE SMOOTH",
"455 378 OFFCURVE",
"452 387 OFFCURVE",
"449 396 CURVE"
);
}
);
width = 770;
}
);
unicode = 00EA;
},
{
glyphname = c.peq;
lastChange = "2015-10-17 22:46:10 +0000";
layers = (
{
layerId = "7A0FC40B-77F8-4D14-AD08-D047673E78CB";
name = Regular;
paths = (
{
closed = 1;
nodes = (
"172 528 OFFCURVE",
"266 541 OFFCURVE",
"375 541 CURVE SMOOTH",
"450 541 OFFCURVE",
"511 533 OFFCURVE",
"586 520 CURVE",
"567 463 OFFCURVE",
"559 398 OFFCURVE",
"559 351 CURVE",
"536 354 OFFCURVE",
"502 356 OFFCURVE",
"478 356 CURVE SMOOTH",
"442 356 OFFCURVE",
"413 353 OFFCURVE",
"370 340 CURVE",
"359 319 OFFCURVE",
"356 288 OFFCURVE",
"356 261 CURVE SMOOTH",
"356 228 OFFCURVE",
"366 202 OFFCURVE",
"381 177 CURVE",
"412 166 OFFCURVE",
"439 162 OFFCURVE",
"466 162 CURVE SMOOTH",
"502 162 OFFCURVE",
"536 165 OFFCURVE",
"561 172 CURVE",
"564 125 OFFCURVE",
"569 64 OFFCURVE",
"588 15 CURVE",
"516 -2 OFFCURVE",
"448 -13 OFFCURVE",
"361 -13 CURVE SMOOTH",
"256 -13 OFFCURVE",
"152 -6 OFFCURVE",
"64 45 CURVE",
"32 101 OFFCURVE",
"15 185 OFFCURVE",
"15 265 CURVE SMOOTH",
"15 348 OFFCURVE",
"29 418 OFFCURVE",
"84 497 CURVE"
);
}
);
width = 593;
}
);
},
{
glyphname = cacute;
lastChange = "2015-10-17 22:46:10 +0000";
layers = (
{
layerId = "7A0FC40B-77F8-4D14-AD08-D047673E78CB";
name = Regular;
paths = (
{
closed = 1;
nodes = (
"159 689 OFFCURVE",
"239 698 OFFCURVE",
"316 710 CURVE SMOOTH",
"393 721 OFFCURVE",
"470 735 OFFCURVE",
"534 751 CURVE",
"538 686 OFFCURVE",
"549 638 OFFCURVE",
"562 583 CURVE",
"421 578 OFFCURVE",
"270 570 OFFCURVE",
"125 547 CURVE",
"122 592 OFFCURVE",
"109 635 OFFCURVE",
"90 682 CURVE"
);
},
{
closed = 1;
nodes = (
"172 528 OFFCURVE",
"266 541 OFFCURVE",
"375 541 CURVE SMOOTH",
"450 541 OFFCURVE",
"511 533 OFFCURVE",
"586 520 CURVE",
"567 463 OFFCURVE",
"559 398 OFFCURVE",
"559 351 CURVE",
"536 354 OFFCURVE",
"502 356 OFFCURVE",
"478 356 CURVE SMOOTH",
"442 356 OFFCURVE",
"413 353 OFFCURVE",
"370 340 CURVE",
"359 319 OFFCURVE",
"356 288 OFFCURVE",
"356 261 CURVE SMOOTH",
"356 228 OFFCURVE",
"366 202 OFFCURVE",
"381 177 CURVE",
"412 166 OFFCURVE",
"439 162 OFFCURVE",
"466 162 CURVE SMOOTH",
"502 162 OFFCURVE",
"536 165 OFFCURVE",
"561 172 CURVE",
"564 125 OFFCURVE",
"569 64 OFFCURVE",
"588 15 CURVE",
"516 -2 OFFCURVE",
"448 -13 OFFCURVE",
"361 -13 CURVE SMOOTH",
"256 -13 OFFCURVE",
"152 -6 OFFCURVE",
"64 45 CURVE",
"32 101 OFFCURVE",
"15 185 OFFCURVE",
"15 265 CURVE SMOOTH",
"15 348 OFFCURVE",
"29 418 OFFCURVE",
"84 497 CURVE"
);
}
);
width = 593;
}
);
unicode = 0107;
},
{
glyphname = ccircumflex;
lastChange = "2015-10-17 22:46:10 +0000";
layers = (
{
layerId = "7A0FC40B-77F8-4D14-AD08-D047673E78CB";
name = Regular;
paths = (
{
closed = 1;
nodes = (
"154 698 OFFCURVE",
"242 724 OFFCURVE",
"326 751 CURVE",
"422 734 OFFCURVE",
"502 706 OFFCURVE",
"575 675 CURVE",
"558 632 OFFCURVE",
"545 596 OFFCURVE",
"541 547 CURVE",
"478 563 OFFCURVE",
"396 575 OFFCURVE",
"327 583 CURVE",
"255 572 OFFCURVE",
"171 558 OFFCURVE",
"107 537 CURVE",
"105 562 OFFCURVE",
"101 584 OFFCURVE",
"96 604 CURVE",
"90 623 OFFCURVE",
"84 644 OFFCURVE",
"78 665 CURVE"
);
},
{
closed = 1;
nodes = (
"172 528 OFFCURVE",
"266 541 OFFCURVE",
"375 541 CURVE SMOOTH",
"450 541 OFFCURVE",
"511 533 OFFCURVE",
"586 520 CURVE",
"567 463 OFFCURVE",
"559 398 OFFCURVE",
"559 351 CURVE",
"536 354 OFFCURVE",
"502 356 OFFCURVE",
"478 356 CURVE SMOOTH",
"442 356 OFFCURVE",
"413 353 OFFCURVE",
"370 340 CURVE",
"359 319 OFFCURVE",
"356 288 OFFCURVE",
"356 261 CURVE SMOOTH",
"356 228 OFFCURVE",
"366 202 OFFCURVE",
"381 177 CURVE",
"412 166 OFFCURVE",
"439 162 OFFCURVE",
"466 162 CURVE SMOOTH",
"502 162 OFFCURVE",
"536 165 OFFCURVE",
"561 172 CURVE",
"564 125 OFFCURVE",
"569 64 OFFCURVE",
"588 15 CURVE",
"516 -2 OFFCURVE",
"448 -13 OFFCURVE",
"361 -13 CURVE SMOOTH",
"256 -13 OFFCURVE",
"152 -6 OFFCURVE",
"64 45 CURVE",
"32 101 OFFCURVE",
"15 185 OFFCURVE",
"15 265 CURVE SMOOTH",
"15 348 OFFCURVE",
"29 418 OFFCURVE",
"84 497 CURVE"
);
}
);
width = 593;
}
);
unicode = 0109;
},
{
glyphname = cdotaccent;
lastChange = "2015-10-17 22:46:10 +0000";
layers = (
{
layerId = "7A0FC40B-77F8-4D14-AD08-D047673E78CB";
name = Regular;
paths = (
{
closed = 1;
nodes = (
"432 549 LINE",
"383 555 OFFCURVE",
"336 558 OFFCURVE",
"293 558 CURVE SMOOTH",
"249 558 OFFCURVE",
"208 556 OFFCURVE",
"168 553 CURVE",
"169 560 OFFCURVE",
"169 567 OFFCURVE",
"169 574 CURVE SMOOTH",
"169 580 OFFCURVE",
"169 586 OFFCURVE",
"169 592 CURVE SMOOTH",
"169 644 OFFCURVE",
"165 687 OFFCURVE",
"156 739 CURVE",
"477 752 LINE"
);
},
{
closed = 1;
nodes = (
"172 528 OFFCURVE",
"266 541 OFFCURVE",
"375 541 CURVE SMOOTH",
"450 541 OFFCURVE",
"511 533 OFFCURVE",
"586 520 CURVE",
"567 463 OFFCURVE",
"559 398 OFFCURVE",
"559 351 CURVE",
"536 354 OFFCURVE",
"502 356 OFFCURVE",
"478 356 CURVE SMOOTH",
"442 356 OFFCURVE",
"413 353 OFFCURVE",
"370 340 CURVE",
"359 319 OFFCURVE",
"356 288 OFFCURVE",
"356 261 CURVE SMOOTH",
"356 228 OFFCURVE",
"366 202 OFFCURVE",
"381 177 CURVE",
"412 166 OFFCURVE",
"439 162 OFFCURVE",
"466 162 CURVE SMOOTH",
"502 162 OFFCURVE",
"536 165 OFFCURVE",
"561 172 CURVE",
"564 125 OFFCURVE",
"569 64 OFFCURVE",
"588 15 CURVE",
"516 -2 OFFCURVE",
"448 -13 OFFCURVE",
"361 -13 CURVE SMOOTH",
"256 -13 OFFCURVE",
"152 -6 OFFCURVE",
"64 45 CURVE",
"32 101 OFFCURVE",
"15 185 OFFCURVE",
"15 265 CURVE SMOOTH",
"15 348 OFFCURVE",
"29 418 OFFCURVE",
"84 497 CURVE"
);
}
);
width = 593;
}
);
unicode = 010B;
},
{
glyphname = dieresis;
lastChange = "2015-10-17 22:46:10 +0000";
layers = (
{
layerId = "7A0FC40B-77F8-4D14-AD08-D047673E78CB";
name = Regular;
paths = (
{
closed = 1;
nodes = (
"243 718 LINE",
"315 721 OFFCURVE",
"384 723 OFFCURVE",
"444 726 CURVE",
"439 665 OFFCURVE",
"435 619 OFFCURVE",
"432 568 CURVE",
"402 569 OFFCURVE",
"373 571 OFFCURVE",
"344 572 CURVE SMOOTH",
"315 573 OFFCURVE",
"285 574 OFFCURVE",
"254 575 CURVE"
);
},
{
closed = 1;
nodes = (
"204 575 LINE",
"15 575 LINE",
"15 620 OFFCURVE",
"9 665 OFFCURVE",
"0 712 CURVE",
"60 713 OFFCURVE",
"125 715 OFFCURVE",
"193 718 CURVE"
);
}
);
width = 457;
}
);
unicode = 00A8;
},
{
glyphname = macron;
lastChange = "2015-10-17 22:46:10 +0000";
layers = (
{
layerId = "7A0FC40B-77F8-4D14-AD08-D047673E78CB";
name = Regular;
paths = (
{
closed = 1;
nodes = (
"69 713 OFFCURVE",
"149 715 OFFCURVE",
"226 718 CURVE SMOOTH",
"303 721 OFFCURVE",
"380 723 OFFCURVE",
"444 726 CURVE",
"439 665 OFFCURVE",
"435 619 OFFCURVE",
"432 568 CURVE",
"296 575 OFFCURVE",
"155 576 OFFCURVE",
"15 577 CURVE",
"14 622 OFFCURVE",
"8 665 OFFCURVE",
"0 712 CURVE"
);
}
);
width = 457;
}
);
unicode = 00AF;
},
{
glyphname = amacron;
lastChange = "2015-10-17 22:46:10 +0000";
layers = (
{
layerId = "7A0FC40B-77F8-4D14-AD08-D047673E78CB";
name = Regular;
paths = (
{
closed = 1;
nodes = (
"110 331 OFFCURVE",
"170 337 OFFCURVE",
"257 337 CURVE SMOOTH",
"316 337 OFFCURVE",
"373 332 OFFCURVE",
"417 324 CURVE",
"417 339 OFFCURVE",
"412 351 OFFCURVE",
"402 361 CURVE",
"367 368 OFFCURVE",
"324 372 OFFCURVE",
"292 372 CURVE SMOOTH",
"244 372 OFFCURVE",
"202 368 OFFCURVE",
"171 365 CURVE SMOOTH",
"154 363 OFFCURVE",
"138 361 OFFCURVE",
"123 359 CURVE",
"116 419 OFFCURVE",
"95 464 OFFCURVE",
"71 509 CURVE",
"115 518 OFFCURVE",
"166 526 OFFCURVE",
"232 532 CURVE SMOOTH",
"265 535 OFFCURVE",
"301 536 OFFCURVE",
"342 536 CURVE SMOOTH",
"467 536 OFFCURVE",
"596 526 OFFCURVE",
"699 481 CURVE",
"727 457 OFFCURVE",
"743 414 OFFCURVE",
"754 364 CURVE SMOOTH",
"765 314 OFFCURVE",
"768 256 OFFCURVE",
"768 200 CURVE SMOOTH",
"768 116 OFFCURVE",
"759 38 OFFCURVE",
"755 3 CURVE",
"638 2 OFFCURVE",
"524 -4 OFFCURVE",
"415 -13 CURVE",
"415 -5 LINE SMOOTH",
"415 -2 OFFCURVE",
"415 1 OFFCURVE",
"415 5 CURVE SMOOTH",
"415 8 OFFCURVE",
"415 12 OFFCURVE",
"416 17 CURVE",
"385 2 OFFCURVE",
"325 -17 OFFCURVE",
"230 -17 CURVE SMOOTH",
"166 -17 OFFCURVE",
"119 -8 OFFCURVE",
"64 11 CURVE",
"25 59 OFFCURVE",
"15 125 OFFCURVE",
"15 184 CURVE SMOOTH",
"15 243 OFFCURVE",
"27 277 OFFCURVE",
"43 310 CURVE"
);
},
{
closed = 1;
nodes = (
"429 212 OFFCURVE",
"415 214 OFFCURVE",
"395 214 CURVE SMOOTH",
"382 214 OFFCURVE",
"362 212 OFFCURVE",
"347 208 CURVE",
"343 201 OFFCURVE",
"341 192 OFFCURVE",
"341 183 CURVE SMOOTH",
"341 171 OFFCURVE",
"342 162 OFFCURVE",
"345 155 CURVE",
"356 150 OFFCURVE",
"372 148 OFFCURVE",
"387 148 CURVE SMOOTH",
"407 148 OFFCURVE",
"421 150 OFFCURVE",
"437 154 CURVE",
"445 173 OFFCURVE",
"446 188 OFFCURVE",
"449 207 CURVE"
);
},
{
closed = 1;
nodes = (
"242 713 OFFCURVE",
"322 715 OFFCURVE",
"399 718 CURVE SMOOTH",
"476 721 OFFCURVE",
"553 723 OFFCURVE",
"617 726 CURVE",
"612 665 OFFCURVE",
"608 619 OFFCURVE",
"605 568 CURVE",
"469 575 OFFCURVE",
"328 576 OFFCURVE",
"188 577 CURVE",
"187 622 OFFCURVE",
"181 665 OFFCURVE",
"173 712 CURVE"
);
}
);
width = 790;
}
);
unicode = 0101;
},
{
glyphname = emacron;
lastChange = "2015-10-17 22:46:10 +0000";
layers = (
{
layerId = "7A0FC40B-77F8-4D14-AD08-D047673E78CB";
name = Regular;
paths = (
{
closed = 1;
nodes = (
"416 212 OFFCURVE",
"386 212 OFFCURVE",
"357 216 CURVE",
"361 201 OFFCURVE",
"366 189 OFFCURVE",
"371 177 CURVE",
"426 166 OFFCURVE",
"471 162 OFFCURVE",
"516 162 CURVE SMOOTH",
"588 162 OFFCURVE",
"649 168 OFFCURVE",
"701 177 CURVE",
"704 130 OFFCURVE",
"711 69 OFFCURVE",
"728 20 CURVE",
"640 0 OFFCURVE",
"558 -13 OFFCURVE",
"451 -13 CURVE SMOOTH",
"306 -13 OFFCURVE",
"171 -6 OFFCURVE",
"54 45 CURVE",
"22 105 OFFCURVE",
"5 193 OFFCURVE",
"5 280 CURVE SMOOTH",
"5 357 OFFCURVE",
"17 426 OFFCURVE",
"64 502 CURVE",
"168 530 OFFCURVE",
"276 541 OFFCURVE",
"405 541 CURVE SMOOTH",
"464 541 OFFCURVE",
"514 538 OFFCURVE",
"566 532 CURVE SMOOTH",
"617 526 OFFCURVE",
"667 517 OFFCURVE",
"726 505 CURVE",
"749 466 OFFCURVE",
"755 423 OFFCURVE",
"755 380 CURVE SMOOTH",
"755 325 OFFCURVE",
"745 264 OFFCURVE",
"726 225 CURVE",
"645 214 OFFCURVE",
"546 212 OFFCURVE",
"449 212 CURVE SMOOTH"
);
},
{
closed = 1;
nodes = (
"413 396 OFFCURVE",
"383 393 OFFCURVE",
"340 380 CURVE",
"335 369 OFFCURVE",
"331 356 OFFCURVE",
"329 342 CURVE",
"369 342 OFFCURVE",
"411 343 OFFCURVE",
"459 347 CURVE",
"458 354 OFFCURVE",
"457 362 OFFCURVE",
"456 370 CURVE SMOOTH",
"455 378 OFFCURVE",
"452 387 OFFCURVE",
"449 396 CURVE"
);
},
{
closed = 1;
nodes = (
"232 713 OFFCURVE",
"312 715 OFFCURVE",
"389 718 CURVE SMOOTH",
"466 721 OFFCURVE",
"543 723 OFFCURVE",
"607 726 CURVE",
"602 665 OFFCURVE",
"598 619 OFFCURVE",
"595 568 CURVE",
"459 575 OFFCURVE",
"318 576 OFFCURVE",
"178 577 CURVE",
"177 622 OFFCURVE",
"171 665 OFFCURVE",
"163 712 CURVE"
);
}
);
width = 770;
}
);
unicode = 0113;
},
{
glyphname = imacron;
lastChange = "2015-10-17 22:46:10 +0000";
layers = (
{
layerId = "7A0FC40B-77F8-4D14-AD08-D047673E78CB";
name = Regular;
paths = (
{
closed = 1;
nodes = (
"356 0 LINE",
"249 -1 OFFCURVE",
"135 -3 OFFCURVE",
"36 -12 CURVE",
"36 163 OFFCURVE",
"36 337 OFFCURVE",
"29 510 CURVE",
"42 509 OFFCURVE",
"54 509 OFFCURVE",
"67 509 CURVE SMOOTH",
"80 509 OFFCURVE",
"93 509 OFFCURVE",
"106 509 CURVE SMOOTH",
"189 509 OFFCURVE",
"270 509 OFFCURVE",
"346 520 CURVE"
);
},
{
closed = 1;
nodes = (
"49 713 OFFCURVE",
"129 715 OFFCURVE",
"206 718 CURVE SMOOTH",
"283 721 OFFCURVE",
"360 723 OFFCURVE",
"424 726 CURVE",
"419 665 OFFCURVE",
"415 619 OFFCURVE",
"412 568 CURVE",
"276 575 OFFCURVE",
"135 576 OFFCURVE",
"-5 577 CURVE",
"-6 622 OFFCURVE",
"-12 665 OFFCURVE",
"-20 712 CURVE"
);
}
);
width = 401;
}
);
unicode = 012B;
},
{
glyphname = omacron;
lastChange = "2015-10-17 22:46:10 +0000";
layers = (
{
layerId = "7A0FC40B-77F8-4D14-AD08-D047673E78CB";
name = Regular;
paths = (
{
closed = 1;
nodes = (
"270 -12 OFFCURVE",
"168 2 OFFCURVE",
"96 33 CURVE",
"69 61 OFFCURVE",
"50 93 OFFCURVE",
"36 131 CURVE SMOOTH",
"22 169 OFFCURVE",
"15 214 OFFCURVE",
"15 271 CURVE SMOOTH",
"15 366 OFFCURVE",
"35 428 OFFCURVE",
"70 483 CURVE",
"146 519 OFFCURVE",
"259 537 OFFCURVE",
"409 537 CURVE SMOOTH",
"560 537 OFFCURVE",
"675 517 OFFCURVE",
"751 474 CURVE",
"764 447 OFFCURVE",
"774 420 OFFCURVE",
"781 389 CURVE SMOOTH",
"788 358 OFFCURVE",
"791 323 OFFCURVE",
"791 279 CURVE SMOOTH",
"791 231 OFFCURVE",
"786 193 OFFCURVE",
"778 159 CURVE SMOOTH",
"769 125 OFFCURVE",
"756 95 OFFCURVE",
"740 63 CURVE",
"667 13 OFFCURVE",
"553 -12 OFFCURVE",
"398 -12 CURVE SMOOTH"
);
},
{
closed = 1;
nodes = (
"350 317 OFFCURVE",
"346 287 OFFCURVE",
"346 254 CURVE SMOOTH",
"346 205 OFFCURVE",
"346 174 OFFCURVE",
"357 155 CURVE",
"365 146 OFFCURVE",
"379 142 OFFCURVE",
"399 142 CURVE SMOOTH",
"418 142 OFFCURVE",
"432 146 OFFCURVE",
"441 155 CURVE",
"456 175 OFFCURVE",
"459 215 OFFCURVE",
"459 266 CURVE SMOOTH",
"459 310 OFFCURVE",
"454 340 OFFCURVE",
"444 356 CURVE",
"435 364 OFFCURVE",
"425 364 OFFCURVE",
"410 364 CURVE SMOOTH",
"387 364 OFFCURVE",
"374 360 OFFCURVE",
"361 349 CURVE"
);
},
{
closed = 1;
nodes = (
"250 713 OFFCURVE",
"330 715 OFFCURVE",
"407 718 CURVE SMOOTH",
"484 721 OFFCURVE",
"561 723 OFFCURVE",
"625 726 CURVE",
"620 665 OFFCURVE",
"616 619 OFFCURVE",
"613 568 CURVE",
"477 575 OFFCURVE",
"336 576 OFFCURVE",
"196 577 CURVE",
"195 622 OFFCURVE",
"189 665 OFFCURVE",
"181 712 CURVE"
);
}
);
width = 806;
}
);
unicode = 014D;
},
{
glyphname = edieresis;
lastChange = "2015-10-17 22:46:10 +0000";
layers = (
{
layerId = "7A0FC40B-77F8-4D14-AD08-D047673E78CB";
name = Regular;
paths = (
{
closed = 1;
nodes = (
"416 212 OFFCURVE",
"386 212 OFFCURVE",
"357 216 CURVE",
"361 201 OFFCURVE",
"366 189 OFFCURVE",
"371 177 CURVE",
"426 166 OFFCURVE",
"471 162 OFFCURVE",
"516 162 CURVE SMOOTH",
"588 162 OFFCURVE",
"649 168 OFFCURVE",
"701 177 CURVE",
"704 130 OFFCURVE",
"711 69 OFFCURVE",
"728 20 CURVE",
"640 0 OFFCURVE",
"558 -13 OFFCURVE",
"451 -13 CURVE SMOOTH",
"306 -13 OFFCURVE",
"171 -6 OFFCURVE",
"54 45 CURVE",
"22 105 OFFCURVE",
"5 193 OFFCURVE",
"5 280 CURVE SMOOTH",
"5 357 OFFCURVE",
"17 426 OFFCURVE",
"64 502 CURVE",
"168 530 OFFCURVE",
"276 541 OFFCURVE",
"405 541 CURVE SMOOTH",
"464 541 OFFCURVE",
"514 538 OFFCURVE",
"566 532 CURVE SMOOTH",
"617 526 OFFCURVE",
"667 517 OFFCURVE",
"726 505 CURVE",
"749 466 OFFCURVE",
"755 423 OFFCURVE",
"755 380 CURVE SMOOTH",
"755 325 OFFCURVE",
"745 264 OFFCURVE",
"726 225 CURVE",
"645 214 OFFCURVE",
"546 212 OFFCURVE",
"449 212 CURVE SMOOTH"
);
},
{
closed = 1;
nodes = (
"413 396 OFFCURVE",
"383 393 OFFCURVE",
"340 380 CURVE",
"335 369 OFFCURVE",
"331 356 OFFCURVE",
"329 342 CURVE",
"369 342 OFFCURVE",
"411 343 OFFCURVE",
"459 347 CURVE",
"458 354 OFFCURVE",
"457 362 OFFCURVE",
"456 370 CURVE SMOOTH",
"455 378 OFFCURVE",
"452 387 OFFCURVE",
"449 396 CURVE"
);
},
{
closed = 1;
nodes = (
"406 718 LINE",
"478 721 OFFCURVE",
"547 723 OFFCURVE",
"607 726 CURVE",
"602 665 OFFCURVE",
"598 619 OFFCURVE",
"595 568 CURVE",
"565 569 OFFCURVE",
"536 571 OFFCURVE",
"507 572 CURVE SMOOTH",
"478 573 OFFCURVE",
"448 574 OFFCURVE",
"417 575 CURVE"
);
},
{
closed = 1;
nodes = (
"367 575 LINE",
"178 575 LINE",
"178 620 OFFCURVE",
"172 665 OFFCURVE",
"163 712 CURVE",
"223 713 OFFCURVE",
"288 715 OFFCURVE",
"356 718 CURVE"
);
}
);
width = 770;
}
);
unicode = 00EB;
},
{
glyphname = adieresis;
lastChange = "2015-10-17 22:46:10 +0000";
layers = (
{
layerId = "7A0FC40B-77F8-4D14-AD08-D047673E78CB";
name = Regular;
paths = (
{
closed = 1;
nodes = (
"110 331 OFFCURVE",
"170 337 OFFCURVE",
"257 337 CURVE SMOOTH",
"316 337 OFFCURVE",
"373 332 OFFCURVE",
"417 324 CURVE",
"417 339 OFFCURVE",
"412 351 OFFCURVE",
"402 361 CURVE",
"367 368 OFFCURVE",
"324 372 OFFCURVE",
"292 372 CURVE SMOOTH",
"244 372 OFFCURVE",
"202 368 OFFCURVE",
"171 365 CURVE SMOOTH",
"154 363 OFFCURVE",
"138 361 OFFCURVE",
"123 359 CURVE",
"116 419 OFFCURVE",
"95 464 OFFCURVE",
"71 509 CURVE",
"115 518 OFFCURVE",
"166 526 OFFCURVE",
"232 532 CURVE SMOOTH",
"265 535 OFFCURVE",
"301 536 OFFCURVE",
"342 536 CURVE SMOOTH",
"467 536 OFFCURVE",
"596 526 OFFCURVE",
"699 481 CURVE",
"727 457 OFFCURVE",
"743 414 OFFCURVE",
"754 364 CURVE SMOOTH",
"765 314 OFFCURVE",
"768 256 OFFCURVE",
"768 200 CURVE SMOOTH",
"768 116 OFFCURVE",
"759 38 OFFCURVE",
"755 3 CURVE",
"638 2 OFFCURVE",
"524 -4 OFFCURVE",
"415 -13 CURVE",
"415 -5 LINE SMOOTH",
"415 -2 OFFCURVE",
"415 1 OFFCURVE",
"415 5 CURVE SMOOTH",
"415 8 OFFCURVE",
"415 12 OFFCURVE",
"416 17 CURVE",
"385 2 OFFCURVE",
"325 -17 OFFCURVE",
"230 -17 CURVE SMOOTH",
"166 -17 OFFCURVE",
"119 -8 OFFCURVE",
"64 11 CURVE",
"25 59 OFFCURVE",
"15 125 OFFCURVE",
"15 184 CURVE SMOOTH",
"15 243 OFFCURVE",
"27 277 OFFCURVE",
"43 310 CURVE"
);
},
{
closed = 1;
nodes = (
"429 212 OFFCURVE",
"415 214 OFFCURVE",
"395 214 CURVE SMOOTH",
"382 214 OFFCURVE",
"362 212 OFFCURVE",
"347 208 CURVE",
"343 201 OFFCURVE",
"341 192 OFFCURVE",
"341 183 CURVE SMOOTH",
"341 171 OFFCURVE",
"342 162 OFFCURVE",
"345 155 CURVE",
"356 150 OFFCURVE",
"372 148 OFFCURVE",
"387 148 CURVE SMOOTH",
"407 148 OFFCURVE",
"421 150 OFFCURVE",
"437 154 CURVE",
"445 173 OFFCURVE",
"446 188 OFFCURVE",
"449 207 CURVE"
);
},
{
closed = 1;
nodes = (
"416 718 LINE",
"488 721 OFFCURVE",
"557 723 OFFCURVE",
"617 726 CURVE",
"612 665 OFFCURVE",
"608 619 OFFCURVE",
"605 568 CURVE",
"575 569 OFFCURVE",
"546 571 OFFCURVE",
"517 572 CURVE SMOOTH",
"488 573 OFFCURVE",
"458 574 OFFCURVE",
"427 575 CURVE"
);
},
{
closed = 1;
nodes = (
"377 575 LINE",
"188 575 LINE",
"188 620 OFFCURVE",
"182 665 OFFCURVE",
"173 712 CURVE",
"233 713 OFFCURVE",
"298 715 OFFCURVE",
"366 718 CURVE"
);
}
);
width = 790;
}
);
unicode = 00E4;
},
{
glyphname = idieresis;
lastChange = "2015-10-17 22:46:10 +0000";
layers = (
{
layerId = "7A0FC40B-77F8-4D14-AD08-D047673E78CB";
name = Regular;
paths = (
{
closed = 1;
nodes = (
"356 0 LINE",
"249 -1 OFFCURVE",
"135 -3 OFFCURVE",
"36 -12 CURVE",
"36 163 OFFCURVE",
"36 337 OFFCURVE",
"29 510 CURVE",
"42 509 OFFCURVE",
"54 509 OFFCURVE",
"67 509 CURVE SMOOTH",
"80 509 OFFCURVE",
"93 509 OFFCURVE",
"106 509 CURVE SMOOTH",
"189 509 OFFCURVE",
"270 509 OFFCURVE",
"346 520 CURVE"
);
},
{
closed = 1;
nodes = (
"223 718 LINE",
"295 721 OFFCURVE",
"364 723 OFFCURVE",
"424 726 CURVE",
"419 665 OFFCURVE",
"415 619 OFFCURVE",
"412 568 CURVE",
"382 569 OFFCURVE",
"353 571 OFFCURVE",
"324 572 CURVE SMOOTH",
"295 573 OFFCURVE",
"265 574 OFFCURVE",
"234 575 CURVE"
);
},
{
closed = 1;
nodes = (
"184 575 LINE",
"-5 575 LINE",
"-5 620 OFFCURVE",
"-11 665 OFFCURVE",
"-20 712 CURVE",
"40 713 OFFCURVE",
"105 715 OFFCURVE",
"173 718 CURVE"
);
}
);
width = 401;
}
);
unicode = 00EF;
},
{
glyphname = icircumflex;
lastChange = "2015-10-17 22:46:10 +0000";
layers = (
{
layerId = "7A0FC40B-77F8-4D14-AD08-D047673E78CB";
name = Regular;
paths = (
{
closed = 1;
nodes = (
"356 0 LINE",
"249 -1 OFFCURVE",
"135 -3 OFFCURVE",
"36 -12 CURVE",
"36 163 OFFCURVE",
"36 337 OFFCURVE",
"29 510 CURVE",
"42 509 OFFCURVE",
"54 509 OFFCURVE",
"67 509 CURVE SMOOTH",
"80 509 OFFCURVE",
"93 509 OFFCURVE",
"106 509 CURVE SMOOTH",
"189 509 OFFCURVE",
"270 509 OFFCURVE",
"346 520 CURVE"
);
},
{
closed = 1;
nodes = (
"29 698 OFFCURVE",
"117 724 OFFCURVE",
"201 751 CURVE",
"297 734 OFFCURVE",
"377 706 OFFCURVE",
"450 675 CURVE",
"433 632 OFFCURVE",
"420 596 OFFCURVE",
"416 547 CURVE",
"353 563 OFFCURVE",
"271 575 OFFCURVE",
"202 583 CURVE",
"130 572 OFFCURVE",
"46 558 OFFCURVE",
"-18 537 CURVE",
"-20 562 OFFCURVE",
"-24 584 OFFCURVE",
"-29 604 CURVE",
"-35 623 OFFCURVE",
"-41 644 OFFCURVE",
"-47 665 CURVE"
);
}
);
width = 401;
}
);
unicode = 00EE;
},
{
glyphname = ibreve;
lastChange = "2015-10-17 22:46:10 +0000";
layers = (
{
layerId = "7A0FC40B-77F8-4D14-AD08-D047673E78CB";
name = Regular;
paths = (
{
closed = 1;
nodes = (
"356 0 LINE",
"249 -1 OFFCURVE",
"135 -3 OFFCURVE",
"36 -12 CURVE",
"36 163 OFFCURVE",
"36 337 OFFCURVE",
"29 510 CURVE",
"42 509 OFFCURVE",
"54 509 OFFCURVE",
"67 509 CURVE SMOOTH",
"80 509 OFFCURVE",
"93 509 OFFCURVE",
"106 509 CURVE SMOOTH",
"189 509 OFFCURVE",
"270 509 OFFCURVE",
"346 520 CURVE"
);
},
{
closed = 1;
nodes = (
"352 558 OFFCURVE",
"279 547 OFFCURVE",
"202 547 CURVE SMOOTH",
"125 547 OFFCURVE",
"50 558 OFFCURVE",
"-19 593 CURVE",
"-7 636 OFFCURVE",
"4 675 OFFCURVE",
"9 726 CURVE",
"57 711 OFFCURVE",
"126 701 OFFCURVE",
"202 701 CURVE SMOOTH",
"282 701 OFFCURVE",
"353 724 OFFCURVE",
"405 751 CURVE",
"408 690 OFFCURVE",
"415 644 OFFCURVE",
"423 593 CURVE"
);
}
);
width = 401;
}
);
unicode = 012D;
},
{
glyphname = obreve;
lastChange = "2015-10-17 22:46:10 +0000";
layers = (
{
layerId = "7A0FC40B-77F8-4D14-AD08-D047673E78CB";
name = Regular;
paths = (
{
closed = 1;
nodes = (
"553 558 OFFCURVE",
"480 547 OFFCURVE",
"403 547 CURVE SMOOTH",
"326 547 OFFCURVE",
"251 558 OFFCURVE",
"182 593 CURVE",
"194 636 OFFCURVE",
"205 675 OFFCURVE",
"210 726 CURVE",
"258 711 OFFCURVE",
"327 701 OFFCURVE",
"403 701 CURVE SMOOTH",
"483 701 OFFCURVE",
"554 724 OFFCURVE",
"606 751 CURVE",
"609 690 OFFCURVE",
"616 644 OFFCURVE",
"624 593 CURVE"
);
},
{
closed = 1;
nodes = (
"270 -12 OFFCURVE",
"168 2 OFFCURVE",
"96 33 CURVE",
"69 61 OFFCURVE",
"50 93 OFFCURVE",
"36 131 CURVE SMOOTH",
"22 169 OFFCURVE",
"15 214 OFFCURVE",
"15 271 CURVE SMOOTH",
"15 366 OFFCURVE",
"35 428 OFFCURVE",
"70 483 CURVE",
"146 519 OFFCURVE",
"259 537 OFFCURVE",
"409 537 CURVE SMOOTH",
"560 537 OFFCURVE",
"675 517 OFFCURVE",
"751 474 CURVE",
"764 447 OFFCURVE",
"774 420 OFFCURVE",
"781 389 CURVE SMOOTH",
"788 358 OFFCURVE",
"791 323 OFFCURVE",
"791 279 CURVE SMOOTH",
"791 231 OFFCURVE",
"786 193 OFFCURVE",
"778 159 CURVE SMOOTH",
"769 125 OFFCURVE",
"756 95 OFFCURVE",
"740 63 CURVE",
"667 13 OFFCURVE",
"553 -12 OFFCURVE",
"398 -12 CURVE SMOOTH"
);
},
{
closed = 1;
nodes = (
"350 317 OFFCURVE",
"346 287 OFFCURVE",
"346 254 CURVE SMOOTH",
"346 205 OFFCURVE",
"346 174 OFFCURVE",
"357 155 CURVE",
"365 146 OFFCURVE",
"379 142 OFFCURVE",
"399 142 CURVE SMOOTH",
"418 142 OFFCURVE",
"432 146 OFFCURVE",
"441 155 CURVE",
"456 175 OFFCURVE",
"459 215 OFFCURVE",
"459 266 CURVE SMOOTH",
"459 310 OFFCURVE",
"454 340 OFFCURVE",
"444 356 CURVE",
"435 364 OFFCURVE",
"425 364 OFFCURVE",
"410 364 CURVE SMOOTH",
"387 364 OFFCURVE",
"374 360 OFFCURVE",
"361 349 CURVE"
);
}
);
width = 806;
}
);
unicode = 014F;
},
{
glyphname = ocircumflex;
lastChange = "2015-10-17 22:46:10 +0000";
layers = (
{
layerId = "7A0FC40B-77F8-4D14-AD08-D047673E78CB";
name = Regular;
paths = (
{
closed = 1;
nodes = (
"230 698 OFFCURVE",
"318 724 OFFCURVE",
"402 751 CURVE",
"498 734 OFFCURVE",
"578 706 OFFCURVE",
"651 675 CURVE",
"634 632 OFFCURVE",
"621 596 OFFCURVE",
"617 547 CURVE",
"554 563 OFFCURVE",
"472 575 OFFCURVE",
"403 583 CURVE",
"331 572 OFFCURVE",
"247 558 OFFCURVE",
"183 537 CURVE",
"181 562 OFFCURVE",
"177 584 OFFCURVE",
"172 604 CURVE",
"166 623 OFFCURVE",
"160 644 OFFCURVE",
"154 665 CURVE"
);
},
{
closed = 1;
nodes = (
"270 -12 OFFCURVE",
"168 2 OFFCURVE",
"96 33 CURVE",
"69 61 OFFCURVE",
"50 93 OFFCURVE",
"36 131 CURVE SMOOTH",
"22 169 OFFCURVE",
"15 214 OFFCURVE",
"15 271 CURVE SMOOTH",
"15 366 OFFCURVE",
"35 428 OFFCURVE",
"70 483 CURVE",
"146 519 OFFCURVE",
"259 537 OFFCURVE",
"409 537 CURVE SMOOTH",
"560 537 OFFCURVE",
"675 517 OFFCURVE",
"751 474 CURVE",
"764 447 OFFCURVE",
"774 420 OFFCURVE",
"781 389 CURVE SMOOTH",
"788 358 OFFCURVE",
"791 323 OFFCURVE",
"791 279 CURVE SMOOTH",
"791 231 OFFCURVE",
"786 193 OFFCURVE",
"778 159 CURVE SMOOTH",
"769 125 OFFCURVE",
"756 95 OFFCURVE",
"740 63 CURVE",
"667 13 OFFCURVE",
"553 -12 OFFCURVE",
"398 -12 CURVE SMOOTH"
);
},
{
closed = 1;
nodes = (
"350 317 OFFCURVE",
"346 287 OFFCURVE",
"346 254 CURVE SMOOTH",
"346 205 OFFCURVE",
"346 174 OFFCURVE",
"357 155 CURVE",
"365 146 OFFCURVE",
"379 142 OFFCURVE",
"399 142 CURVE SMOOTH",
"418 142 OFFCURVE",
"432 146 OFFCURVE",
"441 155 CURVE",
"456 175 OFFCURVE",
"459 215 OFFCURVE",
"459 266 CURVE SMOOTH",
"459 310 OFFCURVE",
"454 340 OFFCURVE",
"444 356 CURVE",
"435 364 OFFCURVE",
"425 364 OFFCURVE",
"410 364 CURVE SMOOTH",
"387 364 OFFCURVE",
"374 360 OFFCURVE",
"361 349 CURVE"
);
}
);
width = 806;
}
);
unicode = 00F4;
},
{
glyphname = odieresis;
lastChange = "2015-10-17 22:46:10 +0000";
layers = (
{
layerId = "7A0FC40B-77F8-4D14-AD08-D047673E78CB";
name = Regular;
paths = (
{
closed = 1;
nodes = (
"424 718 LINE",
"496 721 OFFCURVE",
"565 723 OFFCURVE",
"625 726 CURVE",
"620 665 OFFCURVE",
"616 619 OFFCURVE",
"613 568 CURVE",
"583 569 OFFCURVE",
"554 571 OFFCURVE",
"525 572 CURVE SMOOTH",
"496 573 OFFCURVE",
"466 574 OFFCURVE",
"435 575 CURVE"
);
},
{
closed = 1;
nodes = (
"385 575 LINE",
"196 575 LINE",
"196 620 OFFCURVE",
"190 665 OFFCURVE",
"181 712 CURVE",
"241 713 OFFCURVE",
"306 715 OFFCURVE",
"374 718 CURVE"
);
},
{
closed = 1;
nodes = (
"270 -12 OFFCURVE",
"168 2 OFFCURVE",
"96 33 CURVE",
"69 61 OFFCURVE",
"50 93 OFFCURVE",
"36 131 CURVE SMOOTH",
"22 169 OFFCURVE",
"15 214 OFFCURVE",
"15 271 CURVE SMOOTH",
"15 366 OFFCURVE",
"35 428 OFFCURVE",
"70 483 CURVE",
"146 519 OFFCURVE",
"259 537 OFFCURVE",
"409 537 CURVE SMOOTH",
"560 537 OFFCURVE",
"675 517 OFFCURVE",
"751 474 CURVE",
"764 447 OFFCURVE",
"774 420 OFFCURVE",
"781 389 CURVE SMOOTH",
"788 358 OFFCURVE",
"791 323 OFFCURVE",
"791 279 CURVE SMOOTH",
"791 231 OFFCURVE",
"786 193 OFFCURVE",
"778 159 CURVE SMOOTH",
"769 125 OFFCURVE",
"756 95 OFFCURVE",
"740 63 CURVE",
"667 13 OFFCURVE",
"553 -12 OFFCURVE",
"398 -12 CURVE SMOOTH"
);
},
{
closed = 1;
nodes = (
"350 317 OFFCURVE",
"346 287 OFFCURVE",
"346 254 CURVE SMOOTH",
"346 205 OFFCURVE",
"346 174 OFFCURVE",
"357 155 CURVE",
"365 146 OFFCURVE",
"379 142 OFFCURVE",
"399 142 CURVE SMOOTH",
"418 142 OFFCURVE",
"432 146 OFFCURVE",
"441 155 CURVE",
"456 175 OFFCURVE",
"459 215 OFFCURVE",
"459 266 CURVE SMOOTH",
"459 310 OFFCURVE",
"454 340 OFFCURVE",
"444 356 CURVE",
"435 364 OFFCURVE",
"425 364 OFFCURVE",
"410 364 CURVE SMOOTH",
"387 364 OFFCURVE",
"374 360 OFFCURVE",
"361 349 CURVE"
);
}
);
width = 806;
}
);
unicode = 00F6;
},
{
glyphname = ubreve;
lastChange = "2015-10-17 22:46:10 +0000";
layers = (
{
layerId = "7A0FC40B-77F8-4D14-AD08-D047673E78CB";
name = Regular;
paths = (
{
closed = 1;
nodes = (
"540 558 OFFCURVE",
"467 547 OFFCURVE",
"390 547 CURVE SMOOTH",
"313 547 OFFCURVE",
"238 558 OFFCURVE",
"169 593 CURVE",
"181 636 OFFCURVE",
"192 675 OFFCURVE",
"197 726 CURVE",
"245 711 OFFCURVE",
"314 701 OFFCURVE",
"390 701 CURVE SMOOTH",
"470 701 OFFCURVE",
"541 724 OFFCURVE",
"593 751 CURVE",
"596 690 OFFCURVE",
"603 644 OFFCURVE",
"611 593 CURVE"
);
},
{
closed = 1;
nodes = (
"424 540 LINE",
"537 540 OFFCURVE",
"645 540 OFFCURVE",
"749 552 CURVE",
"749 504 OFFCURVE",
"749 457 OFFCURVE",
"749 412 CURVE SMOOTH",
"749 320 OFFCURVE",
"750 231 OFFCURVE",
"754 140 CURVE SMOOTH",
"755 95 OFFCURVE",
"757 48 OFFCURVE",
"760 1 CURVE",
"399 -12 LINE",
"405 48 LINE",
"334 0 OFFCURVE",
"277 -12 OFFCURVE",
"221 -12 CURVE SMOOTH",
"153 -12 OFFCURVE",
"109 5 OFFCURVE",
"64 34 CURVE",
"33 111 OFFCURVE",
"25 186 OFFCURVE",
"25 295 CURVE SMOOTH",
"25 367 OFFCURVE",
"28 449 OFFCURVE",
"35 529 CURVE",
"78 528 OFFCURVE",
"122 527 OFFCURVE",
"165 527 CURVE SMOOTH",
"230 527 OFFCURVE",
"294 530 OFFCURVE",
"362 537 CURVE",
"355 480 OFFCURVE",
"353 426 OFFCURVE",
"353 386 CURVE SMOOTH",
"353 334 OFFCURVE",
"357 290 OFFCURVE",
"364 251 CURVE",
"390 251 OFFCURVE",
"414 261 OFFCURVE",
"437 282 CURVE"
);
}
);
width = 780;
}
);
unicode = 016D;
},
{
glyphname = ucircumflex;
lastChange = "2015-10-17 22:46:10 +0000";
layers = (
{
layerId = "7A0FC40B-77F8-4D14-AD08-D047673E78CB";
name = Regular;
paths = (
{
closed = 1;
nodes = (
"217 698 OFFCURVE",
"305 724 OFFCURVE",
"389 751 CURVE",
"485 734 OFFCURVE",
"565 706 OFFCURVE",
"638 675 CURVE",
"621 632 OFFCURVE",
"608 596 OFFCURVE",
"604 547 CURVE",
"541 563 OFFCURVE",
"459 575 OFFCURVE",
"390 583 CURVE",
"318 572 OFFCURVE",
"234 558 OFFCURVE",
"170 537 CURVE",
"168 562 OFFCURVE",
"164 584 OFFCURVE",
"159 604 CURVE",
"153 623 OFFCURVE",
"147 644 OFFCURVE",
"141 665 CURVE"
);
},
{
closed = 1;
nodes = (
"424 540 LINE",
"537 540 OFFCURVE",
"645 540 OFFCURVE",
"749 552 CURVE",
"749 504 OFFCURVE",
"749 457 OFFCURVE",
"749 412 CURVE SMOOTH",
"749 320 OFFCURVE",
"750 231 OFFCURVE",
"754 140 CURVE SMOOTH",
"755 95 OFFCURVE",
"757 48 OFFCURVE",
"760 1 CURVE",
"399 -12 LINE",
"405 48 LINE",
"334 0 OFFCURVE",
"277 -12 OFFCURVE",
"221 -12 CURVE SMOOTH",
"153 -12 OFFCURVE",
"109 5 OFFCURVE",
"64 34 CURVE",
"33 111 OFFCURVE",
"25 186 OFFCURVE",
"25 295 CURVE SMOOTH",
"25 367 OFFCURVE",
"28 449 OFFCURVE",
"35 529 CURVE",
"78 528 OFFCURVE",
"122 527 OFFCURVE",
"165 527 CURVE SMOOTH",
"230 527 OFFCURVE",
"294 530 OFFCURVE",
"362 537 CURVE",
"355 480 OFFCURVE",
"353 426 OFFCURVE",
"353 386 CURVE SMOOTH",
"353 334 OFFCURVE",
"357 290 OFFCURVE",
"364 251 CURVE",
"390 251 OFFCURVE",
"414 261 OFFCURVE",
"437 282 CURVE"
);
}
);
width = 780;
}
);
unicode = 00FB;
},
{
glyphname = udieresis;
lastChange = "2015-10-17 22:46:10 +0000";
layers = (
{
layerId = "7A0FC40B-77F8-4D14-AD08-D047673E78CB";
name = Regular;
paths = (
{
closed = 1;
nodes = (
"411 718 LINE",
"483 721 OFFCURVE",
"552 723 OFFCURVE",
"612 726 CURVE",
"607 665 OFFCURVE",
"603 619 OFFCURVE",
"600 568 CURVE",
"570 569 OFFCURVE",
"541 571 OFFCURVE",
"512 572 CURVE SMOOTH",
"483 573 OFFCURVE",
"453 574 OFFCURVE",
"422 575 CURVE"
);
},
{
closed = 1;
nodes = (
"372 575 LINE",
"183 575 LINE",
"183 620 OFFCURVE",
"177 665 OFFCURVE",
"168 712 CURVE",
"228 713 OFFCURVE",
"293 715 OFFCURVE",
"361 718 CURVE"
);
},
{
closed = 1;
nodes = (
"424 540 LINE",
"537 540 OFFCURVE",
"645 540 OFFCURVE",
"749 552 CURVE",
"749 504 OFFCURVE",
"749 457 OFFCURVE",
"749 412 CURVE SMOOTH",
"749 320 OFFCURVE",
"750 231 OFFCURVE",
"754 140 CURVE SMOOTH",
"755 95 OFFCURVE",
"757 48 OFFCURVE",
"760 1 CURVE",
"399 -12 LINE",
"405 48 LINE",
"334 0 OFFCURVE",
"277 -12 OFFCURVE",
"221 -12 CURVE SMOOTH",
"153 -12 OFFCURVE",
"109 5 OFFCURVE",
"64 34 CURVE",
"33 111 OFFCURVE",
"25 186 OFFCURVE",
"25 295 CURVE SMOOTH",
"25 367 OFFCURVE",
"28 449 OFFCURVE",
"35 529 CURVE",
"78 528 OFFCURVE",
"122 527 OFFCURVE",
"165 527 CURVE SMOOTH",
"230 527 OFFCURVE",
"294 530 OFFCURVE",
"362 537 CURVE",
"355 480 OFFCURVE",
"353 426 OFFCURVE",
"353 386 CURVE SMOOTH",
"353 334 OFFCURVE",
"357 290 OFFCURVE",
"364 251 CURVE",
"390 251 OFFCURVE",
"414 261 OFFCURVE",
"437 282 CURVE"
);
}
);
width = 780;
}
);
unicode = 00FC;
},
{
glyphname = umacron;
lastChange = "2015-10-17 22:46:10 +0000";
layers = (
{
layerId = "7A0FC40B-77F8-4D14-AD08-D047673E78CB";
name = Regular;
paths = (
{
closed = 1;
nodes = (
"237 713 OFFCURVE",
"317 715 OFFCURVE",
"394 718 CURVE SMOOTH",
"471 721 OFFCURVE",
"548 723 OFFCURVE",
"612 726 CURVE",
"607 665 OFFCURVE",
"603 619 OFFCURVE",
"600 568 CURVE",
"464 575 OFFCURVE",
"323 576 OFFCURVE",
"183 577 CURVE",
"182 622 OFFCURVE",
"176 665 OFFCURVE",
"168 712 CURVE"
);
},
{
closed = 1;
nodes = (
"424 540 LINE",
"537 540 OFFCURVE",
"645 540 OFFCURVE",
"749 552 CURVE",
"749 504 OFFCURVE",
"749 457 OFFCURVE",
"749 412 CURVE SMOOTH",
"749 320 OFFCURVE",
"750 231 OFFCURVE",
"754 140 CURVE SMOOTH",
"755 95 OFFCURVE",
"757 48 OFFCURVE",
"760 1 CURVE",
"399 -12 LINE",
"405 48 LINE",
"334 0 OFFCURVE",
"277 -12 OFFCURVE",
"221 -12 CURVE SMOOTH",
"153 -12 OFFCURVE",
"109 5 OFFCURVE",
"64 34 CURVE",
"33 111 OFFCURVE",
"25 186 OFFCURVE",
"25 295 CURVE SMOOTH",
"25 367 OFFCURVE",
"28 449 OFFCURVE",
"35 529 CURVE",
"78 528 OFFCURVE",
"122 527 OFFCURVE",
"165 527 CURVE SMOOTH",
"230 527 OFFCURVE",
"294 530 OFFCURVE",
"362 537 CURVE",
"355 480 OFFCURVE",
"353 426 OFFCURVE",
"353 386 CURVE SMOOTH",
"353 334 OFFCURVE",
"357 290 OFFCURVE",
"364 251 CURVE",
"390 251 OFFCURVE",
"414 261 OFFCURVE",
"437 282 CURVE"
);
}
);
width = 780;
}
);
unicode = 016B;
},
{
glyphname = Eacute;
lastChange = "2015-10-17 22:46:10 +0000";
layers = (
{
layerId = "7A0FC40B-77F8-4D14-AD08-D047673E78CB";
name = Regular;
paths = (
{
closed = 1;
nodes = (
"693 160 LINE",
"679 1 LINE",
"456 -2 OFFCURVE",
"238 -5 OFFCURVE",
"10 -12 CURVE",
"18 181 OFFCURVE",
"21 359 OFFCURVE",
"21 550 CURVE",
"246 550 OFFCURVE",
"463 555 OFFCURVE",
"680 562 CURVE",
"668 399 LINE",
"569 402 OFFCURVE",
"471 404 OFFCURVE",
"362 404 CURVE",
"362 343 LINE",
"449 344 OFFCURVE",
"534 346 OFFCURVE",
"625 349 CURVE",
"608 221 LINE",
"351 211 LINE",
"361 149 LINE"
);
},
{
closed = 1;
nodes = (
"209 713 OFFCURVE",
"289 722 OFFCURVE",
"366 734 CURVE SMOOTH",
"443 745 OFFCURVE",
"520 759 OFFCURVE",
"584 775 CURVE",
"588 710 OFFCURVE",
"599 662 OFFCURVE",
"612 607 CURVE",
"471 602 OFFCURVE",
"320 594 OFFCURVE",
"175 571 CURVE",
"172 616 OFFCURVE",
"159 659 OFFCURVE",
"140 706 CURVE"
);
}
);
width = 708;
}
);
unicode = 00C9;
},
{
glyphname = tilde;
lastChange = "2015-10-17 22:46:10 +0000";
layers = (
{
layerId = "7A0FC40B-77F8-4D14-AD08-D047673E78CB";
name = Regular;
paths = (
{
closed = 1;
nodes = (
"49 730 OFFCURVE",
"87 741 OFFCURVE",
"130 741 CURVE SMOOTH",
"163 741 OFFCURVE",
"192 731 OFFCURVE",
"221 721 CURVE SMOOTH",
"250 711 OFFCURVE",
"280 701 OFFCURVE",
"315 701 CURVE SMOOTH",
"362 701 OFFCURVE",
"404 724 OFFCURVE",
"432 751 CURVE",
"436 690 OFFCURVE",
"444 644 OFFCURVE",
"455 593 CURVE",
"410 558 OFFCURVE",
"363 547 OFFCURVE",
"315 547 CURVE SMOOTH",
"280 547 OFFCURVE",
"252 560 OFFCURVE",
"224 572 CURVE SMOOTH",
"195 584 OFFCURVE",
"166 597 OFFCURVE",
"130 597 CURVE SMOOTH",
"87 597 OFFCURVE",
"50 583 OFFCURVE",
"23 567 CURVE",
"20 616 OFFCURVE",
"17 652 OFFCURVE",
"10 695 CURVE"
);
}
);
width = 457;
}
);
unicode = 02DC;
},
{
glyphname = ring;
lastChange = "2015-10-17 22:46:10 +0000";
layers = (
{
layerId = "7A0FC40B-77F8-4D14-AD08-D047673E78CB";
name = Regular;
paths = (
{
closed = 1;
nodes = (
"106 732 OFFCURVE",
"158 744 OFFCURVE",
"210 744 CURVE SMOOTH",
"253 744 OFFCURVE",
"293 737 OFFCURVE",
"336 722 CURVE",
"338 710 OFFCURVE",
"339 698 OFFCURVE",
"339 686 CURVE SMOOTH",
"339 643 OFFCURVE",
"326 605 OFFCURVE",
"291 574 CURVE",
"252 562 OFFCURVE",
"214 555 OFFCURVE",
"177 555 CURVE SMOOTH",
"139 555 OFFCURVE",
"102 563 OFFCURVE",
"67 578 CURVE",
"51 603 OFFCURVE",
"43 627 OFFCURVE",
"43 652 CURVE SMOOTH",
"43 670 OFFCURVE",
"47 689 OFFCURVE",
"55 709 CURVE"
);
},
{
closed = 1;
nodes = (
"259 635 OFFCURVE",
"261 640 OFFCURVE",
"261 649 CURVE SMOOTH",
"261 655 OFFCURVE",
"258 661 OFFCURVE",
"251 668 CURVE",
"242 672 OFFCURVE",
"224 677 OFFCURVE",
"205 677 CURVE SMOOTH",
"186 677 OFFCURVE",
"168 673 OFFCURVE",
"151 660 CURVE",
"143 649 OFFCURVE",
"143 636 OFFCURVE",
"143 621 CURVE",
"160 612 OFFCURVE",
"176 612 OFFCURVE",
"193 612 CURVE SMOOTH",
"212 612 OFFCURVE",
"233 617 OFFCURVE",
"255 626 CURVE"
);
}
);
width = 391;
}
);
unicode = 02DA;
},
{
glyphname = aring;
lastChange = "2015-10-17 22:46:10 +0000";
layers = (
{
layerId = "7A0FC40B-77F8-4D14-AD08-D047673E78CB";
name = Regular;
paths = (
{
closed = 1;
nodes = (
"310 732 OFFCURVE",
"362 744 OFFCURVE",
"414 744 CURVE SMOOTH",
"457 744 OFFCURVE",
"497 737 OFFCURVE",
"540 722 CURVE",
"542 710 OFFCURVE",
"543 698 OFFCURVE",
"543 686 CURVE SMOOTH",
"543 643 OFFCURVE",
"530 605 OFFCURVE",
"495 574 CURVE",
"456 562 OFFCURVE",
"418 555 OFFCURVE",
"381 555 CURVE SMOOTH",
"343 555 OFFCURVE",
"306 563 OFFCURVE",
"271 578 CURVE",
"255 603 OFFCURVE",
"247 627 OFFCURVE",
"247 652 CURVE SMOOTH",
"247 670 OFFCURVE",
"251 689 OFFCURVE",
"259 709 CURVE"
);
},
{
closed = 1;
nodes = (
"463 635 OFFCURVE",
"465 640 OFFCURVE",
"465 649 CURVE SMOOTH",
"465 655 OFFCURVE",
"462 661 OFFCURVE",
"455 668 CURVE",
"446 672 OFFCURVE",
"428 677 OFFCURVE",
"409 677 CURVE SMOOTH",
"390 677 OFFCURVE",
"372 673 OFFCURVE",
"355 660 CURVE",
"347 649 OFFCURVE",
"347 636 OFFCURVE",
"347 621 CURVE",
"364 612 OFFCURVE",
"380 612 OFFCURVE",
"397 612 CURVE SMOOTH",
"416 612 OFFCURVE",
"437 617 OFFCURVE",
"459 626 CURVE"
);
},
{
closed = 1;
nodes = (
"110 331 OFFCURVE",
"170 337 OFFCURVE",
"257 337 CURVE SMOOTH",
"316 337 OFFCURVE",
"373 332 OFFCURVE",
"417 324 CURVE",
"417 339 OFFCURVE",
"412 351 OFFCURVE",
"402 361 CURVE",
"367 368 OFFCURVE",
"324 372 OFFCURVE",
"292 372 CURVE SMOOTH",
"244 372 OFFCURVE",
"202 368 OFFCURVE",
"171 365 CURVE SMOOTH",
"154 363 OFFCURVE",
"138 361 OFFCURVE",
"123 359 CURVE",
"116 419 OFFCURVE",
"95 464 OFFCURVE",
"71 509 CURVE",
"115 518 OFFCURVE",
"166 526 OFFCURVE",
"232 532 CURVE SMOOTH",
"265 535 OFFCURVE",
"301 536 OFFCURVE",
"342 536 CURVE SMOOTH",
"467 536 OFFCURVE",
"596 526 OFFCURVE",
"699 481 CURVE",
"727 457 OFFCURVE",
"743 414 OFFCURVE",
"754 364 CURVE SMOOTH",
"765 314 OFFCURVE",
"768 256 OFFCURVE",
"768 200 CURVE SMOOTH",
"768 116 OFFCURVE",
"759 38 OFFCURVE",
"755 3 CURVE",
"638 2 OFFCURVE",
"524 -4 OFFCURVE",
"415 -13 CURVE",
"415 -5 LINE SMOOTH",
"415 -2 OFFCURVE",
"415 1 OFFCURVE",
"415 5 CURVE SMOOTH",
"415 8 OFFCURVE",
"415 12 OFFCURVE",
"416 17 CURVE",
"385 2 OFFCURVE",
"325 -17 OFFCURVE",
"230 -17 CURVE SMOOTH",
"166 -17 OFFCURVE",
"119 -8 OFFCURVE",
"64 11 CURVE",
"25 59 OFFCURVE",
"15 125 OFFCURVE",
"15 184 CURVE SMOOTH",
"15 243 OFFCURVE",
"27 277 OFFCURVE",
"43 310 CURVE"
);
},
{
closed = 1;
nodes = (
"429 212 OFFCURVE",
"415 214 OFFCURVE",
"395 214 CURVE SMOOTH",
"382 214 OFFCURVE",
"362 212 OFFCURVE",
"347 208 CURVE",
"343 201 OFFCURVE",
"341 192 OFFCURVE",
"341 183 CURVE SMOOTH",
"341 171 OFFCURVE",
"342 162 OFFCURVE",
"345 155 CURVE",
"356 150 OFFCURVE",
"372 148 OFFCURVE",
"387 148 CURVE SMOOTH",
"407 148 OFFCURVE",
"421 150 OFFCURVE",
"437 154 CURVE",
"445 173 OFFCURVE",
"446 188 OFFCURVE",
"449 207 CURVE"
);
}
);
width = 790;
}
);
unicode = 00E5;
},
{
glyphname = uring;
lastChange = "2015-10-17 22:46:10 +0000";
layers = (
{
layerId = "7A0FC40B-77F8-4D14-AD08-D047673E78CB";
name = Regular;
paths = (
{
closed = 1;
nodes = (
"305 732 OFFCURVE",
"357 744 OFFCURVE",
"409 744 CURVE SMOOTH",
"452 744 OFFCURVE",
"492 737 OFFCURVE",
"535 722 CURVE",
"537 710 OFFCURVE",
"538 698 OFFCURVE",
"538 686 CURVE SMOOTH",
"538 643 OFFCURVE",
"525 605 OFFCURVE",
"490 574 CURVE",
"451 562 OFFCURVE",
"413 555 OFFCURVE",
"376 555 CURVE SMOOTH",
"338 555 OFFCURVE",
"301 563 OFFCURVE",
"266 578 CURVE",
"250 603 OFFCURVE",
"242 627 OFFCURVE",
"242 652 CURVE SMOOTH",
"242 670 OFFCURVE",
"246 689 OFFCURVE",
"254 709 CURVE"
);
},
{
closed = 1;
nodes = (
"458 635 OFFCURVE",
"460 640 OFFCURVE",
"460 649 CURVE SMOOTH",
"460 655 OFFCURVE",
"457 661 OFFCURVE",
"450 668 CURVE",
"441 672 OFFCURVE",
"423 677 OFFCURVE",
"404 677 CURVE SMOOTH",
"385 677 OFFCURVE",
"367 673 OFFCURVE",
"350 660 CURVE",
"342 649 OFFCURVE",
"342 636 OFFCURVE",
"342 621 CURVE",
"359 612 OFFCURVE",
"375 612 OFFCURVE",
"392 612 CURVE SMOOTH",
"411 612 OFFCURVE",
"432 617 OFFCURVE",
"454 626 CURVE"
);
},
{
closed = 1;
nodes = (
"424 540 LINE",
"537 540 OFFCURVE",
"645 540 OFFCURVE",
"749 552 CURVE",
"749 504 OFFCURVE",
"749 457 OFFCURVE",
"749 412 CURVE SMOOTH",
"749 320 OFFCURVE",
"750 231 OFFCURVE",
"754 140 CURVE SMOOTH",
"755 95 OFFCURVE",
"757 48 OFFCURVE",
"760 1 CURVE",
"399 -12 LINE",
"405 48 LINE",
"334 0 OFFCURVE",
"277 -12 OFFCURVE",
"221 -12 CURVE SMOOTH",
"153 -12 OFFCURVE",
"109 5 OFFCURVE",
"64 34 CURVE",
"33 111 OFFCURVE",
"25 186 OFFCURVE",
"25 295 CURVE SMOOTH",
"25 367 OFFCURVE",
"28 449 OFFCURVE",
"35 529 CURVE",
"78 528 OFFCURVE",
"122 527 OFFCURVE",
"165 527 CURVE SMOOTH",
"230 527 OFFCURVE",
"294 530 OFFCURVE",
"362 537 CURVE",
"355 480 OFFCURVE",
"353 426 OFFCURVE",
"353 386 CURVE SMOOTH",
"353 334 OFFCURVE",
"357 290 OFFCURVE",
"364 251 CURVE",
"390 251 OFFCURVE",
"414 261 OFFCURVE",
"437 282 CURVE"
);
}
);
width = 780;
}
);
unicode = 016F;
},
{
glyphname = atilde;
lastChange = "2015-10-17 22:46:10 +0000";
layers = (
{
layerId = "7A0FC40B-77F8-4D14-AD08-D047673E78CB";
name = Regular;
paths = (
{
closed = 1;
nodes = (
"211 730 OFFCURVE",
"249 741 OFFCURVE",
"292 741 CURVE SMOOTH",
"325 741 OFFCURVE",
"354 731 OFFCURVE",
"383 721 CURVE SMOOTH",
"412 711 OFFCURVE",
"442 701 OFFCURVE",
"477 701 CURVE SMOOTH",
"524 701 OFFCURVE",
"566 724 OFFCURVE",
"594 751 CURVE",
"598 690 OFFCURVE",
"606 644 OFFCURVE",
"617 593 CURVE",
"572 558 OFFCURVE",
"525 547 OFFCURVE",
"477 547 CURVE SMOOTH",
"442 547 OFFCURVE",
"414 560 OFFCURVE",
"386 572 CURVE SMOOTH",
"357 584 OFFCURVE",
"328 597 OFFCURVE",
"292 597 CURVE SMOOTH",
"249 597 OFFCURVE",
"212 583 OFFCURVE",
"185 567 CURVE",
"182 616 OFFCURVE",
"179 652 OFFCURVE",
"172 695 CURVE"
);
},
{
closed = 1;
nodes = (
"110 331 OFFCURVE",
"170 337 OFFCURVE",
"257 337 CURVE SMOOTH",
"316 337 OFFCURVE",
"373 332 OFFCURVE",
"417 324 CURVE",
"417 339 OFFCURVE",
"412 351 OFFCURVE",
"402 361 CURVE",
"367 368 OFFCURVE",
"324 372 OFFCURVE",
"292 372 CURVE SMOOTH",
"244 372 OFFCURVE",
"202 368 OFFCURVE",
"171 365 CURVE SMOOTH",
"154 363 OFFCURVE",
"138 361 OFFCURVE",
"123 359 CURVE",
"116 419 OFFCURVE",
"95 464 OFFCURVE",
"71 509 CURVE",
"115 518 OFFCURVE",
"166 526 OFFCURVE",
"232 532 CURVE SMOOTH",
"265 535 OFFCURVE",
"301 536 OFFCURVE",
"342 536 CURVE SMOOTH",
"467 536 OFFCURVE",
"596 526 OFFCURVE",
"699 481 CURVE",
"727 457 OFFCURVE",
"743 414 OFFCURVE",
"754 364 CURVE SMOOTH",
"765 314 OFFCURVE",
"768 256 OFFCURVE",
"768 200 CURVE SMOOTH",
"768 116 OFFCURVE",
"759 38 OFFCURVE",
"755 3 CURVE",
"638 2 OFFCURVE",
"524 -4 OFFCURVE",
"415 -13 CURVE",
"415 -5 LINE SMOOTH",
"415 -2 OFFCURVE",
"415 1 OFFCURVE",
"415 5 CURVE SMOOTH",
"415 8 OFFCURVE",
"415 12 OFFCURVE",
"416 17 CURVE",
"385 2 OFFCURVE",
"325 -17 OFFCURVE",
"230 -17 CURVE SMOOTH",
"166 -17 OFFCURVE",
"119 -8 OFFCURVE",
"64 11 CURVE",
"25 59 OFFCURVE",
"15 125 OFFCURVE",
"15 184 CURVE SMOOTH",
"15 243 OFFCURVE",
"27 277 OFFCURVE",
"43 310 CURVE"
);
},
{
closed = 1;
nodes = (
"429 212 OFFCURVE",
"415 214 OFFCURVE",
"395 214 CURVE SMOOTH",
"382 214 OFFCURVE",
"362 212 OFFCURVE",
"347 208 CURVE",
"343 201 OFFCURVE",
"341 192 OFFCURVE",
"341 183 CURVE SMOOTH",
"341 171 OFFCURVE",
"342 162 OFFCURVE",
"345 155 CURVE",
"356 150 OFFCURVE",
"372 148 OFFCURVE",
"387 148 CURVE SMOOTH",
"407 148 OFFCURVE",
"421 150 OFFCURVE",
"437 154 CURVE",
"445 173 OFFCURVE",
"446 188 OFFCURVE",
"449 207 CURVE"
);
}
);
width = 790;
}
);
unicode = 00E3;
},
{
glyphname = itilde;
lastChange = "2015-10-17 22:46:10 +0000";
layers = (
{
layerId = "7A0FC40B-77F8-4D14-AD08-D047673E78CB";
name = Regular;
paths = (
{
closed = 1;
nodes = (
"356 0 LINE",
"249 -1 OFFCURVE",
"135 -3 OFFCURVE",
"36 -12 CURVE",
"36 163 OFFCURVE",
"36 337 OFFCURVE",
"29 510 CURVE",
"42 509 OFFCURVE",
"54 509 OFFCURVE",
"67 509 CURVE SMOOTH",
"80 509 OFFCURVE",
"93 509 OFFCURVE",
"106 509 CURVE SMOOTH",
"189 509 OFFCURVE",
"270 509 OFFCURVE",
"346 520 CURVE"
);
},
{
closed = 1;
nodes = (
"18 730 OFFCURVE",
"56 741 OFFCURVE",
"99 741 CURVE SMOOTH",
"132 741 OFFCURVE",
"161 731 OFFCURVE",
"190 721 CURVE SMOOTH",
"219 711 OFFCURVE",
"249 701 OFFCURVE",
"284 701 CURVE SMOOTH",
"331 701 OFFCURVE",
"373 724 OFFCURVE",
"401 751 CURVE",
"405 690 OFFCURVE",
"413 644 OFFCURVE",
"424 593 CURVE",
"379 558 OFFCURVE",
"332 547 OFFCURVE",
"284 547 CURVE SMOOTH",
"249 547 OFFCURVE",
"221 560 OFFCURVE",
"193 572 CURVE SMOOTH",
"164 584 OFFCURVE",
"135 597 OFFCURVE",
"99 597 CURVE SMOOTH",
"56 597 OFFCURVE",
"19 583 OFFCURVE",
"-8 567 CURVE",
"-11 616 OFFCURVE",
"-14 652 OFFCURVE",
"-21 695 CURVE"
);
}
);
width = 401;
}
);
unicode = 0129;
},
{
glyphname = otilde;
lastChange = "2015-10-17 22:46:10 +0000";
layers = (
{
layerId = "7A0FC40B-77F8-4D14-AD08-D047673E78CB";
name = Regular;
paths = (
{
closed = 1;
nodes = (
"219 730 OFFCURVE",
"257 741 OFFCURVE",
"300 741 CURVE SMOOTH",
"333 741 OFFCURVE",
"362 731 OFFCURVE",
"391 721 CURVE SMOOTH",
"420 711 OFFCURVE",
"450 701 OFFCURVE",
"485 701 CURVE SMOOTH",
"532 701 OFFCURVE",
"574 724 OFFCURVE",
"602 751 CURVE",
"606 690 OFFCURVE",
"614 644 OFFCURVE",
"625 593 CURVE",
"580 558 OFFCURVE",
"533 547 OFFCURVE",
"485 547 CURVE SMOOTH",
"450 547 OFFCURVE",
"422 560 OFFCURVE",
"394 572 CURVE SMOOTH",
"365 584 OFFCURVE",
"336 597 OFFCURVE",
"300 597 CURVE SMOOTH",
"257 597 OFFCURVE",
"220 583 OFFCURVE",
"193 567 CURVE",
"190 616 OFFCURVE",
"187 652 OFFCURVE",
"180 695 CURVE"
);
},
{
closed = 1;
nodes = (
"270 -12 OFFCURVE",
"168 2 OFFCURVE",
"96 33 CURVE",
"69 61 OFFCURVE",
"50 93 OFFCURVE",
"36 131 CURVE SMOOTH",
"22 169 OFFCURVE",
"15 214 OFFCURVE",
"15 271 CURVE SMOOTH",
"15 366 OFFCURVE",
"35 428 OFFCURVE",
"70 483 CURVE",
"146 519 OFFCURVE",
"259 537 OFFCURVE",
"409 537 CURVE SMOOTH",
"560 537 OFFCURVE",
"675 517 OFFCURVE",
"751 474 CURVE",
"764 447 OFFCURVE",
"774 420 OFFCURVE",
"781 389 CURVE SMOOTH",
"788 358 OFFCURVE",
"791 323 OFFCURVE",
"791 279 CURVE SMOOTH",
"791 231 OFFCURVE",
"786 193 OFFCURVE",
"778 159 CURVE SMOOTH",
"769 125 OFFCURVE",
"756 95 OFFCURVE",
"740 63 CURVE",
"667 13 OFFCURVE",
"553 -12 OFFCURVE",
"398 -12 CURVE SMOOTH"
);
},
{
closed = 1;
nodes = (
"350 317 OFFCURVE",
"346 287 OFFCURVE",
"346 254 CURVE SMOOTH",
"346 205 OFFCURVE",
"346 174 OFFCURVE",
"357 155 CURVE",
"365 146 OFFCURVE",
"379 142 OFFCURVE",
"399 142 CURVE SMOOTH",
"418 142 OFFCURVE",
"432 146 OFFCURVE",
"441 155 CURVE",
"456 175 OFFCURVE",
"459 215 OFFCURVE",
"459 266 CURVE SMOOTH",
"459 310 OFFCURVE",
"454 340 OFFCURVE",
"444 356 CURVE",
"435 364 OFFCURVE",
"425 364 OFFCURVE",
"410 364 CURVE SMOOTH",
"387 364 OFFCURVE",
"374 360 OFFCURVE",
"361 349 CURVE"
);
}
);
width = 806;
}
);
unicode = 00F5;
},
{
glyphname = utilde;
lastChange = "2015-10-17 22:46:10 +0000";
layers = (
{
layerId = "7A0FC40B-77F8-4D14-AD08-D047673E78CB";
name = Regular;
paths = (
{
closed = 1;
nodes = (
"206 730 OFFCURVE",
"244 741 OFFCURVE",
"287 741 CURVE SMOOTH",
"320 741 OFFCURVE",
"349 731 OFFCURVE",
"378 721 CURVE SMOOTH",
"407 711 OFFCURVE",
"437 701 OFFCURVE",
"472 701 CURVE SMOOTH",
"519 701 OFFCURVE",
"561 724 OFFCURVE",
"589 751 CURVE",
"593 690 OFFCURVE",
"601 644 OFFCURVE",
"612 593 CURVE",
"567 558 OFFCURVE",
"520 547 OFFCURVE",
"472 547 CURVE SMOOTH",
"437 547 OFFCURVE",
"409 560 OFFCURVE",
"381 572 CURVE SMOOTH",
"352 584 OFFCURVE",
"323 597 OFFCURVE",
"287 597 CURVE SMOOTH",
"244 597 OFFCURVE",
"207 583 OFFCURVE",
"180 567 CURVE",
"177 616 OFFCURVE",
"174 652 OFFCURVE",
"167 695 CURVE"
);
},
{
closed = 1;
nodes = (
"424 540 LINE",
"537 540 OFFCURVE",
"645 540 OFFCURVE",
"749 552 CURVE",
"749 504 OFFCURVE",
"749 457 OFFCURVE",
"749 412 CURVE SMOOTH",
"749 320 OFFCURVE",
"750 231 OFFCURVE",
"754 140 CURVE SMOOTH",
"755 95 OFFCURVE",
"757 48 OFFCURVE",
"760 1 CURVE",
"399 -12 LINE",
"405 48 LINE",
"334 0 OFFCURVE",
"277 -12 OFFCURVE",
"221 -12 CURVE SMOOTH",
"153 -12 OFFCURVE",
"109 5 OFFCURVE",
"64 34 CURVE",
"33 111 OFFCURVE",
"25 186 OFFCURVE",
"25 295 CURVE SMOOTH",
"25 367 OFFCURVE",
"28 449 OFFCURVE",
"35 529 CURVE",
"78 528 OFFCURVE",
"122 527 OFFCURVE",
"165 527 CURVE SMOOTH",
"230 527 OFFCURVE",
"294 530 OFFCURVE",
"362 537 CURVE",
"355 480 OFFCURVE",
"353 426 OFFCURVE",
"353 386 CURVE SMOOTH",
"353 334 OFFCURVE",
"357 290 OFFCURVE",
"364 251 CURVE",
"390 251 OFFCURVE",
"414 261 OFFCURVE",
"437 282 CURVE"
);
}
);
width = 780;
}
);
unicode = 0169;
},
{
glyphname = cedilla;
lastChange = "2015-10-17 22:46:10 +0000";
layers = (
{
layerId = "7A0FC40B-77F8-4D14-AD08-D047673E78CB";
name = Regular;
paths = (
{
closed = 1;
nodes = (
"310 -110 OFFCURVE",
"305 -101 OFFCURVE",
"298 -92 CURVE",
"289 -89 OFFCURVE",
"271 -88 OFFCURVE",
"252 -88 CURVE SMOOTH",
"231 -88 OFFCURVE",
"208 -88 OFFCURVE",
"189 -91 CURVE",
"209 20 LINE",
"406 20 LINE",
"406 -41 LINE",
"445 -41 OFFCURVE",
"484 -40 OFFCURVE",
"523 -55 CURVE",
"525 -67 OFFCURVE",
"526 -79 OFFCURVE",
"526 -91 CURVE SMOOTH",
"526 -122 OFFCURVE",
"518 -152 OFFCURVE",
"498 -173 CURVE",
"419 -186 OFFCURVE",
"330 -192 OFFCURVE",
"254 -192 CURVE SMOOTH",
"209 -192 OFFCURVE",
"174 -188 OFFCURVE",
"139 -181 CURVE",
"149 -120 LINE",
"188 -124 OFFCURVE",
"214 -125 OFFCURVE",
"250 -125 CURVE SMOOTH",
"270 -125 OFFCURVE",
"291 -124 OFFCURVE",
"312 -121 CURVE"
);
}
);
width = 593;
}
);
unicode = 00B8;
},
{
glyphname = ccedilla;
lastChange = "2015-10-17 22:46:10 +0000";
layers = (
{
layerId = "7A0FC40B-77F8-4D14-AD08-D047673E78CB";
name = Regular;
paths = (
{
closed = 1;
nodes = (
"280 -110 OFFCURVE",
"275 -101 OFFCURVE",
"268 -92 CURVE",
"259 -89 OFFCURVE",
"241 -88 OFFCURVE",
"222 -88 CURVE SMOOTH",
"201 -88 OFFCURVE",
"178 -88 OFFCURVE",
"159 -91 CURVE",
"179 20 LINE",
"376 20 LINE",
"376 -41 LINE",
"415 -41 OFFCURVE",
"454 -40 OFFCURVE",
"493 -55 CURVE",
"495 -67 OFFCURVE",
"496 -79 OFFCURVE",
"496 -91 CURVE SMOOTH",
"496 -122 OFFCURVE",
"488 -152 OFFCURVE",
"468 -173 CURVE",
"389 -186 OFFCURVE",
"300 -192 OFFCURVE",
"224 -192 CURVE SMOOTH",
"179 -192 OFFCURVE",
"144 -188 OFFCURVE",
"109 -181 CURVE",
"119 -120 LINE",
"158 -124 OFFCURVE",
"184 -125 OFFCURVE",
"220 -125 CURVE SMOOTH",
"240 -125 OFFCURVE",
"261 -124 OFFCURVE",
"282 -121 CURVE"
);
},
{
closed = 1;
nodes = (
"172 528 OFFCURVE",
"266 541 OFFCURVE",
"375 541 CURVE SMOOTH",
"450 541 OFFCURVE",
"511 533 OFFCURVE",
"586 520 CURVE",
"567 463 OFFCURVE",
"559 398 OFFCURVE",
"559 351 CURVE",
"536 354 OFFCURVE",
"502 356 OFFCURVE",
"478 356 CURVE SMOOTH",
"442 356 OFFCURVE",
"413 353 OFFCURVE",
"370 340 CURVE",
"359 319 OFFCURVE",
"356 288 OFFCURVE",
"356 261 CURVE SMOOTH",
"356 228 OFFCURVE",
"366 202 OFFCURVE",
"381 177 CURVE",
"412 166 OFFCURVE",
"439 162 OFFCURVE",
"466 162 CURVE SMOOTH",
"502 162 OFFCURVE",
"536 165 OFFCURVE",
"561 172 CURVE",
"564 125 OFFCURVE",
"569 64 OFFCURVE",
"588 15 CURVE",
"516 -2 OFFCURVE",
"448 -13 OFFCURVE",
"361 -13 CURVE SMOOTH",
"256 -13 OFFCURVE",
"152 -6 OFFCURVE",
"64 45 CURVE",
"32 101 OFFCURVE",
"15 185 OFFCURVE",
"15 265 CURVE SMOOTH",
"15 348 OFFCURVE",
"29 418 OFFCURVE",
"84 497 CURVE"
);
}
);
width = 593;
}
);
unicode = 00E7;
},
{
glyphname = fi;
lastChange = "2015-10-17 22:46:10 +0000";
layers = (
{
layerId = "7A0FC40B-77F8-4D14-AD08-D047673E78CB";
name = Regular;
paths = (
{
closed = 1;
nodes = (
"510 469 OFFCURVE",
"600 469 OFFCURVE",
"689 469 CURVE SMOOTH",
"772 469 OFFCURVE",
"853 473 OFFCURVE",
"929 480 CURVE",
"932 319 OFFCURVE",
"935 161 OFFCURVE",
"939 0 CURVE",
"832 -1 OFFCURVE",
"718 -3 OFFCURVE",
"619 -12 CURVE",
"619 35 OFFCURVE",
"619 81 OFFCURVE",
"619 128 CURVE SMOOTH",
"619 175 OFFCURVE",
"619 221 OFFCURVE",
"618 268 CURVE",
"431 278 LINE",
"432 238 OFFCURVE",
"432 194 OFFCURVE",
"433 147 CURVE SMOOTH",
"433 99 OFFCURVE",
"437 51 OFFCURVE",
"444 3 CURVE",
"327 2 OFFCURVE",
"213 -4 OFFCURVE",
"104 -13 CURVE",
"101 3 OFFCURVE",
"97 32 OFFCURVE",
"93 68 CURVE SMOOTH",
"89 103 OFFCURVE",
"86 143 OFFCURVE",
"86 182 CURVE SMOOTH",
"86 203 OFFCURVE",
"86 225 OFFCURVE",
"86 246 CURVE SMOOTH",
"86 267 OFFCURVE",
"87 288 OFFCURVE",
"88 309 CURVE",
"33 311 LINE",
"24 457 LINE",
"104 460 LINE",
"113 540 OFFCURVE",
"127 606 OFFCURVE",
"150 647 CURVE",
"253 691 OFFCURVE",
"379 712 OFFCURVE",
"507 712 CURVE SMOOTH",
"591 712 OFFCURVE",
"661 700 OFFCURVE",
"710 688 CURVE SMOOTH",
"739 681 OFFCURVE",
"765 673 OFFCURVE",
"788 665 CURVE",
"773 618 OFFCURVE",
"760 575 OFFCURVE",
"756 515 CURVE",
"731 518 OFFCURVE",
"702 521 OFFCURVE",
"666 522 CURVE SMOOTH",
"648 523 OFFCURVE",
"628 523 OFFCURVE",
"607 523 CURVE SMOOTH",
"556 523 OFFCURVE",
"490 520 OFFCURVE",
"437 507 CURVE",
"430 496 OFFCURVE",
"425 485 OFFCURVE",
"421 473 CURVE"
);
}
);
width = 1084;
}
);
unicode = FB01;
},
{
glyphname = ff;
lastChange = "2015-10-17 22:46:10 +0000";
layers = (
{
layerId = "7A0FC40B-77F8-4D14-AD08-D047673E78CB";
name = Regular;
paths = (
{
closed = 1;
nodes = (
"104 450 LINE",
"113 530 OFFCURVE",
"127 596 OFFCURVE",
"150 637 CURVE",
"253 681 OFFCURVE",
"379 702 OFFCURVE",
"507 702 CURVE SMOOTH",
"570 702 OFFCURVE",
"625 695 OFFCURVE",
"669 687 CURVE SMOOTH",
"713 679 OFFCURVE",
"747 669 OFFCURVE",
"767 662 CURVE",
"851 697 OFFCURVE",
"953 712 OFFCURVE",
"1050 712 CURVE SMOOTH",
"1122 712 OFFCURVE",
"1181 700 OFFCURVE",
"1224 688 CURVE SMOOTH",
"1249 681 OFFCURVE",
"1271 673 OFFCURVE",
"1291 665 CURVE",
"1276 618 OFFCURVE",
"1264 575 OFFCURVE",
"1259 515 CURVE",
"1240 518 OFFCURVE",
"1219 521 OFFCURVE",
"1193 522 CURVE",
"1180 523 OFFCURVE",
"1165 523 OFFCURVE",
"1150 523 CURVE SMOOTH",
"1111 523 OFFCURVE",
"1061 520 OFFCURVE",
"1020 507 CURVE",
"1013 496 OFFCURVE",
"1008 485 OFFCURVE",
"1004 473 CURVE",
"1240 482 LINE",
"1240 268 LINE",
"1014 278 LINE",
"1015 238 OFFCURVE",
"1015 194 OFFCURVE",
"1016 147 CURVE SMOOTH",
"1016 99 OFFCURVE",
"1020 51 OFFCURVE",
"1027 3 CURVE",
"910 2 OFFCURVE",
"796 -4 OFFCURVE",
"687 -13 CURVE",
"684 3 OFFCURVE",
"680 32 OFFCURVE",
"676 68 CURVE SMOOTH",
"672 103 OFFCURVE",
"669 143 OFFCURVE",
"669 182 CURVE SMOOTH",
"669 194 OFFCURVE",
"669 204 OFFCURVE",
"669 212 CURVE SMOOTH",
"669 219 OFFCURVE",
"669 226 OFFCURVE",
"669 233 CURVE SMOOTH",
"669 246 OFFCURVE",
"670 260 OFFCURVE",
"671 284 CURVE",
"431 293 LINE",
"432 251 OFFCURVE",
"432 205 OFFCURVE",
"433 155 CURVE SMOOTH",
"433 104 OFFCURVE",
"437 54 OFFCURVE",
"444 3 CURVE",
"327 2 OFFCURVE",
"213 -4 OFFCURVE",
"104 -13 CURVE",
"101 3 OFFCURVE",
"97 32 OFFCURVE",
"93 68 CURVE SMOOTH",
"89 103 OFFCURVE",
"86 143 OFFCURVE",
"86 182 CURVE SMOOTH",
"86 203 OFFCURVE",
"86 225 OFFCURVE",
"86 246 CURVE SMOOTH",
"86 267 OFFCURVE",
"87 288 OFFCURVE",
"88 309 CURVE",
"33 311 LINE",
"24 447 LINE"
);
},
{
closed = 1;
nodes = (
"687 472 LINE",
"688 485 OFFCURVE",
"689 498 OFFCURVE",
"692 510 CURVE",
"668 512 OFFCURVE",
"640 513 OFFCURVE",
"607 513 CURVE SMOOTH",
"556 513 OFFCURVE",
"490 510 OFFCURVE",
"437 497 CURVE",
"430 486 OFFCURVE",
"425 475 OFFCURVE",
"421 463 CURVE"
);
}
);
width = 1366;
}
);
unicode = FB00;
},
{
glyphname = ffi;
lastChange = "2015-10-17 22:46:10 +0000";
layers = (
{
layerId = "7A0FC40B-77F8-4D14-AD08-D047673E78CB";
name = Regular;
paths = (
{
closed = 1;
nodes = (
"1093 469 OFFCURVE",
"1183 469 OFFCURVE",
"1272 469 CURVE SMOOTH",
"1355 469 OFFCURVE",
"1436 473 OFFCURVE",
"1512 480 CURVE",
"1515 319 OFFCURVE",
"1518 161 OFFCURVE",
"1522 0 CURVE",
"1415 -1 OFFCURVE",
"1301 -3 OFFCURVE",
"1202 -12 CURVE",
"1202 35 OFFCURVE",
"1202 81 OFFCURVE",
"1202 128 CURVE SMOOTH",
"1202 175 OFFCURVE",
"1202 221 OFFCURVE",
"1201 268 CURVE",
"1014 278 LINE",
"1015 238 OFFCURVE",
"1015 194 OFFCURVE",
"1016 147 CURVE SMOOTH",
"1016 99 OFFCURVE",
"1020 51 OFFCURVE",
"1027 3 CURVE",
"910 2 OFFCURVE",
"796 -4 OFFCURVE",
"687 -13 CURVE",
"684 3 OFFCURVE",
"680 32 OFFCURVE",
"676 68 CURVE SMOOTH",
"672 103 OFFCURVE",
"669 143 OFFCURVE",
"669 182 CURVE SMOOTH",
"669 199 OFFCURVE",
"669 216 OFFCURVE",
"669 233 CURVE SMOOTH",
"669 250 OFFCURVE",
"669 267 OFFCURVE",
"670 284 CURVE",
"431 293 LINE",
"432 251 OFFCURVE",
"432 205 OFFCURVE",
"433 155 CURVE SMOOTH",
"433 104 OFFCURVE",
"437 54 OFFCURVE",
"444 3 CURVE",
"327 2 OFFCURVE",
"213 -4 OFFCURVE",
"104 -13 CURVE",
"101 3 OFFCURVE",
"97 32 OFFCURVE",
"93 68 CURVE SMOOTH",
"89 103 OFFCURVE",
"86 143 OFFCURVE",
"86 182 CURVE SMOOTH",
"86 203 OFFCURVE",
"86 225 OFFCURVE",
"86 246 CURVE SMOOTH",
"86 267 OFFCURVE",
"87 288 OFFCURVE",
"88 309 CURVE",
"33 311 LINE",
"24 447 LINE",
"104 450 LINE",
"113 530 OFFCURVE",
"127 596 OFFCURVE",
"150 637 CURVE",
"253 681 OFFCURVE",
"379 702 OFFCURVE",
"507 702 CURVE SMOOTH",
"592 702 OFFCURVE",
"690 688 OFFCURVE",
"770 661 CURVE",
"866 696 OFFCURVE",
"977 712 OFFCURVE",
"1090 712 CURVE SMOOTH",
"1174 712 OFFCURVE",
"1244 700 OFFCURVE",
"1293 688 CURVE SMOOTH",
"1322 681 OFFCURVE",
"1348 673 OFFCURVE",
"1371 665 CURVE",
"1356 618 OFFCURVE",
"1343 575 OFFCURVE",
"1339 515 CURVE",
"1314 518 OFFCURVE",
"1285 521 OFFCURVE",
"1249 522 CURVE SMOOTH",
"1231 523 OFFCURVE",
"1211 523 OFFCURVE",
"1190 523 CURVE SMOOTH",
"1139 523 OFFCURVE",
"1073 520 OFFCURVE",
"1020 507 CURVE",
"1013 496 OFFCURVE",
"1008 485 OFFCURVE",
"1004 473 CURVE"
);
},
{
closed = 1;
nodes = (
"687 467 LINE",
"688 474 OFFCURVE",
"688 481 OFFCURVE",
"689 489 CURVE SMOOTH",
"690 497 OFFCURVE",
"691 504 OFFCURVE",
"692 510 CURVE",
"668 512 OFFCURVE",
"640 513 OFFCURVE",
"607 513 CURVE SMOOTH",
"556 513 OFFCURVE",
"490 510 OFFCURVE",
"437 497 CURVE",
"430 486 OFFCURVE",
"425 475 OFFCURVE",
"421 463 CURVE"
);
}
);
width = 1767;
}
);
unicode = FB03;
},
{
glyphname = oe;
lastChange = "2015-10-17 22:46:10 +0000";
layers = (
{
layerId = "7A0FC40B-77F8-4D14-AD08-D047673E78CB";
name = Regular;
paths = (
{
closed = 1;
nodes = (
"788 -13 OFFCURVE",
"696 -9 OFFCURVE",
"609 8 CURVE",
"549 -5 OFFCURVE",
"481 -12 OFFCURVE",
"398 -12 CURVE SMOOTH",
"270 -12 OFFCURVE",
"168 2 OFFCURVE",
"96 33 CURVE",
"69 64 OFFCURVE",
"50 97 OFFCURVE",
"36 140 CURVE SMOOTH",
"22 183 OFFCURVE",
"15 233 OFFCURVE",
"15 296 CURVE SMOOTH",
"15 401 OFFCURVE",
"37 469 OFFCURVE",
"80 528 CURVE",
"153 571 OFFCURVE",
"263 592 OFFCURVE",
"409 592 CURVE SMOOTH",
"485 592 OFFCURVE",
"552 586 OFFCURVE",
"610 574 CURVE",
"679 589 OFFCURVE",
"756 596 OFFCURVE",
"841 596 CURVE SMOOTH",
"902 596 OFFCURVE",
"954 592 OFFCURVE",
"1007 585 CURVE SMOOTH",
"1059 577 OFFCURVE",
"1111 566 OFFCURVE",
"1172 550 CURVE",
"1187 511 OFFCURVE",
"1191 467 OFFCURVE",
"1191 420 CURVE SMOOTH",
"1191 353 OFFCURVE",
"1181 282 OFFCURVE",
"1162 235 CURVE",
"1081 224 OFFCURVE",
"982 222 OFFCURVE",
"885 222 CURVE SMOOTH",
"852 222 OFFCURVE",
"822 222 OFFCURVE",
"793 226 CURVE",
"797 207 OFFCURVE",
"802 192 OFFCURVE",
"807 177 CURVE",
"862 166 OFFCURVE",
"907 162 OFFCURVE",
"952 162 CURVE SMOOTH",
"1024 162 OFFCURVE",
"1085 168 OFFCURVE",
"1137 177 CURVE",
"1140 130 OFFCURVE",
"1147 69 OFFCURVE",
"1164 20 CURVE",
"1076 0 OFFCURVE",
"994 -13 OFFCURVE",
"887 -13 CURVE SMOOTH"
);
},
{
closed = 1;
nodes = (
"351 363 OFFCURVE",
"346 323 OFFCURVE",
"346 279 CURVE SMOOTH",
"346 218 OFFCURVE",
"346 178 OFFCURVE",
"357 155 CURVE",
"365 146 OFFCURVE",
"379 142 OFFCURVE",
"399 142 CURVE SMOOTH",
"430 142 OFFCURVE",
"449 167 OFFCURVE",
"455 212 CURVE SMOOTH",
"458 234 OFFCURVE",
"459 260 OFFCURVE",
"459 291 CURVE SMOOTH",
"459 349 OFFCURVE",
"454 389 OFFCURVE",
"444 411 CURVE",
"435 419 OFFCURVE",
"425 419 OFFCURVE",
"410 419 CURVE SMOOTH",
"389 419 OFFCURVE",
"378 415 OFFCURVE",
"366 404 CURVE"
);
},
{
closed = 1;
nodes = (
"849 426 OFFCURVE",
"819 423 OFFCURVE",
"776 410 CURVE",
"771 391 OFFCURVE",
"767 372 OFFCURVE",
"765 352 CURVE",
"805 352 OFFCURVE",
"847 353 OFFCURVE",
"895 357 CURVE",
"894 367 OFFCURVE",
"893 378 OFFCURVE",
"892 389 CURVE SMOOTH",
"891 400 OFFCURVE",
"888 413 OFFCURVE",
"885 426 CURVE"
);
}
);
width = 1206;
}
);
unicode = 0153;
},
{
glyphname = T_O;
lastChange = "2015-10-17 22:46:10 +0000";
layers = (
{
layerId = "7A0FC40B-77F8-4D14-AD08-D047673E78CB";
name = Regular;
paths = (
{
closed = 1;
nodes = (
"534 548 LINE",
"555 1 LINE",
"184 -12 LINE",
"201 508 LINE",
"5 517 LINE",
"5 700 LINE",
"66 701 OFFCURVE",
"171 702 OFFCURVE",
"299 703 CURVE SMOOTH",
"362 703 OFFCURVE",
"430 703 OFFCURVE",
"503 704 CURVE SMOOTH",
"648 704 OFFCURVE",
"799 706 OFFCURVE",
"944 707 CURVE SMOOTH",
"1017 708 OFFCURVE",
"1085 708 OFFCURVE",
"1149 709 CURVE SMOOTH",
"1276 709 OFFCURVE",
"1382 711 OFFCURVE",
"1443 712 CURVE",
"1450 571 LINE"
);
},
{
closed = 1;
nodes = (
"886 -12 OFFCURVE",
"778 2 OFFCURVE",
"702 33 CURVE",
"642 84 OFFCURVE",
"611 145 OFFCURVE",
"611 246 CURVE SMOOTH",
"611 298 OFFCURVE",
"618 338 OFFCURVE",
"631 374 CURVE SMOOTH",
"643 409 OFFCURVE",
"662 437 OFFCURVE",
"686 468 CURVE",
"767 511 OFFCURVE",
"890 532 OFFCURVE",
"1050 532 CURVE SMOOTH",
"1203 532 OFFCURVE",
"1321 511 OFFCURVE",
"1397 464 CURVE",
"1436 404 OFFCURVE",
"1457 343 OFFCURVE",
"1457 254 CURVE SMOOTH",
"1457 211 OFFCURVE",
"1452 177 OFFCURVE",
"1442 147 CURVE SMOOTH",
"1432 117 OFFCURVE",
"1416 91 OFFCURVE",
"1396 63 CURVE",
"1315 12 OFFCURVE",
"1194 -12 OFFCURVE",
"1019 -12 CURVE SMOOTH"
);
},
{
closed = 1;
nodes = (
"1064 118 OFFCURVE",
"1081 142 OFFCURVE",
"1088 182 CURVE SMOOTH",
"1095 221 OFFCURVE",
"1093 270 OFFCURVE",
"1089 295 CURVE",
"1088 306 OFFCURVE",
"1086 317 OFFCURVE",
"1084 326 CURVE SMOOTH",
"1082 335 OFFCURVE",
"1080 340 OFFCURVE",
"1078 340 CURVE",
"1070 352 OFFCURVE",
"1058 358 OFFCURVE",
"1041 358 CURVE SMOOTH",
"1020 358 OFFCURVE",
"1005 353 OFFCURVE",
"994 343 CURVE",
"979 312 OFFCURVE",
"974 291 OFFCURVE",
"974 239 CURVE SMOOTH",
"974 190 OFFCURVE",
"978 158 OFFCURVE",
"985 141 CURVE",
"992 126 OFFCURVE",
"1003 118 OFFCURVE",
"1020 118 CURVE SMOOTH"
);
}
);
width = 1338;
}
);
},
{
glyphname = ogonek;
lastChange = "2015-10-17 22:46:10 +0000";
layers = (
{
layerId = "7A0FC40B-77F8-4D14-AD08-D047673E78CB";
name = Regular;
paths = (
{
closed = 1;
nodes = (
"374 -123 OFFCURVE",
"395 -125 OFFCURVE",
"415 -125 CURVE SMOOTH",
"455 -125 OFFCURVE",
"483 -120 OFFCURVE",
"526 -100 CURVE",
"536 -161 LINE",
"476 -180 OFFCURVE",
"418 -192 OFFCURVE",
"341 -192 CURVE SMOOTH",
"285 -192 OFFCURVE",
"224 -186 OFFCURVE",
"167 -173 CURVE",
"147 -152 OFFCURVE",
"139 -122 OFFCURVE",
"139 -91 CURVE SMOOTH",
"139 -79 OFFCURVE",
"140 -67 OFFCURVE",
"142 -55 CURVE",
"194 -19 OFFCURVE",
"239 4 OFFCURVE",
"319 20 CURVE",
"516 20 LINE",
"452 -8 OFFCURVE",
"406 -33 OFFCURVE",
"361 -72 CURVE",
"354 -85 OFFCURVE",
"353 -99 OFFCURVE",
"353 -116 CURVE"
);
}
);
width = 593;
}
);
unicode = 02DB;
},
{
glyphname = eogonek;
lastChange = "2015-10-17 22:46:10 +0000";
layers = (
{
layerId = "7A0FC40B-77F8-4D14-AD08-D047673E78CB";
name = Regular;
paths = (
{
closed = 1;
nodes = (
"416 222 OFFCURVE",
"386 222 OFFCURVE",
"357 226 CURVE",
"361 207 OFFCURVE",
"366 192 OFFCURVE",
"371 177 CURVE",
"426 166 OFFCURVE",
"471 162 OFFCURVE",
"516 162 CURVE SMOOTH",
"588 162 OFFCURVE",
"649 168 OFFCURVE",
"701 177 CURVE",
"704 130 OFFCURVE",
"711 69 OFFCURVE",
"728 20 CURVE",
"640 0 OFFCURVE",
"558 -13 OFFCURVE",
"451 -13 CURVE SMOOTH",
"306 -13 OFFCURVE",
"171 -6 OFFCURVE",
"54 45 CURVE",
"22 109 OFFCURVE",
"5 199 OFFCURVE",
"5 290 CURVE SMOOTH",
"5 381 OFFCURVE",
"19 460 OFFCURVE",
"74 547 CURVE",
"174 582 OFFCURVE",
"280 596 OFFCURVE",
"405 596 CURVE SMOOTH",
"466 596 OFFCURVE",
"518 592 OFFCURVE",
"571 585 CURVE SMOOTH",
"623 577 OFFCURVE",
"675 566 OFFCURVE",
"736 550 CURVE",
"751 511 OFFCURVE",
"755 467 OFFCURVE",
"755 420 CURVE SMOOTH",
"755 353 OFFCURVE",
"745 282 OFFCURVE",
"726 235 CURVE",
"645 224 OFFCURVE",
"546 222 OFFCURVE",
"449 222 CURVE SMOOTH"
);
},
{
closed = 1;
nodes = (
"413 426 OFFCURVE",
"383 423 OFFCURVE",
"340 410 CURVE",
"335 391 OFFCURVE",
"331 372 OFFCURVE",
"329 352 CURVE",
"369 352 OFFCURVE",
"411 353 OFFCURVE",
"459 357 CURVE",
"458 367 OFFCURVE",
"457 378 OFFCURVE",
"456 389 CURVE SMOOTH",
"455 400 OFFCURVE",
"452 413 OFFCURVE",
"449 426 CURVE"
);
},
{
closed = 1;
nodes = (
"553 -123 OFFCURVE",
"574 -125 OFFCURVE",
"594 -125 CURVE SMOOTH",
"634 -125 OFFCURVE",
"662 -120 OFFCURVE",
"705 -100 CURVE",
"715 -161 LINE",
"655 -180 OFFCURVE",
"597 -192 OFFCURVE",
"520 -192 CURVE SMOOTH",
"464 -192 OFFCURVE",
"403 -186 OFFCURVE",
"346 -173 CURVE",
"326 -152 OFFCURVE",
"318 -122 OFFCURVE",
"318 -91 CURVE SMOOTH",
"318 -79 OFFCURVE",
"319 -67 OFFCURVE",
"321 -55 CURVE",
"373 -19 OFFCURVE",
"418 4 OFFCURVE",
"498 20 CURVE",
"695 20 LINE",
"631 -8 OFFCURVE",
"585 -33 OFFCURVE",
"540 -72 CURVE",
"533 -85 OFFCURVE",
"532 -99 OFFCURVE",
"532 -116 CURVE"
);
}
);
width = 770;
}
);
unicode = 0119;
},
{
glyphname = hungarumlaut;
lastChange = "2015-10-17 22:46:10 +0000";
layers = (
{
layerId = "7A0FC40B-77F8-4D14-AD08-D047673E78CB";
name = Regular;
paths = (
{
closed = 1;
nodes = (
"98 682 OFFCURVE",
"160 691 OFFCURVE",
"220 701 CURVE SMOOTH",
"280 711 OFFCURVE",
"338 723 OFFCURVE",
"389 736 CURVE",
"393 675 OFFCURVE",
"404 629 OFFCURVE",
"417 578 CURVE",
"308 573 OFFCURVE",
"192 565 OFFCURVE",
"80 542 CURVE",
"77 587 OFFCURVE",
"64 630 OFFCURVE",
"45 677 CURVE"
);
},
{
closed = 1;
nodes = (
"468 689 OFFCURVE",
"526 698 OFFCURVE",
"583 710 CURVE SMOOTH",
"639 721 OFFCURVE",
"694 735 OFFCURVE",
"741 751 CURVE",
"745 686 OFFCURVE",
"756 638 OFFCURVE",
"769 583 CURVE",
"664 578 OFFCURVE",
"551 570 OFFCURVE",
"442 547 CURVE",
"439 592 OFFCURVE",
"430 635 OFFCURVE",
"417 682 CURVE"
);
}
);
width = 814;
}
);
unicode = 02DD;
},
{
glyphname = uhungarumlaut;
lastChange = "2015-10-17 22:46:10 +0000";
layers = (
{
layerId = "7A0FC40B-77F8-4D14-AD08-D047673E78CB";
name = Regular;
paths = (
{
closed = 1;
nodes = (
"82 682 OFFCURVE",
"144 691 OFFCURVE",
"204 701 CURVE SMOOTH",
"264 711 OFFCURVE",
"322 723 OFFCURVE",
"373 736 CURVE",
"377 675 OFFCURVE",
"388 629 OFFCURVE",
"401 578 CURVE",
"292 573 OFFCURVE",
"176 565 OFFCURVE",
"64 542 CURVE",
"61 587 OFFCURVE",
"48 630 OFFCURVE",
"29 677 CURVE"
);
},
{
closed = 1;
nodes = (
"452 689 OFFCURVE",
"510 698 OFFCURVE",
"567 710 CURVE SMOOTH",
"623 721 OFFCURVE",
"678 735 OFFCURVE",
"725 751 CURVE",
"729 686 OFFCURVE",
"740 638 OFFCURVE",
"753 583 CURVE",
"648 578 OFFCURVE",
"535 570 OFFCURVE",
"426 547 CURVE",
"423 592 OFFCURVE",
"414 635 OFFCURVE",
"401 682 CURVE"
);
},
{
closed = 1;
nodes = (
"424 540 LINE",
"537 540 OFFCURVE",
"645 540 OFFCURVE",
"749 552 CURVE",
"749 504 OFFCURVE",
"749 457 OFFCURVE",
"749 412 CURVE SMOOTH",
"749 320 OFFCURVE",
"750 231 OFFCURVE",
"754 140 CURVE SMOOTH",
"755 95 OFFCURVE",
"757 48 OFFCURVE",
"760 1 CURVE",
"399 -12 LINE",
"405 48 LINE",
"334 0 OFFCURVE",
"277 -12 OFFCURVE",
"221 -12 CURVE SMOOTH",
"153 -12 OFFCURVE",
"109 5 OFFCURVE",
"64 34 CURVE",
"33 111 OFFCURVE",
"25 186 OFFCURVE",
"25 295 CURVE SMOOTH",
"25 367 OFFCURVE",
"28 449 OFFCURVE",
"35 529 CURVE",
"78 528 OFFCURVE",
"122 527 OFFCURVE",
"165 527 CURVE SMOOTH",
"230 527 OFFCURVE",
"294 530 OFFCURVE",
"362 537 CURVE",
"355 480 OFFCURVE",
"353 426 OFFCURVE",
"353 386 CURVE SMOOTH",
"353 334 OFFCURVE",
"357 290 OFFCURVE",
"364 251 CURVE",
"390 251 OFFCURVE",
"414 261 OFFCURVE",
"437 282 CURVE"
);
}
);
width = 780;
}
);
unicode = 0171;
},
{
glyphname = uogonek;
lastChange = "2015-10-17 22:46:10 +0000";
layers = (
{
layerId = "7A0FC40B-77F8-4D14-AD08-D047673E78CB";
name = Regular;
paths = (
{
closed = 1;
nodes = (
"424 590 LINE",
"537 591 OFFCURVE",
"645 593 OFFCURVE",
"749 602 CURVE",
"749 395 OFFCURVE",
"749 205 OFFCURVE",
"760 1 CURVE",
"399 -12 LINE",
"405 48 LINE",
"334 0 OFFCURVE",
"277 -12 OFFCURVE",
"221 -12 CURVE SMOOTH",
"153 -12 OFFCURVE",
"109 5 OFFCURVE",
"64 34 CURVE",
"33 111 OFFCURVE",
"25 186 OFFCURVE",
"25 295 CURVE SMOOTH",
"25 318 OFFCURVE",
"25 343 OFFCURVE",
"25 370 CURVE SMOOTH",
"25 425 OFFCURVE",
"26 481 OFFCURVE",
"29 529 CURVE SMOOTH",
"30 553 OFFCURVE",
"32 573 OFFCURVE",
"35 589 CURVE",
"78 588 OFFCURVE",
"122 587 OFFCURVE",
"165 587 CURVE SMOOTH",
"229 587 OFFCURVE",
"294 589 OFFCURVE",
"362 597 CURVE",
"355 536 OFFCURVE",
"353 479 OFFCURVE",
"353 436 CURVE SMOOTH",
"353 364 OFFCURVE",
"357 304 OFFCURVE",
"364 251 CURVE",
"390 251 OFFCURVE",
"414 261 OFFCURVE",
"437 282 CURVE"
);
},
{
closed = 1;
nodes = (
"598 -123 OFFCURVE",
"619 -125 OFFCURVE",
"639 -125 CURVE SMOOTH",
"679 -125 OFFCURVE",
"707 -120 OFFCURVE",
"750 -100 CURVE",
"760 -161 LINE",
"700 -180 OFFCURVE",
"642 -192 OFFCURVE",
"565 -192 CURVE SMOOTH",
"509 -192 OFFCURVE",
"448 -186 OFFCURVE",
"391 -173 CURVE",
"371 -152 OFFCURVE",
"363 -122 OFFCURVE",
"363 -91 CURVE SMOOTH",
"363 -79 OFFCURVE",
"364 -67 OFFCURVE",
"366 -55 CURVE",
"418 -19 OFFCURVE",
"463 4 OFFCURVE",
"543 20 CURVE",
"740 20 LINE",
"676 -8 OFFCURVE",
"630 -33 OFFCURVE",
"585 -72 CURVE",
"578 -85 OFFCURVE",
"577 -99 OFFCURVE",
"577 -116 CURVE"
);
}
);
width = 780;
}
);
unicode = 0173;
},
{
glyphname = iogonek;
lastChange = "2015-10-17 22:46:10 +0000";
layers = (
{
layerId = "7A0FC40B-77F8-4D14-AD08-D047673E78CB";
name = Regular;
paths = (
{
closed = 1;
nodes = (
"331 509 LINE",
"275 515 OFFCURVE",
"222 518 OFFCURVE",
"172 518 CURVE SMOOTH",
"121 518 OFFCURVE",
"74 516 OFFCURVE",
"27 513 CURVE",
"28 520 OFFCURVE",
"28 527 OFFCURVE",
"28 534 CURVE SMOOTH",
"28 540 OFFCURVE",
"28 546 OFFCURVE",
"28 552 CURVE SMOOTH",
"28 604 OFFCURVE",
"23 647 OFFCURVE",
"15 699 CURVE",
"376 712 LINE"
);
},
{
closed = 1;
nodes = (
"356 0 LINE",
"249 -1 OFFCURVE",
"135 -3 OFFCURVE",
"36 -12 CURVE",
"36 149 OFFCURVE",
"36 309 OFFCURVE",
"29 470 CURVE",
"42 469 OFFCURVE",
"54 469 OFFCURVE",
"67 469 CURVE SMOOTH",
"80 469 OFFCURVE",
"93 469 OFFCURVE",
"106 469 CURVE SMOOTH",
"189 469 OFFCURVE",
"270 473 OFFCURVE",
"346 480 CURVE"
);
},
{
closed = 1;
nodes = (
"238 -123 OFFCURVE",
"259 -125 OFFCURVE",
"279 -125 CURVE SMOOTH",
"319 -125 OFFCURVE",
"347 -120 OFFCURVE",
"390 -100 CURVE",
"400 -161 LINE",
"340 -180 OFFCURVE",
"282 -192 OFFCURVE",
"205 -192 CURVE SMOOTH",
"149 -192 OFFCURVE",
"88 -186 OFFCURVE",
"31 -173 CURVE",
"11 -152 OFFCURVE",
"3 -122 OFFCURVE",
"3 -91 CURVE SMOOTH",
"3 -79 OFFCURVE",
"4 -67 OFFCURVE",
"6 -55 CURVE",
"58 -19 OFFCURVE",
"103 4 OFFCURVE",
"183 20 CURVE",
"380 20 LINE",
"316 -8 OFFCURVE",
"270 -33 OFFCURVE",
"225 -72 CURVE",
"218 -85 OFFCURVE",
"217 -99 OFFCURVE",
"217 -116 CURVE"
);
}
);
width = 401;
}
);
unicode = 012F;
},
{
glyphname = Eogonek;
lastChange = "2015-10-17 22:46:10 +0000";
layers = (
{
layerId = "7A0FC40B-77F8-4D14-AD08-D047673E78CB";
name = Regular;
paths = (
{
closed = 1;
nodes = (
"693 160 LINE",
"679 1 LINE",
"456 -2 OFFCURVE",
"238 -5 OFFCURVE",
"10 -12 CURVE",
"18 228 OFFCURVE",
"21 463 OFFCURVE",
"21 700 CURVE",
"244 703 OFFCURVE",
"463 707 OFFCURVE",
"680 712 CURVE",
"668 539 LINE",
"569 542 OFFCURVE",
"471 544 OFFCURVE",
"362 544 CURVE",
"362 443 LINE",
"449 444 OFFCURVE",
"534 446 OFFCURVE",
"625 449 CURVE",
"608 291 LINE",
"351 281 LINE",
"361 149 LINE"
);
},
{
closed = 1;
nodes = (
"531 -123 OFFCURVE",
"552 -125 OFFCURVE",
"572 -125 CURVE SMOOTH",
"612 -125 OFFCURVE",
"640 -120 OFFCURVE",
"683 -100 CURVE",
"693 -161 LINE",
"633 -180 OFFCURVE",
"575 -192 OFFCURVE",
"498 -192 CURVE SMOOTH",
"442 -192 OFFCURVE",
"381 -186 OFFCURVE",
"324 -173 CURVE",
"304 -152 OFFCURVE",
"296 -122 OFFCURVE",
"296 -91 CURVE SMOOTH",
"296 -79 OFFCURVE",
"297 -67 OFFCURVE",
"299 -55 CURVE",
"351 -19 OFFCURVE",
"396 4 OFFCURVE",
"476 20 CURVE",
"673 20 LINE",
"609 -8 OFFCURVE",
"563 -33 OFFCURVE",
"518 -72 CURVE",
"511 -85 OFFCURVE",
"510 -99 OFFCURVE",
"510 -116 CURVE"
);
}
);
width = 708;
}
);
unicode = 0118;
},
{
glyphname = Iogonek;
lastChange = "2015-10-17 22:46:10 +0000";
layers = (
{
layerId = "7A0FC40B-77F8-4D14-AD08-D047673E78CB";
name = Regular;
paths = (
{
closed = 1;
nodes = (
"376 1 LINE",
"10 -12 LINE",
"33 700 LINE",
"365 712 LINE"
);
},
{
closed = 1;
nodes = (
"215 -123 OFFCURVE",
"236 -125 OFFCURVE",
"256 -125 CURVE SMOOTH",
"296 -125 OFFCURVE",
"324 -120 OFFCURVE",
"367 -100 CURVE",
"377 -161 LINE",
"317 -180 OFFCURVE",
"259 -192 OFFCURVE",
"182 -192 CURVE SMOOTH",
"126 -192 OFFCURVE",
"65 -186 OFFCURVE",
"8 -173 CURVE",
"-12 -152 OFFCURVE",
"-20 -122 OFFCURVE",
"-20 -91 CURVE SMOOTH",
"-20 -79 OFFCURVE",
"-19 -67 OFFCURVE",
"-17 -55 CURVE",
"35 -19 OFFCURVE",
"80 4 OFFCURVE",
"160 20 CURVE",
"357 20 LINE",
"293 -8 OFFCURVE",
"247 -33 OFFCURVE",
"202 -72 CURVE",
"195 -85 OFFCURVE",
"194 -99 OFFCURVE",
"194 -116 CURVE"
);
}
);
width = 386;
}
);
unicode = 012E;
},
{
glyphname = Uogonek;
lastChange = "2015-10-17 22:46:10 +0000";
layers = (
{
layerId = "7A0FC40B-77F8-4D14-AD08-D047673E78CB";
name = Regular;
paths = (
{
closed = 1;
nodes = (
"366 712 LINE",
"361 648 OFFCURVE",
"356 590 OFFCURVE",
"353 530 CURVE SMOOTH",
"350 470 OFFCURVE",
"348 408 OFFCURVE",
"348 339 CURVE SMOOTH",
"348 290 OFFCURVE",
"349 251 OFFCURVE",
"351 223 CURVE",
"352 194 OFFCURVE",
"355 173 OFFCURVE",
"359 160 CURVE",
"370 148 OFFCURVE",
"385 148 OFFCURVE",
"404 148 CURVE SMOOTH",
"425 148 OFFCURVE",
"444 152 OFFCURVE",
"460 159 CURVE",
"480 188 OFFCURVE",
"487 251 OFFCURVE",
"487 351 CURVE SMOOTH",
"487 472 OFFCURVE",
"480 577 OFFCURVE",
"471 700 CURVE",
"783 712 LINE",
"799 583 OFFCURVE",
"802 454 OFFCURVE",
"802 318 CURVE SMOOTH",
"802 194 OFFCURVE",
"775 107 OFFCURVE",
"726 48 CURVE",
"651 8 OFFCURVE",
"540 -12 OFFCURVE",
"403 -12 CURVE SMOOTH",
"258 -12 OFFCURVE",
"148 8 OFFCURVE",
"76 55 CURVE",
"36 115 OFFCURVE",
"15 202 OFFCURVE",
"15 326 CURVE SMOOTH",
"15 450 OFFCURVE",
"19 569 OFFCURVE",
"35 700 CURVE"
);
},
{
closed = 1;
nodes = (
"460 -123 OFFCURVE",
"481 -125 OFFCURVE",
"501 -125 CURVE SMOOTH",
"541 -125 OFFCURVE",
"569 -120 OFFCURVE",
"612 -100 CURVE",
"622 -161 LINE",
"562 -180 OFFCURVE",
"504 -192 OFFCURVE",
"427 -192 CURVE SMOOTH",
"371 -192 OFFCURVE",
"310 -186 OFFCURVE",
"253 -173 CURVE",
"233 -152 OFFCURVE",
"225 -122 OFFCURVE",
"225 -91 CURVE SMOOTH",
"225 -79 OFFCURVE",
"226 -67 OFFCURVE",
"228 -55 CURVE",
"280 -19 OFFCURVE",
"325 4 OFFCURVE",
"405 20 CURVE",
"602 20 LINE",
"538 -8 OFFCURVE",
"492 -33 OFFCURVE",
"447 -72 CURVE",
"440 -85 OFFCURVE",
"439 -99 OFFCURVE",
"439 -116 CURVE"
);
}
);
width = 817;
}
);
unicode = 0172;
},
{
glyphname = hyphen;
lastChange = "2015-10-17 22:46:10 +0000";
layers = (
{
layerId = "7A0FC40B-77F8-4D14-AD08-D047673E78CB";
name = Regular;
paths = (
{
closed = 1;
nodes = (
"89 363 OFFCURVE",
"138 365 OFFCURVE",
"186 368 CURVE SMOOTH",
"234 371 OFFCURVE",
"280 373 OFFCURVE",
"319 376 CURVE",
"314 315 OFFCURVE",
"310 269 OFFCURVE",
"307 218 CURVE",
"223 225 OFFCURVE",
"147 226 OFFCURVE",
"60 227 CURVE",
"59 272 OFFCURVE",
"53 315 OFFCURVE",
"45 362 CURVE"
);
}
);
width = 364;
}
);
unicode = 002D;
},
{
glyphname = parenleft;
lastChange = "2015-10-17 22:46:10 +0000";
layers = (
{
layerId = "7A0FC40B-77F8-4D14-AD08-D047673E78CB";
name = Regular;
paths = (
{
closed = 1;
nodes = (
"313 -192 LINE",
"272 -192 OFFCURVE",
"239 -188 OFFCURVE",
"208 -178 CURVE SMOOTH",
"177 -168 OFFCURVE",
"150 -152 OFFCURVE",
"122 -125 CURVE",
"73 -28 OFFCURVE",
"45 112 OFFCURVE",
"45 284 CURVE SMOOTH",
"45 467 OFFCURVE",
"70 601 OFFCURVE",
"145 706 CURVE",
"198 733 OFFCURVE",
"260 750 OFFCURVE",
"332 750 CURVE",
"347 532 LINE",
"311 519 OFFCURVE",
"290 488 OFFCURVE",
"278 445 CURVE SMOOTH",
"266 401 OFFCURVE",
"264 346 OFFCURVE",
"264 286 CURVE SMOOTH",
"264 217 OFFCURVE",
"269 151 OFFCURVE",
"282 97 CURVE SMOOTH",
"294 43 OFFCURVE",
"315 2 OFFCURVE",
"348 -18 CURVE"
);
}
);
width = 393;
}
);
unicode = 0028;
},
{
glyphname = parenright;
lastChange = "2015-10-17 22:46:10 +0000";
layers = (
{
layerId = "7A0FC40B-77F8-4D14-AD08-D047673E78CB";
name = Regular;
paths = (
{
closed = 1;
nodes = (
"80 750 LINE",
"121 750 OFFCURVE",
"154 747 OFFCURVE",
"185 737 CURVE SMOOTH",
"216 727 OFFCURVE",
"243 710 OFFCURVE",
"271 683 CURVE",
"320 586 OFFCURVE",
"348 446 OFFCURVE",
"348 274 CURVE SMOOTH",
"348 91 OFFCURVE",
"323 -43 OFFCURVE",
"248 -148 CURVE",
"195 -175 OFFCURVE",
"133 -192 OFFCURVE",
"61 -192 CURVE",
"46 26 LINE",
"82 39 OFFCURVE",
"103 70 OFFCURVE",
"115 114 CURVE SMOOTH",
"127 157 OFFCURVE",
"129 212 OFFCURVE",
"129 272 CURVE SMOOTH",
"129 341 OFFCURVE",
"124 408 OFFCURVE",
"112 462 CURVE SMOOTH",
"99 516 OFFCURVE",
"78 556 OFFCURVE",
"45 576 CURVE"
);
}
);
width = 393;
}
);
unicode = 0029;
},
{
glyphname = endash;
lastChange = "2015-10-17 22:46:10 +0000";
layers = (
{
layerId = "7A0FC40B-77F8-4D14-AD08-D047673E78CB";
name = Regular;
paths = (
{
closed = 1;
nodes = (
"141 363 OFFCURVE",
"278 365 OFFCURVE",
"412 368 CURVE SMOOTH",
"546 371 OFFCURVE",
"675 373 OFFCURVE",
"782 376 CURVE",
"777 315 OFFCURVE",
"773 269 OFFCURVE",
"770 218 CURVE",
"645 222 OFFCURVE",
"525 224 OFFCURVE",
"405 225 CURVE SMOOTH",
"284 226 OFFCURVE",
"162 227 OFFCURVE",
"33 227 CURVE",
"32 272 OFFCURVE",
"26 315 OFFCURVE",
"18 362 CURVE"
);
}
);
width = 827;
}
);
unicode = 2013;
},
{
glyphname = emdash;
lastChange = "2015-10-17 22:46:10 +0000";
layers = (
{
layerId = "7A0FC40B-77F8-4D14-AD08-D047673E78CB";
name = Regular;
paths = (
{
closed = 1;
nodes = (
"193 363 OFFCURVE",
"391 365 OFFCURVE",
"587 368 CURVE SMOOTH",
"782 371 OFFCURVE",
"972 373 OFFCURVE",
"1132 376 CURVE",
"1125 315 OFFCURVE",
"1120 269 OFFCURVE",
"1120 218 CURVE",
"941 222 OFFCURVE",
"769 224 OFFCURVE",
"592 225 CURVE SMOOTH",
"415 226 OFFCURVE",
"232 227 OFFCURVE",
"33 227 CURVE",
"32 272 OFFCURVE",
"26 315 OFFCURVE",
"18 362 CURVE"
);
}
);
width = 1177;
}
);
unicode = 2014;
},
{
glyphname = minus;
lastChange = "2015-10-17 22:46:10 +0000";
layers = (
{
layerId = "7A0FC40B-77F8-4D14-AD08-D047673E78CB";
name = Regular;
paths = (
{
closed = 1;
nodes = (
"109 363 OFFCURVE",
"210 365 OFFCURVE",
"309 368 CURVE SMOOTH",
"408 371 OFFCURVE",
"503 373 OFFCURVE",
"582 376 CURVE",
"577 315 OFFCURVE",
"573 269 OFFCURVE",
"570 218 CURVE",
"387 225 OFFCURVE",
"221 226 OFFCURVE",
"33 227 CURVE",
"32 272 OFFCURVE",
"26 315 OFFCURVE",
"18 362 CURVE"
);
}
);
width = 627;
}
);
unicode = 2212;
},
{
glyphname = A.peq;
lastChange = "2015-10-17 22:46:10 +0000";
layers = (
{
layerId = "7A0FC40B-77F8-4D14-AD08-D047673E78CB";
name = Regular;
paths = (
{
closed = 1;
nodes = (
"5 12 LINE",
"49 103 OFFCURVE",
"86 189 OFFCURVE",
"119 276 CURVE SMOOTH",
"151 363 OFFCURVE",
"179 451 OFFCURVE",
"204 544 CURVE",
"277 544 OFFCURVE",
"363 546 OFFCURVE",
"447 549 CURVE SMOOTH",
"531 552 OFFCURVE",
"613 557 OFFCURVE",
"681 562 CURVE",
"716 373 OFFCURVE",
"766 195 OFFCURVE",
"845 6 CURVE",
"716 3 OFFCURVE",
"586 -3 OFFCURVE",
"451 -12 CURVE",
"439 60 LINE",
"277 60 LINE",
"267 -7 LINE"
);
},
{
closed = 1;
nodes = (
"358 312 LINE",
"314 205 LINE",
"426 212 LINE",
"392 315 LINE"
);
}
);
width = 850;
}
);
},
{
glyphname = Aacute;
lastChange = "2015-10-17 22:46:10 +0000";
layers = (
{
layerId = "7A0FC40B-77F8-4D14-AD08-D047673E78CB";
name = Regular;
paths = (
{
closed = 1;
nodes = (
"5 12 LINE",
"49 103 OFFCURVE",
"86 189 OFFCURVE",
"119 276 CURVE SMOOTH",
"151 363 OFFCURVE",
"179 451 OFFCURVE",
"204 544 CURVE",
"277 544 OFFCURVE",
"363 546 OFFCURVE",
"447 549 CURVE SMOOTH",
"531 552 OFFCURVE",
"613 557 OFFCURVE",
"681 562 CURVE",
"716 373 OFFCURVE",
"766 195 OFFCURVE",
"845 6 CURVE",
"716 3 OFFCURVE",
"586 -3 OFFCURVE",
"451 -12 CURVE",
"439 60 LINE",
"277 60 LINE",
"267 -7 LINE"
);
},
{
closed = 1;
nodes = (
"358 312 LINE",
"314 205 LINE",
"426 212 LINE",
"392 315 LINE"
);
},
{
closed = 1;
nodes = (
"258 713 OFFCURVE",
"338 722 OFFCURVE",
"415 734 CURVE SMOOTH",
"492 745 OFFCURVE",
"569 759 OFFCURVE",
"633 775 CURVE",
"637 710 OFFCURVE",
"648 662 OFFCURVE",
"661 607 CURVE",
"520 602 OFFCURVE",
"369 594 OFFCURVE",
"224 571 CURVE",
"221 616 OFFCURVE",
"208 659 OFFCURVE",
"189 706 CURVE"
);
}
);
width = 850;
}
);
unicode = 00C1;
},
{
glyphname = Abreve;
lastChange = "2015-10-17 22:46:10 +0000";
layers = (
{
layerId = "7A0FC40B-77F8-4D14-AD08-D047673E78CB";
name = Regular;
paths = (
{
closed = 1;
nodes = (
"575 582 OFFCURVE",
"502 571 OFFCURVE",
"425 571 CURVE SMOOTH",
"348 571 OFFCURVE",
"273 582 OFFCURVE",
"204 617 CURVE",
"216 660 OFFCURVE",
"227 699 OFFCURVE",
"232 750 CURVE",
"280 735 OFFCURVE",
"349 725 OFFCURVE",
"425 725 CURVE SMOOTH",
"505 725 OFFCURVE",
"576 748 OFFCURVE",
"628 775 CURVE",
"631 714 OFFCURVE",
"638 668 OFFCURVE",
"646 617 CURVE"
);
},
{
closed = 1;
nodes = (
"5 12 LINE",
"49 103 OFFCURVE",
"86 189 OFFCURVE",
"119 276 CURVE SMOOTH",
"151 363 OFFCURVE",
"179 451 OFFCURVE",
"204 544 CURVE",
"277 544 OFFCURVE",
"363 546 OFFCURVE",
"447 549 CURVE SMOOTH",
"531 552 OFFCURVE",
"613 557 OFFCURVE",
"681 562 CURVE",
"716 373 OFFCURVE",
"766 195 OFFCURVE",
"845 6 CURVE",
"716 3 OFFCURVE",
"586 -3 OFFCURVE",
"451 -12 CURVE",
"439 60 LINE",
"277 60 LINE",
"267 -7 LINE"
);
},
{
closed = 1;
nodes = (
"358 312 LINE",
"314 205 LINE",
"426 212 LINE",
"392 315 LINE"
);
}
);
width = 850;
}
);
unicode = 0102;
},
{
glyphname = Acircumflex;
lastChange = "2015-10-17 22:46:10 +0000";
layers = (
{
layerId = "7A0FC40B-77F8-4D14-AD08-D047673E78CB";
name = Regular;
paths = (
{
closed = 1;
nodes = (
"252 722 OFFCURVE",
"340 748 OFFCURVE",
"424 775 CURVE",
"520 758 OFFCURVE",
"600 730 OFFCURVE",
"673 699 CURVE",
"656 656 OFFCURVE",
"643 620 OFFCURVE",
"639 571 CURVE",
"576 587 OFFCURVE",
"494 599 OFFCURVE",
"425 607 CURVE",
"353 596 OFFCURVE",
"269 582 OFFCURVE",
"205 561 CURVE",
"203 586 OFFCURVE",
"199 608 OFFCURVE",
"194 628 CURVE",
"188 647 OFFCURVE",
"182 668 OFFCURVE",
"176 689 CURVE"
);
},
{
closed = 1;
nodes = (
"5 12 LINE",
"49 103 OFFCURVE",
"86 189 OFFCURVE",
"119 276 CURVE SMOOTH",
"151 363 OFFCURVE",
"179 451 OFFCURVE",
"204 544 CURVE",
"277 544 OFFCURVE",
"363 546 OFFCURVE",
"447 549 CURVE SMOOTH",
"531 552 OFFCURVE",
"613 557 OFFCURVE",
"681 562 CURVE",
"716 373 OFFCURVE",
"766 195 OFFCURVE",
"845 6 CURVE",
"716 3 OFFCURVE",
"586 -3 OFFCURVE",
"451 -12 CURVE",
"439 60 LINE",
"277 60 LINE",
"267 -7 LINE"
);
},
{
closed = 1;
nodes = (
"358 312 LINE",
"314 205 LINE",
"426 212 LINE",
"392 315 LINE"
);
}
);
width = 850;
}
);
unicode = 00C2;
},
{
glyphname = Agrave;
lastChange = "2015-10-17 22:46:10 +0000";
layers = (
{
layerId = "7A0FC40B-77F8-4D14-AD08-D047673E78CB";
name = Regular;
paths = (
{
closed = 1;
nodes = (
"642 659 OFFCURVE",
"629 616 OFFCURVE",
"626 571 CURVE",
"481 594 OFFCURVE",
"330 602 OFFCURVE",
"189 607 CURVE",
"202 662 OFFCURVE",
"213 710 OFFCURVE",
"217 775 CURVE",
"281 759 OFFCURVE",
"358 745 OFFCURVE",
"435 734 CURVE SMOOTH",
"512 722 OFFCURVE",
"592 713 OFFCURVE",
"661 706 CURVE"
);
},
{
closed = 1;
nodes = (
"5 12 LINE",
"49 103 OFFCURVE",
"86 189 OFFCURVE",
"119 276 CURVE SMOOTH",
"151 363 OFFCURVE",
"179 451 OFFCURVE",
"204 544 CURVE",
"277 544 OFFCURVE",
"363 546 OFFCURVE",
"447 549 CURVE SMOOTH",
"531 552 OFFCURVE",
"613 557 OFFCURVE",
"681 562 CURVE",
"716 373 OFFCURVE",
"766 195 OFFCURVE",
"845 6 CURVE",
"716 3 OFFCURVE",
"586 -3 OFFCURVE",
"451 -12 CURVE",
"439 60 LINE",
"277 60 LINE",
"267 -7 LINE"
);
},
{
closed = 1;
nodes = (
"358 312 LINE",
"314 205 LINE",
"426 212 LINE",
"392 315 LINE"
);
}
);
width = 850;
}
);
unicode = 00C0;
},
{
glyphname = Adieresis;
lastChange = "2015-10-17 22:46:10 +0000";
layers = (
{
layerId = "7A0FC40B-77F8-4D14-AD08-D047673E78CB";
name = Regular;
paths = (
{
closed = 1;
nodes = (
"446 742 LINE",
"518 745 OFFCURVE",
"587 747 OFFCURVE",
"647 750 CURVE",
"642 689 OFFCURVE",
"638 643 OFFCURVE",
"635 592 CURVE",
"605 593 OFFCURVE",
"576 595 OFFCURVE",
"547 596 CURVE SMOOTH",
"518 597 OFFCURVE",
"488 598 OFFCURVE",
"457 599 CURVE"
);
},
{
closed = 1;
nodes = (
"407 599 LINE",
"218 599 LINE",
"218 644 OFFCURVE",
"212 689 OFFCURVE",
"203 736 CURVE",
"263 737 OFFCURVE",
"328 739 OFFCURVE",
"396 742 CURVE"
);
},
{
closed = 1;
nodes = (
"5 12 LINE",
"49 103 OFFCURVE",
"86 189 OFFCURVE",
"119 276 CURVE SMOOTH",
"151 363 OFFCURVE",
"179 451 OFFCURVE",
"204 544 CURVE",
"277 544 OFFCURVE",
"363 546 OFFCURVE",
"447 549 CURVE SMOOTH",
"531 552 OFFCURVE",
"613 557 OFFCURVE",
"681 562 CURVE",
"716 373 OFFCURVE",
"766 195 OFFCURVE",
"845 6 CURVE",
"716 3 OFFCURVE",
"586 -3 OFFCURVE",
"451 -12 CURVE",
"439 60 LINE",
"277 60 LINE",
"267 -7 LINE"
);
},
{
closed = 1;
nodes = (
"358 312 LINE",
"314 205 LINE",
"426 212 LINE",
"392 315 LINE"
);
}
);
width = 850;
}
);
unicode = 00C4;
},
{
glyphname = Amacron;
lastChange = "2015-10-17 22:46:10 +0000";
layers = (
{
layerId = "7A0FC40B-77F8-4D14-AD08-D047673E78CB";
name = Regular;
paths = (
{
closed = 1;
nodes = (
"272 737 OFFCURVE",
"352 739 OFFCURVE",
"429 742 CURVE SMOOTH",
"506 745 OFFCURVE",
"583 747 OFFCURVE",
"647 750 CURVE",
"642 689 OFFCURVE",
"638 643 OFFCURVE",
"635 592 CURVE",
"499 599 OFFCURVE",
"358 600 OFFCURVE",
"218 601 CURVE",
"217 646 OFFCURVE",
"211 689 OFFCURVE",
"203 736 CURVE"
);
},
{
closed = 1;
nodes = (
"5 12 LINE",
"49 103 OFFCURVE",
"86 189 OFFCURVE",
"119 276 CURVE SMOOTH",
"151 363 OFFCURVE",
"179 451 OFFCURVE",
"204 544 CURVE",
"277 544 OFFCURVE",
"363 546 OFFCURVE",
"447 549 CURVE SMOOTH",
"531 552 OFFCURVE",
"613 557 OFFCURVE",
"681 562 CURVE",
"716 373 OFFCURVE",
"766 195 OFFCURVE",
"845 6 CURVE",
"716 3 OFFCURVE",
"586 -3 OFFCURVE",
"451 -12 CURVE",
"439 60 LINE",
"277 60 LINE",
"267 -7 LINE"
);
},
{
closed = 1;
nodes = (
"358 312 LINE",
"314 205 LINE",
"426 212 LINE",
"392 315 LINE"
);
}
);
width = 850;
}
);
unicode = 0100;
},
{
glyphname = Aogonek;
lastChange = "2015-10-17 22:46:10 +0000";
layers = (
{
layerId = "7A0FC40B-77F8-4D14-AD08-D047673E78CB";
name = Regular;
paths = (
{
closed = 1;
nodes = (
"5 12 LINE",
"85 240 OFFCURVE",
"139 461 OFFCURVE",
"184 694 CURVE",
"264 694 OFFCURVE",
"356 696 OFFCURVE",
"447 699 CURVE SMOOTH",
"538 702 OFFCURVE",
"628 707 OFFCURVE",
"701 712 CURVE",
"732 476 OFFCURVE",
"777 242 OFFCURVE",
"845 6 CURVE",
"716 3 OFFCURVE",
"586 -3 OFFCURVE",
"451 -12 CURVE",
"439 100 LINE",
"277 100 LINE",
"267 -7 LINE"
);
},
{
closed = 1;
nodes = (
"368 462 LINE",
"314 245 LINE",
"426 252 LINE",
"382 465 LINE"
);
},
{
closed = 1;
nodes = (
"683 -123 OFFCURVE",
"704 -125 OFFCURVE",
"724 -125 CURVE SMOOTH",
"764 -125 OFFCURVE",
"792 -120 OFFCURVE",
"835 -100 CURVE",
"845 -161 LINE",
"785 -180 OFFCURVE",
"727 -192 OFFCURVE",
"650 -192 CURVE SMOOTH",
"594 -192 OFFCURVE",
"533 -186 OFFCURVE",
"476 -173 CURVE",
"456 -152 OFFCURVE",
"448 -122 OFFCURVE",
"448 -91 CURVE SMOOTH",
"448 -79 OFFCURVE",
"449 -67 OFFCURVE",
"451 -55 CURVE",
"503 -19 OFFCURVE",
"548 4 OFFCURVE",
"628 20 CURVE",
"825 20 LINE",
"761 -8 OFFCURVE",
"715 -33 OFFCURVE",
"670 -72 CURVE",
"663 -85 OFFCURVE",
"662 -99 OFFCURVE",
"662 -116 CURVE"
);
}
);
width = 850;
}
);
unicode = 0104;
},
